<?xml version="1.0" standalone="no"?>
<!DOCTYPE svg PUBLIC "-//W3C//DTD SVG 20010904//EN"
 "http://www.w3.org/TR/2001/REC-SVG-20010904/DTD/svg10.dtd">
<svg version="1.0" xmlns="http://www.w3.org/2000/svg"
 width="700.000000pt" height="700.000000pt" viewBox="0 0 700.000000 700.000000"
 preserveAspectRatio="xMidYMid meet">

<g transform="translate(0.000000,700.000000) scale(0.100000,-0.100000)"
fill="#000000" stroke="none">
<path d="M3255 6861 c-23 -10 -79 -70 -144 -155 l-44 -58 -73 7 c-91 8 -153
-14 -179 -66 -25 -48 -7 -95 67 -175 52 -55 60 -68 50 -82 -79 -112 -80 -219
-3 -252 39 -16 80 -2 155 50 31 22 63 40 71 40 7 0 30 -23 50 -50 73 -99 128
-121 184 -75 49 42 65 99 57 203 l-7 89 47 7 c80 11 120 25 148 52 36 37 34
75 -4 108 -30 25 -43 30 -160 59 l-55 13 -6 52 c-10 74 -49 180 -80 213 -28
30 -40 33 -74 20z m58 -58 c8 -10 32 -62 53 -116 30 -81 35 -100 23 -107 -11
-8 -11 -10 1 -14 161 -59 207 -79 224 -95 19 -20 19 -21 1 -41 -10 -11 -50
-30 -89 -41 -110 -32 -156 -50 -156 -61 0 -6 9 -8 19 -5 15 4 20 -2 25 -32 21
-130 -16 -231 -85 -231 -25 0 -45 14 -106 78 -44 44 -78 72 -80 65 -3 -7 -12
-13 -21 -13 -9 0 -42 -18 -73 -40 -68 -48 -110 -53 -135 -15 -22 33 -11 90 32
173 39 75 38 72 20 72 -19 0 -103 99 -117 138 -23 67 37 105 180 110 52 2 88
8 81 12 -15 9 147 180 172 180 8 0 22 -8 31 -17z"/>
<path d="M3570 5596 c-6 -8 -10 -25 -7 -38 4 -21 4 -20 6 4 0 15 9 32 19 37 9
6 12 11 6 11 -6 0 -17 -7 -24 -14z"/>
<path d="M3769 5592 c8 -6 12 -19 8 -32 -4 -16 -3 -20 4 -13 15 15 7 45 -11
50 -12 4 -13 3 -1 -5z"/>
<path d="M3750 5511 c-12 -24 -13 -34 -1 -27 9 6 22 46 15 46 -2 0 -8 -9 -14
-19z"/>
<path d="M3785 5460 c10 -11 20 -20 23 -20 3 0 -3 9 -13 20 -10 11 -20 20 -23
20 -3 0 3 -9 13 -20z"/>
<path d="M3526 5438 c-16 -23 -6 -59 17 -57 9 0 9 2 0 6 -16 6 -17 45 -1 61 7
7 9 12 6 12 -4 0 -14 -10 -22 -22z"/>
<path d="M3811 5414 c0 -11 3 -14 6 -6 3 7 2 16 -1 19 -3 4 -6 -2 -5 -13z"/>
<path d="M3712 5378 c-7 -7 -12 -21 -11 -32 1 -18 2 -17 8 4 6 21 13 25 42 23
27 -2 30 0 14 7 -28 12 -39 12 -53 -2z"/>
<path d="M3573 5373 c9 -2 25 -2 35 0 9 3 1 5 -18 5 -19 0 -27 -2 -17 -5z"/>
<path d="M3861 5265 c4 -5 23 -32 43 -59 79 -105 159 -304 171 -426 7 -64 -17
-257 -33 -271 -4 -4 -46 -10 -93 -13 l-86 -7 -5 123 c-6 146 -29 218 -90 284
-73 79 -144 95 -202 44 -42 -37 -61 -88 -51 -137 7 -40 56 -141 129 -268 25
-44 46 -85 46 -91 0 -6 -15 -17 -32 -25 -157 -62 -400 -304 -504 -502 -28 -53
-44 -72 -76 -88 -98 -50 -185 -176 -209 -304 -15 -80 -5 -250 20 -346 44 -171
119 -279 274 -395 91 -69 267 -174 267 -161 0 3 -24 20 -52 38 -130 83 -302
223 -344 280 -107 146 -167 402 -135 574 44 235 214 358 491 357 109 0 354
-31 450 -57 78 -21 74 -10 -6 15 -101 31 -355 70 -455 70 -77 0 -162 -10 -211
-26 -10 -3 -18 -1 -18 5 0 27 136 207 220 291 148 149 269 226 413 263 57 15
58 15 67 -6 l9 -22 0 22 c1 31 32 38 166 37 126 0 179 -16 286 -86 84 -54 209
-176 259 -253 79 -122 151 -342 169 -520 7 -75 8 -131 2 -142 0 -2 -29 20 -63
48 -108 87 -431 226 -568 243 -43 6 -43 5 15 -13 106 -33 294 -109 385 -157
219 -112 328 -286 300 -473 -21 -135 -146 -332 -278 -436 -109 -87 -176 -113
-367 -140 -236 -34 -365 -33 -510 5 -69 18 -114 25 -121 19 -6 -5 -87 -25
-180 -44 -93 -19 -200 -41 -239 -49 -148 -31 -195 -30 -420 8 -335 55 -657
165 -825 279 -25 17 -85 69 -133 114 -48 46 -93 81 -99 77 -6 -4 -8 -23 -5
-43 6 -49 132 -331 161 -362 13 -14 47 -59 76 -100 57 -79 118 -155 187 -230
27 -30 44 -60 49 -85 3 -22 11 -47 16 -56 14 -28 63 -48 113 -48 41 0 57 -7
128 -59 90 -65 111 -75 302 -146 131 -49 159 -68 170 -117 8 -34 16 -40 103
-71 90 -33 96 -33 165 -2 56 24 59 24 264 19 129 -4 252 -2 323 5 63 7 145 14
181 18 l65 6 17 -94 c31 -172 32 -209 8 -280 -17 -52 -37 -83 -101 -154 -43
-50 -123 -128 -177 -175 -153 -133 -262 -241 -296 -292 -33 -52 -43 -56 -86
-33 -82 42 -163 26 -260 -54 -72 -59 -116 -81 -161 -81 -47 0 -60 15 -60 67 0
48 17 63 69 63 17 0 31 5 31 10 0 6 -18 10 -40 10 -86 0 -121 -90 -60 -152 26
-26 36 -30 65 -25 49 8 93 31 155 82 74 60 115 79 175 78 51 0 115 -25 115
-44 0 -6 -5 -30 -11 -53 -9 -38 -15 -45 -50 -55 -21 -7 -99 -43 -172 -80 -143
-73 -240 -100 -311 -87 -43 8 -108 63 -126 106 -7 17 -15 29 -17 26 -7 -7 27
-80 50 -105 32 -35 79 -51 145 -51 80 0 145 21 294 96 l128 64 -34 -45 c-35
-46 -60 -128 -54 -181 3 -26 -2 -30 -67 -56 -203 -79 -344 -73 -490 24 -154
102 -165 284 -25 432 61 65 132 99 208 100 48 1 56 -2 83 -32 16 -18 29 -27
29 -21 0 6 -15 26 -34 45 -30 30 -40 34 -88 34 -110 0 -239 -95 -296 -218 -35
-75 -37 -177 -5 -237 67 -127 254 -225 404 -212 59 5 169 37 267 78 30 13 34
12 43 -4 18 -31 52 -57 76 -57 31 0 79 25 86 45 8 19 28 19 88 -2 40 -15 56
-16 102 -6 58 12 134 -2 262 -48 62 -22 70 -22 182 7 16 5 33 -2 57 -24 33
-29 38 -30 119 -28 82 2 137 20 137 46 0 14 28 12 80 -6 75 -26 165 -3 209 52
58 74 46 156 -37 245 -30 33 -57 57 -60 55 -2 -3 16 -28 40 -55 101 -112 85
-239 -33 -271 -55 -15 -149 -7 -165 15 -15 21 -17 20 -57 -20 -22 -22 -45 -35
-61 -35 -14 0 -26 1 -26 3 0 1 7 20 15 42 19 54 18 99 -4 163 l-18 53 29 24
c49 41 102 35 185 -22 37 -25 62 -39 54 -30 -11 14 -11 26 2 79 30 123 9 322
-54 511 l-29 89 31 91 c39 113 52 263 25 286 -21 18 -20 38 2 43 23 6 27 35
43 307 10 177 14 198 33 219 28 32 69 52 104 52 36 0 52 16 52 54 0 24 15 43
78 103 190 180 221 213 270 288 29 44 75 126 103 183 43 89 55 106 85 118 19
8 37 22 41 32 3 9 15 40 28 67 16 37 19 57 13 76 -6 19 -1 63 17 150 65 311
67 330 69 499 1 131 -4 197 -23 318 -23 140 -23 155 -9 185 14 29 14 37 -5
101 -17 57 -25 70 -48 78 -22 8 -32 23 -54 86 -66 187 -174 353 -286 439 -87
66 -64 83 111 83 124 0 159 -7 170 -34 5 -12 9 -16 9 -9 1 6 3 17 6 25 2 7 -5
24 -16 38 -18 23 -19 23 -9 3 14 -29 -3 -30 -80 -3 -71 25 -128 25 -224 0
l-78 -20 -36 26 -37 26 30 -25 c31 -28 31 -28 -2 -46 -25 -13 -38 1 -67 71
-19 44 -6 58 24 28 13 -13 20 -16 20 -7 0 13 -40 37 -60 37 -17 0 -11 -39 15
-90 14 -27 25 -53 25 -58 0 -5 -26 -26 -57 -47 -110 -73 -207 -182 -283 -317
-17 -32 -38 -58 -46 -58 -7 0 -36 14 -63 30 -54 34 -135 64 -199 75 -23 4 -42
12 -42 18 0 7 10 37 22 67 32 80 31 238 -1 330 -34 95 -86 195 -136 259 -46
58 -94 115 -84 96z m-172 -350 c42 -21 93 -85 114 -141 17 -46 42 -267 32
-283 -3 -6 -105 -35 -127 -36 -4 0 -40 65 -79 145 -72 146 -90 206 -75 265 15
59 75 82 135 50z m1273 -175 c66 -57 160 -186 201 -273 76 -159 159 -466 183
-675 19 -160 14 -366 -11 -507 -25 -138 -65 -296 -85 -335 -10 -19 -38 -85
-63 -146 -61 -148 -128 -282 -190 -374 -85 -128 -424 -444 -601 -561 -186
-123 -423 -185 -798 -209 -300 -19 -539 25 -929 168 -187 69 -291 124 -364
193 -11 11 -48 39 -82 64 -125 92 -210 181 -359 379 -86 115 -88 118 -154 268
-59 134 -80 198 -65 198 4 0 44 -35 89 -78 138 -132 253 -194 515 -282 193
-64 278 -85 473 -116 209 -33 264 -30 603 39 l260 52 70 -23 c61 -21 94 -25
260 -29 178 -4 298 5 422 33 27 6 27 5 -12 -30 -83 -74 -212 -121 -374 -136
l-86 -7 86 -2 c158 -2 301 50 411 152 31 28 84 67 117 86 71 40 184 148 247
237 141 198 163 413 56 574 -12 19 -15 43 -13 95 1 39 -3 109 -9 158 -8 65 -8
98 1 130 6 23 26 123 45 222 24 131 38 183 50 190 43 26 124 100 149 135 32
46 42 108 25 150 -18 44 -63 64 -136 63 l-61 -2 -17 102 c-8 56 -18 111 -22
123 -4 17 1 23 33 36 43 17 49 14 135 -62z m-173 -22 c5 -29 13 -73 16 -98 3
-25 8 -56 11 -70 4 -22 0 -28 -30 -38 -58 -21 -122 -79 -174 -156 -28 -42 -53
-84 -57 -96 -3 -11 -12 -20 -18 -20 -18 1 -147 126 -147 143 0 27 121 184 198
259 74 71 153 128 179 128 6 0 16 -24 22 -52z m193 -238 c55 -68 -34 -204
-191 -292 -31 -17 -78 -47 -105 -65 -38 -27 -51 -32 -57 -21 -5 7 -9 18 -9 25
0 21 120 120 205 168 47 26 85 52 85 57 0 30 -169 -67 -248 -142 -55 -52 -62
-56 -74 -41 -40 48 -41 44 10 122 77 118 141 172 238 203 63 20 123 14 146
-14z m344 -317 c15 -50 18 -73 10 -85 -14 -23 -20 -14 -41 61 -9 36 -19 71
-22 78 -3 8 2 13 14 13 14 0 23 -15 39 -67z m-510 -10 c-3 -10 -15 -74 -26
-143 -25 -149 -38 -200 -50 -200 -5 0 -16 26 -24 58 -9 31 -29 91 -46 132 -16
40 -28 75 -27 76 1 1 36 23 77 48 80 49 105 57 96 29z m438 -1328 c-16 -35
-35 -65 -41 -65 -18 0 -17 8 11 76 12 32 26 68 31 79 7 19 7 19 18 -2 8 -18 4
-36 -19 -88z m-3073 -732 c53 -42 59 -53 29 -53 -24 0 -80 27 -80 38 0 4 -3
17 -6 30 -9 30 0 28 57 -15z m2479 -61 c0 -13 -23 -32 -39 -32 -11 0 -10 4 4
20 19 21 35 26 35 12z m-215 -181 c-2 -10 -5 -110 -6 -220 l-3 -202 -23 6
c-30 7 -31 -22 -3 -53 27 -28 26 -102 -1 -207 -12 -44 -23 -90 -26 -102 -3
-13 -8 -23 -12 -23 -4 0 -24 46 -45 103 -42 113 -41 79 -16 362 5 61 10 142
11 180 3 92 6 99 64 139 58 41 65 43 60 17z m-165 -113 c0 -18 -5 -94 -11
-168 -19 -240 -16 -257 83 -580 75 -243 102 -465 70 -576 l-12 -41 -47 23
c-60 31 -96 30 -150 -2 l-43 -25 -31 21 c-66 48 -137 35 -222 -40 -59 -53 -54
-66 7 -17 85 70 145 76 205 21 45 -40 63 -85 63 -155 0 -65 -28 -113 -68 -117
-24 -2 -38 5 -67 34 -36 38 -36 38 -58 18 -17 -15 -36 -19 -99 -19 -89 0 -122
16 -153 76 -33 62 -9 136 71 221 25 26 43 50 40 53 -9 9 -110 -89 -129 -127
-21 -41 -28 -115 -14 -157 7 -23 6 -24 -26 -17 -42 8 -45 12 -26 33 8 10 21
39 27 65 10 38 9 55 -4 100 -18 58 -38 85 -105 137 -50 40 -43 15 9 -34 38
-35 80 -118 80 -158 0 -89 -73 -142 -186 -135 -42 3 -69 10 -83 22 -20 18 -21
17 -54 -18 -70 -74 -137 -32 -137 87 0 34 7 71 16 90 55 110 143 126 243 46
29 -23 54 -39 57 -36 10 9 -88 86 -132 103 -54 21 -57 42 -15 129 41 87 106
161 244 278 134 115 246 228 296 300 39 57 56 103 75 207 14 74 14 87 -4 187
-11 60 -20 110 -20 113 0 3 13 7 28 8 34 2 172 43 222 65 52 23 60 21 60 -15z
m-1330 -24 c14 -4 30 -13 36 -21 7 -7 40 -18 75 -24 35 -6 65 -12 68 -14 6 -7
-66 -35 -90 -35 -11 0 -58 12 -104 26 -66 20 -84 30 -88 47 -2 12 -8 30 -12
39 -7 17 -4 17 41 3 27 -8 60 -18 74 -21z"/>
<path d="M5140 4228 c0 -4 11 -53 25 -110 25 -98 25 -112 20 -293 -7 -213 -18
-291 -46 -347 -11 -21 -15 -38 -10 -38 15 0 50 82 60 141 5 30 12 136 15 235
6 173 5 187 -20 285 -23 91 -43 149 -44 127z"/>
<path d="M5110 3366 c0 -7 9 -35 21 -61 19 -43 20 -53 9 -109 -19 -97 -55
-155 -107 -170 -24 -8 -73 -61 -73 -79 1 -7 14 5 31 26 17 21 40 37 51 37 31
0 84 63 103 121 23 67 23 160 2 193 -10 14 -17 32 -17 41 0 8 -4 15 -10 15 -5
0 -10 -6 -10 -14z"/>
<path d="M5061 3223 c-37 -55 -46 -83 -37 -118 9 -34 24 -32 18 3 -4 30 13 77
48 130 12 17 17 32 12 32 -6 0 -24 -21 -41 -47z"/>
<path d="M4576 2298 c-8 -13 -18 -42 -22 -66 -8 -53 -32 -84 -90 -118 -46 -27
-62 -28 -146 -8 -20 4 -28 2 -28 -7 0 -7 3 -10 6 -6 4 3 22 0 41 -8 48 -20 79
-19 130 6 52 25 80 58 93 113 5 22 19 58 29 79 21 40 11 51 -13 15z"/>
<path d="M4458 2204 c-23 -12 -58 -59 -58 -79 0 -3 18 13 40 35 22 22 49 40
59 40 11 0 23 5 26 10 9 15 -36 11 -67 -6z"/>
<path d="M2455 2125 c4 -11 11 -42 15 -69 6 -41 14 -56 45 -83 51 -44 125 -68
167 -54 17 6 49 11 70 11 24 0 37 4 33 10 -8 13 -81 13 -107 -1 -31 -17 -101
7 -153 53 -40 35 -45 44 -45 83 0 28 -6 47 -17 56 -15 12 -16 12 -8 -6z"/>
<path d="M3770 2037 c-60 -28 -76 -31 -215 -38 -89 -4 -193 -16 -255 -29 -130
-28 -310 -26 -373 4 -53 26 -58 12 -5 -15 66 -35 250 -39 373 -9 61 15 141 24
246 29 155 8 156 8 245 49 49 23 80 41 69 41 -11 0 -49 -15 -85 -32z"/>
<path d="M2526 2051 c-3 -5 11 -11 31 -14 23 -4 50 -20 75 -44 25 -25 38 -32
38 -21 0 24 -49 67 -89 78 -44 12 -48 12 -55 1z"/>
<path d="M5356 4982 c-4 -6 3 -8 15 -5 12 4 25 0 31 -8 8 -12 9 -11 5 1 -4 17
-42 26 -51 12z"/>
<path d="M5412 4920 c0 -19 2 -27 5 -17 2 9 2 25 0 35 -3 9 -5 1 -5 -18z"/>
<path d="M5207 4933 c-3 -5 8 -8 23 -8 15 0 26 3 23 8 -2 4 -13 7 -23 7 -10 0
-21 -3 -23 -7z"/>
<path d="M5285 4910 c28 -12 37 -12 30 0 -3 6 -16 10 -28 9 -21 0 -21 -1 -2
-9z"/>
<path d="M5443 4883 c9 -2 23 -2 30 0 6 3 -1 5 -18 5 -16 0 -22 -2 -12 -5z"/>
<path d="M5490 4876 c0 -2 8 -10 18 -17 15 -13 16 -12 3 4 -13 16 -21 21 -21
13z"/>
<path d="M5489 4823 c-13 -16 -12 -17 4 -4 16 13 21 21 13 21 -2 0 -10 -8 -17
-17z"/>
<path d="M5211 4743 c-1 -27 24 -36 64 -23 28 9 28 10 -8 4 -32 -4 -39 -2 -47
18 -9 23 -9 23 -9 1z"/>
<path d="M5437 4733 c-4 -22 -13 -33 -29 -36 -23 -4 -23 -4 -1 -6 25 -1 46 30
41 57 -2 10 -7 4 -11 -15z"/>
<path d="M3520 4114 c-31 -107 -9 -168 58 -162 49 4 74 41 78 115 l4 58 -14
-48 c-21 -72 -42 -99 -74 -95 -39 4 -53 40 -41 106 14 72 6 88 -11 26z"/>
<path d="M4395 3916 c-27 -65 -29 -108 -5 -139 45 -57 120 -23 150 68 17 51 8
80 -12 35 -8 -19 -27 -50 -42 -67 -62 -74 -104 -19 -77 100 11 46 4 48 -14 3z"/>
</g>
</svg>
