<?xml version="1.0" standalone="no"?>
<!DOCTYPE svg PUBLIC "-//W3C//DTD SVG 20010904//EN"
 "http://www.w3.org/TR/2001/REC-SVG-20010904/DTD/svg10.dtd">
<svg version="1.0" xmlns="http://www.w3.org/2000/svg"
 width="740.000000pt" height="1112.000000pt" viewBox="0 0 740.000000 1112.000000"
 preserveAspectRatio="xMidYMid meet">

<g transform="translate(0.000000,1112.000000) scale(0.100000,-0.100000)"
fill="#000000" stroke="none">
<path d="M3436 8734 c13 -11 15 -17 7 -20 -21 -9 -15 -21 12 -26 15 -3 25 -1
25 6 0 20 -31 56 -47 56 -14 0 -14 -2 3 -16z"/>
<path d="M2937 8724 c-31 -8 -70 -20 -85 -27 -15 -8 -33 -12 -41 -9 -8 3 -11
0 -7 -7 4 -6 2 -11 -4 -11 -11 0 -65 -58 -65 -70 0 -4 -7 -13 -15 -22 -8 -9
-33 -36 -55 -62 -22 -25 -45 -46 -51 -46 -6 0 -16 -11 -22 -24 -6 -13 -24 -39
-40 -57 -30 -35 -58 -121 -46 -141 4 -6 3 -8 -3 -5 -30 18 -52 -201 -26 -249
7 -11 14 -53 17 -94 4 -45 13 -84 25 -104 10 -17 22 -42 26 -56 27 -92 221
-302 332 -360 77 -40 116 -87 111 -135 -3 -25 -8 -30 -33 -33 -60 -6 -101 -22
-132 -52 -37 -34 -121 -80 -149 -80 -11 0 -25 -4 -33 -9 -11 -7 -9 -10 7 -15
12 -4 24 -16 27 -27 12 -38 66 -151 70 -147 2 2 -6 31 -19 63 -13 33 -27 75
-31 92 -5 27 -4 32 9 27 8 -3 15 -9 14 -12 -1 -4 8 -27 21 -52 12 -25 19 -34
16 -20 -25 101 -25 97 -9 75 12 -16 17 -17 23 -7 6 10 18 -7 40 -53 17 -37 49
-88 70 -114 34 -41 48 -49 98 -61 71 -16 184 -20 238 -8 42 9 79 43 71 64 -3
7 0 14 6 16 6 2 -2 25 -18 55 -27 48 -28 53 -13 69 16 15 19 14 50 -19 42 -43
69 -52 117 -37 75 23 125 56 183 119 32 36 59 69 59 73 0 4 -10 8 -22 8 -24 0
-127 102 -109 108 6 2 11 13 11 25 0 20 0 20 -15 1 -14 -19 -14 -19 -15 1 -1
18 -2 17 -11 -4 -6 -16 -6 -28 2 -38 10 -11 9 -12 -5 -7 -9 3 -16 12 -16 20 0
8 -10 14 -25 14 -19 0 -25 5 -25 21 0 16 4 19 20 14 14 -4 20 -2 20 8 0 8 -9
22 -20 32 -11 10 -20 24 -20 32 0 16 -16 17 -26 2 -4 -7 1 -16 10 -21 20 -11
21 -44 2 -51 -12 -5 -29 23 -28 44 1 3 -3 22 -8 43 -11 51 12 60 47 17 33 -39
47 -40 41 -1 -3 20 0 30 9 30 18 0 17 25 -2 40 -9 7 -13 20 -10 29 8 27 -20
103 -50 133 -16 15 -23 28 -17 28 9 0 9 5 3 18 -6 9 -13 38 -16 65 -4 31 -11
47 -21 47 -8 0 -14 7 -14 15 0 8 -6 12 -14 9 -9 -4 -18 7 -26 33 -13 38 -40
85 -40 68 0 -5 -10 1 -21 14 -13 13 -29 21 -40 18 -22 -6 -31 16 -23 58 8 43
46 77 80 71 32 -6 54 2 54 20 0 13 13 19 34 15 6 -1 21 0 34 4 20 5 22 8 12
21 -7 8 -18 14 -24 13 -34 -4 -39 1 -32 41 6 41 -8 57 -21 23 -7 -19 -22 -33
-36 -33 -5 0 -6 4 -3 9 4 5 3 17 -1 27 -6 16 -7 15 -21 -2 -14 -18 -14 -18 -8
0 5 14 2 17 -9 12 -10 -3 -15 1 -16 12 0 12 -3 11 -10 -6 -10 -26 -29 -21 -29
8 0 10 -5 22 -10 25 -7 4 -9 -2 -5 -17 4 -17 2 -25 -7 -25 -9 0 -13 16 -13 54
0 29 3 53 8 53 12 0 8 17 -7 33 -8 8 -13 28 -11 48 2 19 4 37 4 41 1 3 18 10
38 15 22 5 39 16 41 25 2 13 -2 15 -20 11 l-23 -6 21 23 c17 18 25 20 41 11
27 -14 34 -5 21 25 -10 22 -12 22 -24 6 -7 -9 -14 -12 -14 -5 0 6 -3 19 -7 29
-4 12 -3 15 5 10 8 -5 12 1 12 18 0 17 5 26 16 26 10 0 14 6 11 14 -4 10 -1
13 7 10 7 -3 19 2 26 10 10 13 9 17 -6 22 -11 4 -23 9 -29 11 -5 3 -1 -3 9
-11 13 -11 15 -16 6 -16 -7 0 -22 7 -32 17 -24 21 -236 26 -321 7z m68 -4 c3
-5 -1 -10 -10 -10 -9 0 -13 5 -10 10 3 6 8 10 10 10 2 0 7 -4 10 -10z m35 -10
c0 -5 -2 -10 -4 -10 -3 0 -8 5 -11 10 -3 6 -1 10 4 10 6 0 11 -4 11 -10z m185
-130 c3 -5 1 -10 -4 -10 -6 0 -11 5 -11 10 0 6 2 10 4 10 3 0 8 -4 11 -10z
m-15 -20 c9 -6 10 -10 3 -10 -6 0 -19 -7 -27 -16 -15 -14 -16 -14 -16 4 0 31
14 39 40 22z m-160 -104 c0 -3 -4 -8 -10 -11 -5 -3 -10 -1 -10 4 0 6 5 11 10
11 6 0 10 -2 10 -4z m9 -326 c0 -23 -1 -23 -9 -5 -5 11 -9 29 -9 40 -1 17 1
17 9 5 5 -8 9 -26 9 -40z m126 -49 c-3 -6 -11 -11 -16 -11 -5 0 -4 6 3 14 14
16 24 13 13 -3z m-141 -175 c54 -25 66 -39 66 -82 0 -31 -11 -30 -41 2 -29 31
-90 64 -119 64 -30 0 -60 -35 -60 -71 0 -28 1 -29 16 -15 21 21 46 20 77 -4
14 -11 33 -20 42 -20 14 0 12 -5 -9 -21 -18 -14 -26 -30 -26 -53 0 -46 13 -56
62 -43 27 7 50 7 74 -1 30 -9 34 -8 34 8 0 10 -9 22 -20 25 -15 5 -20 15 -20
41 0 31 2 34 19 25 27 -15 69 -154 53 -177 -14 -21 -48 -32 -96 -32 -35 1 -43
4 -31 11 15 8 15 10 -1 28 -14 15 -14 21 -4 34 8 9 8 15 2 15 -6 0 -14 -4 -17
-10 -9 -15 -58 -12 -83 6 -13 9 -30 34 -39 57 -9 22 -18 36 -20 30 -2 -6 3
-27 11 -47 11 -26 27 -42 60 -58 45 -21 57 -40 35 -53 -14 -9 -71 31 -92 64
-9 14 -26 38 -37 52 -45 54 -33 161 25 223 31 33 70 34 139 2z"/>
<path d="M3308 8733 c6 -2 18 -2 25 0 6 3 1 5 -13 5 -14 0 -19 -2 -12 -5z"/>
<path d="M3493 8725 c0 -8 4 -15 9 -15 4 0 8 -9 8 -20 0 -11 -5 -20 -12 -20
-6 0 -2 -9 10 -20 26 -24 35 -25 53 -4 10 13 10 17 0 24 -8 4 -10 13 -7 19 5
7 -1 11 -14 11 -13 0 -19 4 -14 12 4 7 3 8 -4 4 -7 -4 -12 -1 -12 8 0 9 -4 16
-8 16 -5 0 -9 -7 -9 -15z"/>
<path d="M3589 8708 c-7 -26 -4 -38 8 -42 17 -7 33 0 33 14 0 8 -39 35 -41 28z"/>
<path d="M3324 8625 c1 -19 2 -35 3 -35 1 0 9 7 17 15 13 13 13 20 3 35 -17
29 -24 25 -23 -15z"/>
<path d="M3250 8510 c0 -5 7 -10 15 -10 8 0 15 5 15 10 0 6 -7 10 -15 10 -8 0
-15 -4 -15 -10z"/>
<path d="M1410 8281 c-58 -6 -110 -32 -110 -54 0 -7 -15 -29 -32 -49 -44 -49
-77 -93 -84 -111 -8 -23 23 -48 52 -41 18 5 32 0 47 -14 12 -11 39 -25 60 -32
24 -7 39 -19 42 -33 3 -12 12 -56 20 -97 10 -45 24 -83 36 -97 l21 -22 -20
-28 c-27 -38 -14 -63 33 -63 21 0 39 -7 47 -18 7 -9 40 -31 73 -49 35 -18 68
-44 78 -62 18 -29 18 -30 -7 -68 -33 -50 -66 -156 -66 -214 0 -25 15 -90 35
-149 31 -91 35 -116 35 -204 1 -175 29 -581 45 -653 23 -98 105 -353 123 -383
25 -40 65 -81 94 -96 47 -25 145 -18 214 15 34 16 64 33 67 38 3 4 -18 9 -46
10 -40 1 -54 6 -69 25 -29 38 -124 239 -138 293 -7 28 -17 55 -22 61 -21 29
-58 180 -67 284 -6 63 -20 151 -32 195 -26 104 -20 165 22 207 20 21 29 39 29
62 0 17 5 37 11 43 7 7 8 17 3 25 -15 24 -13 38 8 49 14 8 23 8 31 0 15 -15
61 -14 100 3 34 14 67 54 67 81 0 13 -4 14 -21 4 -29 -15 -85 -3 -103 22 -8
12 -19 18 -26 14 -13 -8 -70 -25 -70 -20 0 7 69 43 106 55 56 18 63 29 15 23
-37 -5 -42 -3 -58 26 -22 37 -36 41 -27 6 4 -15 2 -25 -5 -25 -6 0 -11 11 -11
26 0 21 9 29 55 50 30 14 55 28 55 31 0 3 -32 3 -72 0 -67 -5 -73 -4 -94 18
l-22 24 29 32 c28 31 28 34 13 57 -18 28 -6 49 22 38 13 -5 15 -14 11 -41 -6
-36 2 -42 37 -29 13 5 14 9 5 21 -9 11 -9 17 1 26 9 8 14 9 17 1 10 -29 31
-46 51 -42 22 3 22 3 -11 74 l-34 70 21 37 21 37 -22 40 c-19 35 -19 39 -3 30
13 -7 21 -5 30 5 11 13 4 24 -37 65 -36 36 -55 48 -67 44 -13 -5 -16 -14 -11
-33 6 -24 5 -25 -10 -10 -14 13 -15 21 -6 38 9 17 8 29 -9 63 -25 51 -25 51
-1 38 28 -14 31 -13 31 14 0 16 -15 38 -47 65 -51 46 -69 48 -66 7 2 -23 -1
-25 -17 -16 -10 5 -27 10 -38 10 -21 0 -38 26 -21 32 16 5 -32 83 -63 101 -16
9 -31 24 -35 34 -9 27 -34 53 -50 53 -8 0 -26 9 -40 20 -27 21 -31 21 -123 11z
m360 -510 c16 -32 13 -63 -7 -59 -13 2 -19 14 -21 41 -3 40 11 49 28 18z m130
-501 c0 -17 -2 -19 -14 -8 -14 13 -12 28 5 28 5 0 9 -9 9 -20z m17 -76 c-3 -4
-14 -3 -24 0 -15 6 -15 8 -3 16 16 10 39 -4 27 -16z m33 -59 c7 -9 8 -15 2
-15 -5 0 -12 7 -16 15 -3 8 -4 15 -2 15 2 0 9 -7 16 -15z"/>
<path d="M3760 8021 c0 -5 -28 -12 -62 -17 l-63 -7 60 -12 c52 -11 62 -11 78
3 21 19 22 28 2 36 -8 3 -15 1 -15 -3z"/>
<path d="M3949 7980 c-10 -7 -10 -11 0 -24 8 -9 18 -16 24 -16 6 0 7 3 4 7 -4
3 1 11 10 18 14 11 14 12 -4 17 -12 3 -27 2 -34 -2z"/>
<path d="M3942 7801 c-11 -6 -10 -9 5 -13 23 -6 45 1 37 13 -7 11 -25 11 -42
0z"/>
<path d="M3870 7791 c0 -5 5 -13 10 -16 6 -3 10 -2 10 4 0 5 -4 13 -10 16 -5
3 -10 2 -10 -4z"/>
<path d="M4000 7779 c0 -5 5 -7 10 -4 6 3 10 8 10 11 0 2 -4 4 -10 4 -5 0 -10
-5 -10 -11z"/>
<path d="M3881 7641 c-26 -10 -45 -25 -47 -35 -4 -26 -12 -30 -28 -17 -19 16
-59 -3 -54 -26 4 -19 51 -56 75 -58 10 -1 31 -7 46 -14 38 -15 39 -14 32 9 -5
15 -2 20 10 20 23 0 94 80 95 106 0 16 -8 23 -31 28 -42 8 -47 8 -98 -13z m89
-36 c0 -21 -5 -25 -29 -25 -17 0 -33 5 -36 10 -4 6 -11 8 -16 4 -6 -3 -17 -3
-26 0 -32 12 7 36 58 36 46 0 49 -2 49 -25z"/>
<path d="M2046 7364 c-24 -17 -10 -38 22 -32 18 3 19 6 9 25 -11 19 -14 20
-31 7z"/>
<path d="M3584 7304 c3 -9 6 -18 6 -20 0 -3 4 -3 10 1 11 7 2 35 -12 35 -6 0
-7 -7 -4 -16z"/>
<path d="M3628 7292 c-5 -19 6 -34 35 -45 19 -7 21 1 7 37 -11 30 -35 34 -42
8z"/>
<path d="M5464 7125 c-64 -64 -94 -114 -94 -155 0 -11 -15 -65 -34 -118 -18
-53 -41 -132 -51 -174 -12 -54 -22 -78 -33 -80 -13 -2 -8 -12 22 -45 38 -43
44 -75 15 -81 -20 -4 -34 29 -17 39 15 9 15 9 -40 43 -35 22 -46 25 -58 15 -8
-6 -14 -18 -14 -26 0 -8 -4 -12 -9 -9 -5 3 -12 -19 -16 -49 -4 -37 -10 -52
-19 -49 -7 3 -32 -10 -57 -28 -47 -34 -250 -138 -269 -138 -7 0 -24 -8 -38
-19 -15 -10 -40 -21 -57 -25 -16 -4 -37 -14 -45 -21 -8 -7 -17 -13 -20 -12
-14 5 -78 -57 -83 -81 -3 -15 -20 -38 -39 -51 -19 -14 -27 -17 -19 -8 8 10 11
20 8 23 -3 3 -12 -3 -19 -15 -15 -25 -28 -27 -28 -6 0 19 -14 19 -30 0 -9 -11
-27 -15 -61 -13 -39 2 -46 5 -34 14 8 6 15 15 15 19 0 5 15 21 33 37 21 19 25
25 10 18 -50 -24 -83 -7 -92 46 l-6 39 -28 -54 c-16 -29 -26 -55 -24 -57 2 -2
18 1 35 7 39 13 66 7 37 -9 -12 -6 -34 -12 -51 -14 -17 -2 -39 -11 -49 -21
-27 -27 -28 -15 -2 34 13 24 22 50 19 58 -3 8 0 11 6 7 10 -6 36 53 27 62 -9
9 -34 -31 -47 -73 -7 -22 -18 -44 -25 -48 -7 -4 -13 -16 -13 -25 -1 -21 -23
-52 -39 -52 -15 0 -14 -17 2 -27 6 -4 22 -29 34 -54 24 -51 109 -130 166 -154
53 -22 138 -18 251 10 123 32 229 78 343 149 48 31 138 81 198 112 61 31 137
75 170 99 33 23 94 57 136 76 41 19 74 39 72 45 -2 6 5 14 17 17 11 3 18 1 14
-4 -10 -16 13 -9 29 9 10 10 17 31 17 45 0 17 5 27 14 27 21 0 57 50 51 70 -3
10 1 23 10 30 21 17 30 77 15 95 -7 8 -21 15 -31 15 -11 0 -19 4 -19 9 0 4 11
6 25 3 15 -2 25 0 25 7 0 6 15 11 34 11 19 0 47 5 63 11 38 14 269 -6 302 -28
26 -17 79 -21 126 -9 48 12 63 -8 99 -137 46 -162 88 -221 167 -233 44 -6 97
21 126 64 43 65 39 218 -13 527 -40 234 -88 313 -192 315 -18 0 -47 -7 -64
-16 -25 -13 -47 -15 -102 -10 -166 16 -445 36 -493 36 -40 0 -53 4 -53 15 0 8
-4 16 -10 16 -5 1 -14 2 -19 3 -5 0 -13 4 -17 9 -4 4 -27 7 -51 7 -41 0 -49
-5 -109 -65z m996 -35 c0 -5 -2 -10 -4 -10 -3 0 -8 5 -11 10 -3 6 -1 10 4 10
6 0 11 -4 11 -10z m-230 -311 c0 -6 -4 -7 -10 -4 -5 3 -10 11 -10 16 0 6 5 7
10 4 6 -3 10 -11 10 -16z m-678 -382 c8 -16 8 -22 -1 -25 -6 -2 -11 -12 -11
-22 0 -28 -15 -32 -35 -10 -13 15 -15 23 -7 33 6 7 9 23 6 34 -5 18 -3 21 15
16 12 -3 27 -15 33 -26z m-1304 -366 c11 -7 10 -9 -3 -14 -9 -4 -14 -3 -10 2
3 5 -1 12 -7 14 -7 3 -8 6 -3 6 6 0 16 -3 23 -8z m79 -45 c9 -9 -80 -7 -94 2
-6 4 11 7 38 6 28 -1 53 -5 56 -8z"/>
<path d="M3846 7161 c12 -11 106 -42 112 -37 5 6 -87 46 -106 46 -10 0 -12 -3
-6 -9z"/>
<path d="M3980 7110 c8 -5 20 -10 25 -10 6 0 3 5 -5 10 -8 5 -19 10 -25 10 -5
0 -3 -5 5 -10z"/>
<path d="M2590 7050 c-8 -5 -10 -10 -5 -10 6 0 17 5 25 10 8 5 11 10 5 10 -5
0 -17 -5 -25 -10z"/>
<path d="M2511 7004 c-23 -20 -40 -39 -37 -41 3 -3 19 8 37 25 19 18 39 28 50
25 17 -5 20 -14 35 -123 3 -24 12 -56 20 -72 17 -33 18 -78 3 -112 -9 -20 -8
-38 5 -87 19 -65 14 -177 -5 -148 -7 9 -8 1 -3 -23 7 -45 -3 -66 -20 -42 -11
14 -14 5 -20 -61 -5 -53 -16 -98 -37 -143 -16 -36 -27 -71 -25 -76 2 -6 5 -3
5 6 1 9 15 24 33 32 40 20 39 21 26 -15 -11 -32 2 -79 22 -79 5 0 10 -9 10
-20 0 -12 9 -38 20 -59 15 -31 17 -45 10 -72 -15 -50 -12 -100 6 -120 21 -23
29 -90 15 -117 -10 -19 -5 -33 34 -99 41 -71 58 -133 36 -133 -16 0 -51 -64
-39 -71 17 -11 18 -39 2 -39 -22 0 -54 -38 -54 -65 0 -14 14 -47 30 -74 28
-46 29 -50 16 -81 -13 -31 -14 -32 -20 -12 -7 21 -26 31 -26 14 0 -4 -10 -12
-22 -17 -17 -7 -23 -18 -23 -42 0 -18 -4 -33 -8 -33 -5 0 -7 -7 -3 -15 3 -8
-2 -21 -11 -30 -22 -23 -32 -79 -28 -157 3 -50 1 -67 -7 -62 -8 5 -9 2 -5 -9
4 -10 2 -16 -4 -14 -6 1 -16 -5 -22 -15 -8 -12 -6 -31 8 -77 10 -33 21 -58 25
-56 4 3 8 -14 8 -38 0 -75 14 -149 25 -138 19 19 28 12 16 -11 -7 -13 -15 -25
-18 -28 -25 -21 -59 -209 -45 -248 14 -39 0 -320 -21 -412 -15 -61 -16 -100
-11 -210 4 -74 8 -245 10 -380 2 -212 7 -275 35 -465 17 -121 38 -238 45 -261
8 -24 10 -47 5 -56 -5 -9 -4 -30 1 -49 6 -19 10 -48 10 -66 0 -17 6 -33 13
-36 9 -3 9 -9 -1 -26 -10 -18 -10 -26 -1 -37 9 -11 9 -17 -1 -29 -6 -8 -9 -23
-5 -35 4 -11 2 -20 -4 -20 -6 0 -11 -8 -11 -17 0 -9 -7 -25 -17 -35 -25 -27
-9 -33 25 -8 62 46 158 35 233 -27 43 -36 43 -36 14 -4 -39 42 -97 72 -160 81
l-50 8 60 1 c103 2 177 -33 230 -109 23 -33 27 -50 27 -107 1 -72 -13 -113
-37 -113 -10 0 -13 10 -9 38 l5 37 -13 -35 c-10 -26 -26 -42 -60 -60 -53 -28
-63 -44 -20 -34 57 14 121 47 153 80 28 29 33 42 37 94 6 76 -1 95 -28 80 -16
-9 -22 -6 -37 17 -22 35 -39 52 -77 81 -34 25 -30 28 17 9 18 -7 45 -10 62 -7
24 4 9 11 -90 42 -66 20 -138 40 -160 44 l-40 6 48 15 c43 12 61 12 153 -1 58
-9 115 -16 127 -16 50 1 -13 18 -143 40 -74 12 -137 23 -139 26 -6 6 20 13 64
17 28 3 19 5 -30 7 -104 5 -103 5 -112 14 -4 4 -3 6 2 4 6 -1 24 3 40 9 17 7
94 16 172 21 89 6 149 14 158 22 12 10 15 28 13 69 -3 53 -4 56 -28 54 -94 -7
-169 -4 -189 6 -37 20 -49 66 -44 161 3 47 8 87 12 90 12 8 4 205 -12 330 -3
26 15 104 29 125 8 11 14 27 14 36 0 9 7 19 15 23 8 3 15 16 15 29 0 21 28 69
51 87 28 23 26 92 -4 128 -7 9 -5 16 6 25 43 31 8 176 -43 178 -14 1 -28 1
-32 0 -5 0 -8 4 -8 10 0 5 -4 8 -9 5 -4 -3 -16 3 -26 14 -10 11 -15 20 -12 20
4 0 -1 9 -11 20 -9 11 -24 39 -32 62 -14 37 -14 48 -2 83 7 22 12 50 9 62 -2
13 1 23 7 23 6 0 5 4 -3 9 -10 7 -11 13 -2 30 9 16 8 27 -3 48 -7 16 -19 61
-26 100 -6 40 -16 75 -21 79 -16 9 -10 24 14 34 20 8 19 9 -12 9 -25 1 -31 4
-23 14 5 6 13 28 17 47 12 63 29 100 45 100 13 1 13 2 0 13 -9 7 -14 20 -12
30 2 10 -1 24 -7 31 -9 10 -8 15 3 19 13 5 32 33 55 84 6 12 18 26 28 31 33
18 189 20 179 3 -6 -9 21 -18 82 -26 74 -9 99 -20 164 -71 66 -53 126 -120
116 -130 -3 -2 -24 14 -47 37 -22 23 -41 37 -41 33 0 -5 -4 -3 -8 4 -12 18
-42 4 -42 -19 0 -12 12 -24 33 -32 41 -18 58 -38 96 -110 l31 -59 30 31 c34
34 53 32 84 -7 11 -13 50 -44 87 -67 41 -27 79 -62 99 -90 17 -25 43 -50 56
-55 15 -6 24 -17 24 -31 0 -27 21 -101 32 -114 4 -5 23 -8 41 -7 32 2 33 1 69
-85 20 -49 48 -137 62 -198 14 -60 35 -144 47 -185 28 -101 27 -165 -6 -290
-33 -123 -38 -240 -18 -465 7 -77 13 -176 13 -220 0 -156 1 -179 16 -208 14
-25 14 -31 1 -45 -28 -32 -10 -42 78 -42 46 0 87 -5 90 -10 4 -6 -27 -10 -84
-10 -50 0 -90 -3 -89 -7 0 -5 -2 -15 -6 -24 -4 -9 0 -33 8 -54 19 -45 20 -53
4 -37 -7 7 -16 12 -20 12 -14 0 -9 -28 8 -44 8 -9 12 -16 7 -16 -4 0 1 -8 12
-17 16 -13 17 -15 3 -10 -11 4 -18 1 -18 -5 0 -9 -3 -9 -12 0 -7 7 -18 12 -24
12 -17 0 -28 -77 -19 -130 12 -74 113 -152 231 -181 27 -7 54 -16 61 -21 6 -5
19 -8 29 -6 10 2 18 -4 20 -16 5 -34 96 -104 184 -142 105 -45 183 -55 241
-29 37 17 39 20 39 65 0 56 -40 125 -82 139 -58 20 -183 -10 -237 -58 -34 -30
-45 -26 -37 11 8 38 40 76 81 94 20 9 24 13 12 14 -28 0 -69 -25 -104 -64 -21
-22 -39 -33 -48 -30 -19 8 -19 11 8 59 28 50 90 93 142 98 l40 4 -43 1 c-56 3
-111 -26 -157 -82 -29 -36 -39 -43 -50 -33 -7 7 -10 14 -6 17 4 3 8 16 8 29 4
53 89 127 162 142 l36 7 -34 1 c-46 1 -109 -30 -159 -79 -43 -43 -55 -49 -46
-25 5 11 2 13 -11 9 -14 -6 -16 -3 -10 17 15 54 79 112 150 137 23 8 25 11 9
11 -28 1 -112 -43 -150 -80 -17 -16 -33 -26 -37 -23 -4 4 -7 -4 -8 -17 0 -13
-3 -18 -6 -11 -2 6 -9 9 -15 6 -6 -4 -5 3 1 15 7 12 9 26 5 32 -8 13 21 45 67
75 45 28 144 58 161 48 10 -5 10 -4 1 6 -25 27 -192 -32 -247 -87 -14 -14 -29
-23 -33 -20 -3 4 0 7 8 7 11 0 12 2 1 9 -18 11 41 92 85 117 50 28 34 26 -48
-6 -86 -34 -117 -38 -74 -10 38 25 187 80 223 81 22 1 23 3 6 6 -12 2 -70 -8
-128 -22 -112 -28 -133 -27 -116 6 6 10 7 19 3 20 -15 2 232 38 265 39 17 0
32 5 32 11 0 8 -17 9 -52 5 -72 -8 -177 -10 -183 -4 -6 6 121 28 167 28 28 1
68 19 68 31 0 2 -50 3 -112 1 -86 -3 -122 1 -155 13 -24 9 -50 14 -58 11 -9
-3 -12 0 -9 9 8 21 39 25 190 25 101 0 144 4 151 13 16 19 22 94 9 110 -6 8
-32 18 -57 21 -54 8 -74 27 -83 76 -3 19 -8 51 -12 71 -4 26 -1 40 10 52 9 8
16 23 16 31 0 9 3 16 8 16 13 0 31 53 38 113 5 40 14 65 31 83 18 20 21 29 13
40 -7 7 -9 17 -6 22 3 6 -1 29 -10 53 -12 33 -14 64 -10 122 6 81 14 103 53
151 14 16 34 49 45 73 11 23 24 40 30 37 5 -4 8 10 6 32 -2 23 -8 38 -14 37
-7 -1 -10 6 -7 17 3 12 0 20 -6 20 -7 0 -10 4 -6 9 3 5 -4 16 -15 24 -11 7
-17 17 -14 20 7 7 -22 73 -35 82 -5 3 -20 6 -34 7 -14 1 -23 7 -20 14 2 6 -3
14 -11 17 -9 4 -16 2 -16 -4 0 -11 -49 22 -50 33 0 4 -13 22 -30 40 -16 18
-30 41 -30 50 0 10 -4 26 -9 36 -5 9 -15 44 -21 77 -7 33 -18 72 -26 87 -8 15
-18 50 -21 77 l-6 49 34 7 c19 5 28 10 22 12 -7 3 -37 -3 -67 -11 -70 -21 -82
-21 -66 -1 6 8 9 18 6 23 -3 5 16 19 42 32 26 12 42 25 36 27 -13 4 -6 55 10
66 6 4 -5 5 -24 2 -19 -3 -45 -7 -57 -8 -13 -1 -23 -5 -23 -9 0 -13 -45 -9
-58 4 -9 9 -12 9 -12 -3 0 -11 -13 -15 -52 -16 -29 0 -57 -2 -63 -3 -29 -7
-65 1 -65 15 0 8 7 15 16 15 8 0 12 5 9 11 -12 18 4 61 20 55 8 -3 21 1 29 9
8 8 21 15 28 15 8 0 18 4 23 8 6 5 31 16 57 26 39 14 145 96 124 96 -17 0
-129 -51 -158 -72 -42 -29 -108 -60 -108 -49 0 5 24 23 54 41 34 21 53 39 51
49 -2 19 -52 31 -77 19 -21 -10 -32 6 -19 29 5 10 13 31 16 47 9 41 17 26 24
-46 1 -3 9 -5 19 -3 9 2 22 4 27 4 30 3 37 18 22 47 -8 16 -26 41 -39 55 -13
14 -36 41 -50 59 -20 25 -30 31 -44 25 -11 -5 -22 -9 -26 -9 -5 -1 -8 -5 -7
-10 0 -5 -5 -12 -12 -17 -22 -13 -30 14 -13 40 9 13 11 20 5 17 -6 -4 -11 -3
-11 3 0 18 16 20 42 7 l26 -14 -17 29 c-9 16 -19 29 -23 29 -13 0 -9 30 5 31
6 0 -10 7 -38 15 -31 8 -77 12 -120 9 -57 -4 -65 -3 -42 6 15 6 27 15 27 20 0
5 7 9 15 9 18 0 37 43 28 66 -3 9 -9 12 -12 7 -3 -4 -26 -5 -51 -2 -45 6 -45
6 -7 7 20 1 37 7 37 13 0 6 9 9 20 6 11 -3 20 -1 20 4 0 8 -15 13 -32 10 -5 0
-8 3 -8 8 0 13 -90 62 -101 55 -5 -3 -9 0 -9 5 0 6 -7 11 -16 11 -8 0 -13 4
-9 9 3 5 -4 12 -15 16 -12 4 -38 24 -59 44 -21 21 -46 41 -55 44 -9 4 -16 13
-16 22 0 8 -4 15 -9 15 -4 0 -23 13 -41 29 l-33 29 26 0 c15 0 27 -4 27 -9 0
-5 4 -9 8 -9 4 0 6 15 4 33 -2 17 3 45 12 61 17 34 13 46 -17 47 -17 1 -18 2
-4 6 23 6 22 19 -3 26 -13 3 -18 10 -14 21 3 9 3 23 0 32 -5 13 -9 14 -21 4
-10 -9 -15 -9 -15 -1 0 6 5 11 11 11 5 0 7 5 4 10 -4 6 -3 10 2 9 19 -3 23 2
14 19 -9 16 -6 18 22 14 25 -3 29 -1 17 7 -8 6 -11 11 -7 11 16 0 -22 30 -37
30 -19 0 -21 16 -3 23 6 3 -3 6 -20 6 -40 1 -44 18 -5 23 19 2 27 8 26 21 -2
19 11 23 21 7 3 -5 11 -10 16 -10 6 0 4 7 -4 15 -9 8 -13 24 -10 35 3 11 0 20
-6 20 -6 0 -11 -10 -11 -22 0 -21 0 -21 -16 -2 -8 10 -13 13 -9 7 9 -19 -30
-16 -46 3 -12 15 -11 16 10 9 18 -5 22 -4 16 6 -6 9 -2 11 14 6 18 -4 20 -3
10 9 -7 8 -22 12 -38 9 l-26 -5 26 12 c23 11 25 15 12 27 -13 12 -16 12 -24 0
-6 -10 -9 -10 -9 -1 0 6 -8 12 -17 13 -11 0 -13 3 -5 6 20 8 14 23 -10 24 -13
0 -18 3 -11 5 7 3 9 12 6 21 -5 13 0 15 33 9 31 -5 35 -4 21 5 -11 6 -30 9
-43 6 -17 -3 -28 1 -35 14 -5 11 -7 19 -3 19 3 0 2 6 -3 13 -16 19 -25 67 -13
67 5 0 10 -9 10 -19 0 -12 13 -26 32 -35 41 -21 41 -22 23 21 -8 20 -13 38
-10 41 3 3 5 0 5 -6 0 -7 6 -12 14 -12 21 0 31 -21 15 -31 -9 -6 -10 -9 -2 -9
6 0 15 5 19 11 3 6 17 8 33 4 25 -6 25 -6 6 9 -11 8 -25 16 -32 16 -7 0 -10 7
-7 15 3 8 0 17 -8 20 -9 4 -12 18 -10 45 3 25 0 40 -7 40 -6 0 -10 3 -10 8 4
27 -2 44 -16 38 -10 -3 -17 3 -21 20 -4 14 -22 46 -40 70 -19 24 -34 49 -34
54 0 6 -7 10 -15 10 -9 0 -18 6 -21 14 -3 8 -14 12 -27 9 -20 -4 -20 -3 -5 9
15 13 15 15 -3 26 -11 7 -17 17 -13 23 4 8 1 8 -13 0 -24 -12 -34 -6 -26 17 4
15 3 15 -6 2 -9 -12 -14 -13 -28 -2 -33 23 -46 25 -67 12 -19 -12 -20 -11 -8
2 10 13 9 17 -10 22 -13 3 -35 6 -50 6 -18 0 -29 7 -33 21 -4 11 -4 23 -1 26
3 4 0 13 -6 21 -9 10 -12 63 -10 188 2 130 -1 195 -14 256 -35 176 -39 190
-63 186 -9 -1 -21 1 -27 4 -6 4 -30 -9 -53 -28z m209 -718 c0 -3 -4 -8 -10
-11 -5 -3 -10 -1 -10 4 0 6 5 11 10 11 6 0 10 -2 10 -4z m357 -382 c-3 -3 -12
-4 -19 -1 -8 3 -5 6 6 6 11 1 17 -2 13 -5z m17 -49 c3 -9 0 -15 -9 -15 -8 0
-15 7 -15 15 0 8 4 15 9 15 5 0 11 -7 15 -15z m76 -279 c0 -3 -4 -8 -10 -11
-5 -3 -10 -1 -10 4 0 6 5 11 10 11 6 0 10 -2 10 -4z m-396 -132 c3 -8 2 -12
-4 -9 -6 3 -10 10 -10 16 0 14 7 11 14 -7z m416 -16 c0 -4 -7 -8 -15 -8 -8 0
-15 4 -15 8 0 5 7 9 15 9 8 0 15 -4 15 -9z m-440 -47 c0 -5 -7 -11 -15 -15 -9
-3 -15 0 -15 9 0 8 7 15 15 15 8 0 15 -4 15 -9z m450 -41 c0 -5 -2 -10 -4 -10
-3 0 -8 5 -11 10 -3 6 -1 10 4 10 6 0 11 -4 11 -10z m50 -90 c0 -5 -4 -10 -10
-10 -5 0 -10 5 -10 10 0 6 5 10 10 10 6 0 10 -4 10 -10z m170 -600 c36 -18 45
-20 54 -9 15 19 47 22 82 8 16 -7 37 -11 47 -10 20 3 21 -5 6 -48 -13 -37 -14
-37 -61 -11 -20 10 -76 33 -124 49 -94 32 -128 53 -77 47 17 -2 50 -14 73 -26z
m55 -90 c3 -5 22 -10 41 -10 19 0 34 -4 34 -8 0 -12 -120 -31 -157 -25 -30 5
-31 6 -15 23 25 26 85 39 97 20z m195 -59 c-25 -15 -47 -27 -49 -25 -8 7 14
27 43 40 51 22 53 16 6 -15z m-278 -11 c21 -4 53 -19 73 -34 38 -30 48 -54 14
-36 -11 6 -29 13 -39 15 -10 2 -42 20 -72 41 -29 20 -44 34 -33 29 11 -4 37
-11 57 -15z m257 -84 c-23 -22 -37 -33 -30 -24 7 9 10 21 7 27 -4 5 6 22 21
38 22 22 30 25 37 14 6 -9 -4 -26 -35 -55z m-1040 61 c-2 -2 -12 -9 -21 -16
-15 -11 -18 -11 -18 1 0 7 10 14 21 15 12 1 20 1 18 0z m996 -37 c-3 -5 -12
-10 -18 -10 -7 0 -6 4 3 10 19 12 23 12 15 0z m-25 -90 c0 -5 -7 -10 -16 -10
-8 0 -12 5 -9 10 3 6 10 10 16 10 5 0 9 -4 9 -10z m-98 -22 c-9 -9 -15 -9 -24
0 -9 9 -7 12 12 12 19 0 21 -3 12 -12z m-922 -107 c0 -5 -7 -12 -16 -15 -14
-5 -15 -4 -4 9 14 17 20 19 20 6z m1480 -82 c0 -5 -13 -9 -30 -9 -16 0 -30 5
-30 11 0 6 9 8 20 4 12 -4 20 -2 20 5 0 6 5 8 10 5 6 -3 10 -10 10 -16z m-90
-119 c0 -5 -5 -10 -11 -10 -5 0 -7 5 -4 10 3 6 8 10 11 10 2 0 4 -4 4 -10z
m-1170 -1940 c13 -9 13 -10 0 -10 -8 0 -22 5 -30 10 -13 9 -13 10 0 10 8 0 22
-5 30 -10z"/>
<path d="M3570 4605 c0 -8 5 -15 10 -15 6 0 10 7 10 15 0 8 -4 15 -10 15 -5 0
-10 -7 -10 -15z"/>
<path d="M4100 7031 c0 -5 5 -13 10 -16 6 -3 10 -2 10 4 0 5 -4 13 -10 16 -5
3 -10 2 -10 -4z"/>
<path d="M4050 7001 c0 -6 4 -12 9 -15 14 -9 19 -52 8 -73 -8 -15 -5 -14 13 4
26 25 37 78 14 69 -8 -3 -17 1 -20 9 -7 17 -24 20 -24 6z"/>
<path d="M2450 6935 c0 -8 2 -15 4 -15 2 0 6 7 10 15 3 8 1 15 -4 15 -6 0 -10
-7 -10 -15z"/>
<path d="M2334 6858 c-4 -6 -2 -14 5 -16 7 -2 8 -8 3 -15 -5 -7 -17 -36 -26
-64 -10 -29 -23 -53 -29 -53 -8 0 -8 -3 1 -8 10 -7 8 -12 -7 -26 -18 -17 -18
-18 2 -59 29 -60 37 -75 75 -147 53 -99 72 -138 72 -149 0 -5 4 -12 10 -16 5
-3 3 16 -5 42 -18 57 -17 56 -5 48 6 -3 10 1 10 10 0 8 -6 18 -14 21 -20 8
-28 34 -16 49 8 9 7 14 -3 18 -19 7 -44 170 -28 175 6 2 11 10 11 18 0 9 -4
13 -9 10 -4 -3 -6 31 -4 75 3 57 1 79 -6 75 -6 -4 -11 0 -11 8 0 19 -16 21
-26 4z"/>
<path d="M2281 6804 c-23 -29 -28 -65 -8 -61 17 3 33 26 41 60 8 34 -6 35 -33
1z"/>
<path d="M2456 6780 c3 -14 10 -29 15 -34 14 -16 10 6 -7 34 l-15 25 7 -25z"/>
<path d="M2510 6711 c0 -6 4 -13 10 -16 6 -3 7 1 4 9 -7 18 -14 21 -14 7z"/>
<path d="M2502 6660 c0 -14 2 -19 5 -12 2 6 2 18 0 25 -3 6 -5 1 -5 -13z"/>
<path d="M2530 6674 c0 -6 7 -19 16 -30 14 -18 14 -18 3 6 -14 31 -19 36 -19
24z"/>
<path d="M2566 6597 c3 -10 9 -15 12 -12 3 3 0 11 -7 18 -10 9 -11 8 -5 -6z"/>
<path d="M2147 6544 c-3 -3 -3 -12 0 -20 3 -9 -1 -14 -12 -14 -9 0 -14 4 -10
9 3 5 1 12 -5 16 -6 3 -13 -1 -16 -9 -3 -9 -10 -14 -14 -11 -5 3 -12 0 -16 -6
-4 -8 -9 -7 -15 2 -7 11 -9 10 -9 -3 0 -9 5 -20 10 -23 6 -3 10 -1 10 5 0 6
14 8 41 4 42 -7 87 -41 109 -82 7 -15 17 -21 26 -18 14 5 23 1 59 -32 8 -7 15
-10 15 -5 0 9 -44 56 -75 79 -14 11 -16 17 -7 20 21 9 13 21 -18 28 -27 5 -33
14 -29 42 1 7 -22 24 -32 24 -3 0 -8 -3 -12 -6z"/>
<path d="M2500 6440 c0 -5 5 -10 10 -10 6 0 10 5 10 10 0 6 -4 10 -10 10 -5 0
-10 -4 -10 -10z"/>
<path d="M2086 6405 c4 -8 8 -15 10 -15 2 0 4 7 4 15 0 8 -4 15 -10 15 -5 0
-7 -7 -4 -15z"/>
<path d="M2107 6382 c-3 -4 10 -30 29 -57 18 -28 39 -65 45 -83 6 -18 13 -31
16 -28 3 2 -6 29 -19 58 -14 29 -23 60 -21 68 4 13 3 13 -6 0 -9 -13 -11 -13
-11 3 0 9 -4 17 -10 17 -5 0 -7 7 -4 15 6 15 -11 21 -19 7z"/>
<path d="M2178 6333 c7 -3 16 -2 19 1 4 3 -2 6 -13 5 -11 0 -14 -3 -6 -6z"/>
<path d="M2307 6307 c10 -13 36 -39 58 -57 27 -23 33 -26 20 -10 -11 13 -30
33 -42 43 -13 11 -20 24 -17 35 5 14 4 15 -5 2 -7 -10 -11 -11 -11 -2 0 6 -5
12 -11 12 -6 0 -2 -10 8 -23z"/>
<path d="M2203 6156 c4 -27 7 -60 7 -73 0 -22 2 -23 15 -9 22 22 98 -4 154
-53 28 -25 41 -27 41 -6 0 8 -4 15 -10 15 -5 0 -38 25 -72 56 -35 31 -81 70
-102 87 l-39 31 6 -48z"/>
<path d="M2430 6193 c0 -13 29 -38 35 -31 3 3 -4 13 -15 23 -11 10 -20 13 -20
8z"/>
<path d="M3970 6055 c0 -16 6 -25 16 -25 13 0 14 3 4 15 -6 8 -9 19 -5 25 3 5
1 10 -4 10 -6 0 -11 -11 -11 -25z"/>
<path d="M3960 6003 c0 -10 5 -35 11 -55 8 -32 14 -38 37 -38 15 1 37 6 50 14
23 12 23 13 -18 29 -24 9 -39 21 -35 27 3 5 -1 10 -9 10 -9 0 -16 7 -16 15 0
8 -4 15 -10 15 -5 0 -10 -8 -10 -17z"/>
<path d="M3145 5790 c-3 -5 1 -10 10 -10 9 0 13 5 10 10 -3 6 -8 10 -10 10 -2
0 -7 -4 -10 -10z"/>
<path d="M3989 5423 c5 -10 14 -30 20 -45 13 -35 31 -36 29 -3 -1 14 -6 25
-10 25 -4 0 -8 9 -8 20 0 13 -7 20 -20 20 -16 0 -18 -4 -11 -17z"/>
<path d="M3278 5423 c7 -3 16 -2 19 1 4 3 -2 6 -13 5 -11 0 -14 -3 -6 -6z"/>
<path d="M3230 5410 c0 -5 5 -10 11 -10 5 0 7 5 4 10 -3 6 -8 10 -11 10 -2 0
-4 -4 -4 -10z"/>
<path d="M4110 5339 c0 -5 5 -7 10 -4 6 3 10 8 10 11 0 2 -4 4 -10 4 -5 0 -10
-5 -10 -11z"/>
<path d="M4160 5218 c0 -16 4 -28 9 -28 18 0 20 17 6 36 -14 18 -14 18 -15 -8z"/>
<path d="M4232 4884 c-17 -19 -5 -39 14 -23 15 12 19 39 7 39 -5 -1 -14 -7
-21 -16z"/>
<path d="M3647 4779 l-24 -37 41 5 c177 18 286 41 311 65 6 6 -47 8 -147 6
l-157 -3 -24 -36z"/>
<path d="M4070 4755 c-39 -20 -105 -31 -95 -15 6 9 2 9 -16 -1 -23 -12 -27
-14 -46 -18 -5 -1 -1 -5 6 -10 19 -12 -25 -25 -86 -26 l-41 0 34 -45 c18 -25
38 -44 43 -43 6 2 8 -4 5 -12 -8 -20 8 -19 44 2 25 14 33 15 46 4 22 -18 13
-28 -34 -36 -34 -6 -39 -9 -29 -21 7 -8 15 -11 18 -7 3 4 11 9 16 9 6 1 19 4
31 8 16 5 24 -1 37 -29 18 -38 30 -41 90 -24 38 10 39 12 32 45 -4 22 -2 41 6
50 9 11 8 14 -4 14 -9 0 -22 9 -31 21 -11 16 -20 19 -38 14 l-23 -8 20 22 c13
16 16 24 8 29 -18 11 -10 38 17 60 31 25 24 35 -10 17z m-140 -134 c0 -5 -7
-12 -16 -15 -14 -5 -15 -4 -4 9 14 17 20 19 20 6z"/>
<path d="M4130 4464 c0 -8 -4 -13 -9 -10 -4 3 -22 0 -40 -7 -22 -8 -30 -16
-25 -27 4 -8 9 -25 11 -37 5 -22 23 -33 23 -14 0 6 14 25 30 43 29 32 40 68
20 68 -5 0 -10 -7 -10 -16z"/>
<path d="M3110 4408 c34 -32 35 -32 38 -9 4 28 5 27 -38 35 l-35 7 35 -33z"/>
<path d="M4115 4260 c-2 -3 0 -12 5 -19 5 -10 23 -12 59 -9 58 6 70 13 52 31
-9 9 -14 9 -21 -3 -6 -10 -10 -11 -10 -3 0 12 -78 14 -85 3z"/>
<path d="M3193 4225 c26 -14 53 -34 59 -45 9 -14 16 -16 25 -8 24 20 13 33
-45 51 -31 10 -64 20 -72 23 -8 3 6 -7 33 -21z"/>
<path d="M3943 4190 c-13 -5 -23 -14 -23 -20 0 -8 6 -8 19 0 11 5 31 11 45 12
13 1 22 6 20 10 -7 10 -33 9 -61 -2z"/>
<path d="M4160 4181 c0 -7 -4 -9 -10 -6 -5 3 -10 2 -10 -4 0 -5 5 -13 10 -16
11 -7 26 22 16 32 -3 4 -6 1 -6 -6z"/>
<path d="M3158 4039 c17 -18 15 -44 -8 -89 -11 -22 -17 -40 -12 -40 17 0 40
26 45 50 3 14 8 34 12 46 5 16 0 23 -22 33 -23 10 -26 10 -15 0z"/>
<path d="M0 2456 l1 -206 40 0 c22 0 39 -5 39 -11 0 -7 8 -18 18 -25 16 -13
16 -15 0 -24 -9 -6 -24 -17 -32 -25 -23 -23 -34 -18 -32 17 1 24 -4 34 -17 36
-17 3 -17 -25 -16 -545 l0 -548 30 59 c17 32 33 55 36 52 3 -3 0 -14 -8 -23
-12 -16 -12 -17 2 -6 8 7 26 34 39 60 15 30 26 42 28 32 2 -9 -6 -33 -17 -53
-23 -39 -13 -50 13 -14 10 15 14 17 10 6 -4 -10 -1 -18 5 -18 6 0 11 8 11 18
0 11 3 13 8 6 4 -6 21 -15 39 -18 24 -6 34 -3 43 11 10 16 11 15 6 -7 -3 -14
-6 -32 -6 -40 0 -13 -1 -13 -10 0 -5 8 -12 11 -17 7 -4 -5 -3 -11 3 -15 6 -4
14 -14 17 -22 4 -12 6 -12 6 1 1 20 30 34 44 20 13 -13 48 25 41 44 -4 9 0 15
9 15 9 0 17 -10 19 -22 4 -31 28 -35 28 -5 0 33 10 40 31 21 21 -19 24 -14 33
40 12 67 30 44 27 -35 -1 -55 0 -61 14 -49 8 7 20 30 27 51 6 22 15 39 19 39
5 0 0 -23 -12 -51 -11 -29 -18 -54 -15 -56 5 -5 66 119 66 135 0 6 9 16 21 22
17 9 24 8 39 -10 17 -20 19 -20 23 -3 3 10 5 1 6 -19 0 -21 6 -38 11 -38 6 0
10 -8 10 -17 0 -12 5 -9 15 11 19 35 19 47 1 23 -12 -15 -14 -15 -19 -3 -6 15
8 31 28 31 5 0 21 -22 35 -49 25 -49 50 -71 50 -44 0 7 -7 22 -15 32 -8 10
-12 23 -9 28 11 17 46 -53 40 -78 -4 -14 -2 -24 4 -24 5 0 10 6 10 14 0 22 17
28 33 12 8 -8 17 -12 21 -9 3 4 6 1 6 -6 0 -7 4 -10 9 -7 5 3 11 -3 14 -13 3
-14 11 -18 26 -14 12 3 21 11 21 19 0 7 4 15 9 18 5 3 8 -12 7 -33 -1 -22 2
-38 6 -35 4 3 8 -1 9 -8 0 -7 9 5 20 27 l19 40 -4 -37 -4 -36 20 20 c14 14 23
17 31 9 15 -15 27 -14 27 3 0 23 33 29 47 10 10 -14 10 -20 0 -27 -12 -9 2 -6
40 10 12 5 14 3 8 -8 -7 -12 -6 -12 9 1 16 13 20 12 32 -5 12 -17 14 -17 14
-2 0 9 5 17 10 17 6 0 9 -5 8 -11 -2 -6 2 -13 8 -16 12 -4 34 14 59 50 13 19
17 20 25 7 5 -8 7 -31 4 -50 -5 -33 -4 -34 10 -16 9 11 16 29 16 40 0 31 11
66 20 66 5 0 4 -14 -1 -32 -7 -24 -6 -29 3 -20 18 18 30 14 23 -8 -4 -14 -1
-22 11 -27 10 -4 19 -2 22 5 5 15 32 16 32 2 0 -5 4 -10 10 -10 5 0 6 7 3 17
-4 11 -3 14 5 9 7 -4 12 -14 12 -22 0 -8 4 -14 8 -14 4 0 13 -13 19 -30 6 -16
17 -30 23 -30 10 0 10 3 0 15 -12 15 -5 39 10 30 4 -3 11 3 15 13 6 16 7 16
20 -2 12 -16 17 -17 31 -5 14 11 18 11 29 -4 6 -9 15 -14 19 -10 3 4 13 -2 21
-13 8 -10 15 -14 15 -7 0 6 -4 14 -9 18 -13 8 -41 65 -41 84 -1 14 -2 14 -14
-2 -17 -22 -26 -22 -26 3 0 26 -7 25 -31 -2 -16 -20 -20 -21 -29 -8 -6 8 -8
23 -6 33 5 21 -1 21 -38 2 -30 -16 -52 -11 -26 5 9 6 10 10 3 10 -23 0 -43
-13 -44 -29 0 -12 -2 -12 -9 4 -5 11 -9 16 -9 12 -1 -5 -16 1 -35 12 -19 12
-41 18 -50 15 -12 -5 -16 0 -16 16 0 21 -1 22 -17 8 -22 -20 -94 -21 -129 -3
-15 7 -33 11 -40 8 -8 -3 -14 1 -14 8 -1 9 -6 7 -15 -5 -8 -11 -15 -14 -15 -8
0 7 -7 12 -15 12 -8 0 -17 14 -21 35 -3 19 -10 35 -15 35 -12 0 -11 -27 1 -50
7 -13 7 -21 -1 -25 -16 -11 -22 2 -21 42 1 25 -2 33 -7 24 -6 -9 -21 -12 -45
-9 -21 2 -36 0 -36 -7 0 -5 -8 -1 -16 10 -16 20 -16 20 -9 -2 4 -14 2 -23 -4
-23 -6 0 -11 9 -11 19 0 25 -19 75 -26 69 -2 -3 0 -18 6 -33 7 -20 8 -31 0
-39 -7 -7 -10 -6 -10 2 0 8 -9 10 -27 6 -21 -6 -25 -4 -21 8 4 10 -4 18 -28
27 -19 7 -32 16 -29 21 3 6 15 4 26 -3 16 -10 21 -9 28 2 5 8 16 11 25 8 15
-6 15 -4 1 22 -8 16 -18 31 -22 33 -5 3 -1 3 7 0 8 -3 42 -6 75 -7 33 -1 70
-5 82 -9 15 -5 23 -3 23 4 0 8 10 10 33 6 60 -13 160 -3 120 11 -19 7 -16 23
5 24 14 0 14 2 -3 9 -22 8 -23 8 33 26 15 5 14 8 -8 26 -17 15 -19 19 -7 15
49 -18 64 -18 88 2 35 30 10 43 -48 26 -36 -11 -43 -11 -43 1 0 8 1 14 3 14
24 0 125 25 135 33 21 17 49 18 62 2 7 -8 22 -15 35 -15 29 0 36 -9 24 -31 -7
-15 -6 -19 5 -19 10 0 17 15 21 44 9 54 0 82 -25 89 -11 3 -20 11 -20 17 0 10
4 10 15 0 22 -18 25 -10 11 30 -10 30 -17 36 -55 43 -32 6 -40 11 -30 18 8 5
24 9 37 9 27 0 28 8 5 26 -24 18 -34 17 -62 -6 -17 -15 -21 -24 -13 -33 7 -8
6 -22 -3 -44 -15 -34 -30 -42 -38 -20 -4 9 -8 8 -16 -3 -8 -12 -11 -12 -17 3
-5 13 2 26 25 44 17 14 31 34 31 44 0 27 33 80 47 74 24 -8 26 18 3 35 -22 17
-23 19 -7 35 23 22 21 35 -3 35 -16 0 -20 -7 -20 -30 0 -17 -6 -31 -12 -32 -7
0 -17 -2 -23 -2 -5 -1 -20 -10 -32 -20 -20 -17 -20 -21 -7 -42 18 -26 7 -36
-40 -38 -30 -1 -31 -3 -29 -41 2 -31 1 -35 -6 -20 -9 19 -10 19 -10 -2 -1 -25
-21 -32 -21 -8 0 11 -8 13 -30 8 -25 -5 -29 -3 -24 11 4 11 1 16 -10 16 -8 0
-20 9 -26 20 -13 24 -47 26 -71 4 -13 -12 -22 -13 -37 -5 -16 8 -21 7 -26 -4
-7 -20 -30 -19 -47 1 -12 15 -14 14 -19 -1 -5 -15 -10 -12 -28 16 -13 22 -18
37 -12 43 6 6 10 14 10 18 0 12 -38 9 -42 -3 -7 -20 -79 -25 -130 -9 -48 15
-67 32 -25 23 21 -4 21 -4 3 11 -11 9 -15 20 -11 28 6 10 5 11 -6 1 -19 -18
-26 -16 -33 10 -6 24 12 84 32 105 6 7 12 20 12 28 0 12 -4 12 -25 -2 -29 -19
-45 -12 -45 21 0 26 24 55 45 55 7 0 16 7 19 16 9 23 8 24 -14 24 -25 0 -26
15 -3 25 12 5 -8 13 -62 24 -54 11 -86 14 -100 7 -10 -5 -61 -11 -113 -14 -78
-4 -95 -8 -107 -25 -9 -13 -19 -17 -32 -12 -16 6 -16 8 5 16 27 10 29 29 3 29
-10 0 -24 7 -31 15 -7 8 -23 15 -36 15 -13 0 -24 5 -24 10 0 13 76 13 175 -2
71 -10 85 -9 114 5 28 14 45 15 95 8 86 -13 419 -4 527 14 35 6 38 9 28 27 -6
11 -16 17 -24 15 -7 -3 -32 4 -56 16 -34 17 -64 22 -144 23 -131 3 -245 15
-245 25 0 5 15 10 33 11 91 4 110 7 120 17 8 8 -9 11 -64 11 -40 0 -102 5
-137 10 -35 6 -84 13 -110 15 -26 3 -87 9 -137 14 -50 5 -93 10 -97 10 -5 1
-8 6 -8 12 0 14 313 0 359 -16 7 -3 19 -1 27 5 9 8 24 8 53 0 44 -12 61 -7 61
16 0 8 7 14 15 14 8 0 15 -7 15 -15 0 -22 38 -18 50 6 7 11 10 22 8 23 -20 15
-82 26 -168 31 -58 2 -147 8 -198 11 -142 10 -128 30 23 33 76 2 85 5 66 24
-8 8 -56 12 -154 13 -78 0 -190 4 -250 8 l-107 7 0 -205z m300 144 c12 -8 11
-10 -7 -10 -13 0 -23 5 -23 10 0 13 11 13 30 0z m253 -189 c4 0 7 -5 7 -11 0
-14 -29 -12 -65 4 l-30 13 40 -2 c22 -1 43 -3 48 -4z m104 -53 l28 -12 -29 -4
c-16 -2 -39 1 -50 6 -12 6 -28 13 -36 15 -8 3 2 6 22 6 20 1 49 -4 65 -11z
m157 -4 c9 -3 16 -10 16 -16 0 -14 -43 -5 -48 10 -4 13 7 15 32 6z m-714 -48
c0 -3 -4 -8 -10 -11 -5 -3 -10 -1 -10 4 0 6 5 11 10 11 6 0 10 -2 10 -4z m115
-146 c3 -5 -1 -10 -9 -10 -9 0 -16 5 -16 10 0 6 4 10 9 10 6 0 13 -4 16 -10z
m1185 -450 c12 -8 9 -10 -13 -10 -16 0 -26 4 -22 10 8 12 16 12 35 0z m-150
-40 c0 -5 -2 -10 -4 -10 -3 0 -8 5 -11 10 -3 6 -1 10 4 10 6 0 11 -4 11 -10z
m-12 -37 c2 -7 -1 -13 -8 -13 -6 0 -20 -9 -32 -20 -12 -11 -33 -20 -47 -19
-24 0 -25 1 -7 12 10 7 28 22 40 35 21 24 46 26 54 5z m-604 -38 c-7 -18 12
-20 20 -2 3 6 3 -4 0 -23 -4 -19 -16 -55 -27 -80 -18 -38 -22 -41 -25 -22 -2
12 -10 22 -18 22 -19 0 -18 9 6 63 17 38 26 48 47 56 1 1 0 -6 -3 -14z m106
-5 c0 -5 -4 -10 -10 -10 -5 0 -10 5 -10 10 0 6 5 10 10 10 6 0 10 -4 10 -10z
m60 -16 c0 -23 -1 -24 -16 -10 -8 9 -20 16 -25 16 -5 0 -9 5 -9 10 0 6 11 10
25 10 20 0 25 -5 25 -26z m85 16 c-3 -5 -21 -9 -38 -9 l-32 1 30 8 c43 11 47
11 40 0z m65 -30 c-20 -13 -43 -13 -35 0 3 6 16 10 28 10 18 0 19 -2 7 -10z
m215 -10 c-3 -5 -17 -10 -31 -10 -14 0 -22 4 -19 10 3 6 17 10 31 10 14 0 22
-4 19 -10z m-469 -15 c-3 -8 -1 -15 5 -15 6 0 8 -4 4 -9 -3 -5 -1 -12 5 -16 5
-3 10 -1 10 6 0 10 3 10 11 2 9 -9 18 -8 35 4 13 8 31 13 39 9 8 -3 15 -2 15
2 0 9 50 32 69 32 14 0 14 -2 1 -11 -11 -7 0 -8 38 -4 37 5 52 4 52 -5 0 -8 9
-10 23 -7 12 4 29 2 37 -3 11 -7 0 -10 -36 -10 -42 0 -53 -3 -57 -19 -2 -11 0
-24 6 -30 8 -8 6 -11 -6 -11 -9 0 -17 5 -17 11 0 8 -12 9 -37 4 -21 -4 -47 -8
-59 -9 -11 -1 -25 -5 -31 -9 -5 -3 -33 -4 -62 0 -36 4 -51 10 -51 21 0 12 -3
12 -20 -3 -11 -10 -23 -16 -26 -13 -7 7 18 48 28 48 5 0 8 11 8 25 0 14 5 25
11 25 6 0 9 -7 5 -15z m391 -11 c-3 -3 -12 -4 -19 -1 -8 3 -5 6 6 6 11 1 17
-2 13 -5z m13 -24 c0 -5 -4 -10 -9 -10 -6 0 -13 5 -16 10 -3 6 1 10 9 10 9 0
16 -4 16 -10z m50 -50 c0 -5 -12 -10 -27 -10 -22 0 -25 2 -13 10 20 13 40 13
40 0z m-555 -32 c-10 -31 -25 -47 -25 -26 0 24 11 48 22 48 5 0 6 -10 3 -22z
m-118 -80 c-3 -7 -5 -2 -5 12 0 14 2 19 5 13 2 -7 2 -19 0 -25z m73 -13 c0
-14 -4 -25 -9 -25 -4 0 -6 11 -3 25 2 14 6 25 8 25 2 0 4 -11 4 -25z m260 -20
c0 -8 5 -15 10 -15 6 0 10 -7 10 -15 0 -23 -18 -18 -26 8 -3 12 -14 31 -23 41
-15 18 -15 18 7 7 12 -6 22 -18 22 -26z m-596 -30 c-7 -16 -24 -21 -24 -6 0 8
7 13 27 20 1 1 0 -6 -3 -14z m666 7 c0 -4 -10 -9 -22 -9 -18 -2 -20 0 -8 7 18
12 30 13 30 2z m57 -34 c-3 -8 -6 -5 -6 6 -1 11 2 17 5 13 3 -3 4 -12 1 -19z
m103 -9 c0 -11 -4 -17 -10 -14 -5 3 -10 15 -10 26 0 11 5 17 10 14 6 -3 10
-15 10 -26z m-34 -16 c-11 -11 -17 4 -9 23 7 18 8 18 11 1 2 -10 1 -21 -2 -24z
m-96 12 c0 -2 -7 -5 -15 -9 -9 -3 -15 0 -15 9 0 9 6 12 15 9 8 -4 15 -7 15 -9z
m-620 -14 c0 -6 -4 -13 -10 -16 -5 -3 -10 1 -10 9 0 9 5 16 10 16 6 0 10 -4
10 -9z m1170 -75 c0 -2 -7 -9 -15 -16 -13 -11 -14 -10 -9 4 5 14 24 23 24 12z"/>
<path d="M670 2610 c0 -5 12 -10 26 -10 14 0 23 4 19 10 -3 6 -15 10 -26 10
-10 0 -19 -4 -19 -10z"/>
<path d="M1058 2553 c7 -3 16 -2 19 1 4 3 -2 6 -13 5 -11 0 -14 -3 -6 -6z"/>
<path d="M800 2530 c0 -5 9 -10 20 -10 11 0 20 5 20 10 0 6 -9 10 -20 10 -11
0 -20 -4 -20 -10z"/>
<path d="M870 2523 c0 -9 15 -13 45 -13 42 0 66 18 28 21 -64 5 -73 4 -73 -8z"/>
<path d="M960 2380 c0 -13 50 -13 70 0 11 7 4 10 -27 10 -24 0 -43 -4 -43 -10z"/>
<path d="M1120 2309 c0 -5 11 -9 25 -9 14 0 25 2 25 4 0 2 -11 6 -25 8 -14 3
-25 1 -25 -3z"/>
<path d="M3385 2240 c-4 -6 -1 -17 5 -25 14 -17 44 -6 54 20 4 11 -2 15 -24
15 -16 0 -32 -5 -35 -10z"/>
<path d="M805 2220 c-4 -6 5 -10 19 -10 14 0 26 5 26 10 0 6 -9 10 -19 10 -11
0 -23 -4 -26 -10z"/>
<path d="M1345 2220 c-7 -12 27 -22 37 -12 6 6 1 12 -11 15 -12 3 -23 2 -26
-3z"/>
<path d="M2948 2213 c12 -2 30 -2 40 0 9 3 -1 5 -23 4 -22 0 -30 -2 -17 -4z"/>
<path d="M2888 2203 c7 -3 16 -2 19 1 4 3 -2 6 -13 5 -11 0 -14 -3 -6 -6z"/>
<path d="M780 2190 c0 -5 5 -10 10 -10 6 0 10 5 10 10 0 6 -4 10 -10 10 -5 0
-10 -4 -10 -10z"/>
<path d="M3445 2190 c4 -6 11 -8 16 -5 14 9 11 15 -7 15 -8 0 -12 -5 -9 -10z"/>
<path d="M1346 2144 c-5 -12 -14 -15 -35 -11 -19 4 -33 1 -41 -8 -13 -16 1
-28 24 -19 9 4 24 0 34 -9 9 -8 28 -18 42 -21 19 -6 21 -5 10 3 -13 9 -13 11
2 11 9 0 20 -4 23 -10 10 -16 41 -11 60 10 18 19 17 20 -3 20 -13 0 -22 6 -22
15 0 9 -9 15 -24 15 -14 0 -28 5 -31 10 -10 15 -32 12 -39 -6z"/>
<path d="M1506 2152 c-3 -6 -1 -14 5 -17 14 -9 20 -2 10 14 -6 8 -11 9 -15 3z"/>
<path d="M2650 1970 c8 -5 24 -10 34 -10 26 0 18 6 -19 14 -22 5 -26 4 -15 -4z"/>
<path d="M2756 1927 c29 -20 57 -51 71 -77 31 -58 39 -65 19 -15 -19 46 -59
90 -98 111 -46 24 -42 16 8 -19z"/>
<path d="M2881 1898 c6 -12 15 -33 20 -47 5 -17 8 -20 8 -8 1 18 -25 77 -35
77 -2 0 1 -10 7 -22z"/>
<path d="M2527 1885 c-20 -14 -37 -28 -37 -31 0 -6 13 1 52 28 37 26 100 23
146 -6 48 -31 86 -73 102 -114 7 -18 15 -31 17 -28 8 8 -29 82 -55 109 -66 69
-159 87 -225 42z"/>
<path d="M902 1870 c0 -19 2 -27 5 -17 2 9 2 25 0 35 -3 9 -5 1 -5 -18z"/>
<path d="M2568 1833 c12 -2 30 -2 40 0 9 3 -1 5 -23 4 -22 0 -30 -2 -17 -4z"/>
<path d="M2667 1803 c23 -15 50 -41 59 -59 10 -18 20 -31 22 -29 9 9 -41 75
-72 94 -49 31 -57 25 -9 -6z"/>
<path d="M2525 1768 c-61 -13 -63 -26 -2 -15 69 13 102 4 144 -38 31 -31 34
-39 31 -82 -2 -33 -8 -49 -18 -51 -12 -2 -15 6 -12 35 3 34 -1 41 -34 67 -44
35 -86 45 -183 46 -70 0 -78 -2 -129 -37 -57 -40 -82 -75 -82 -117 0 -20 9
-29 46 -45 42 -19 56 -20 167 -12 152 11 246 41 261 83 8 21 5 39 -10 74 -31
76 -97 109 -179 92z"/>
<path d="M1670 1673 c0 -25 1 -26 16 -11 9 9 13 21 10 27 -13 20 -26 11 -26
-16z"/>
<path d="M1725 1681 c-7 -12 12 -24 25 -16 11 7 4 25 -10 25 -5 0 -11 -4 -15
-9z"/>
<path d="M1770 1670 c0 -7 7 -10 15 -6 9 3 25 -4 36 -15 l21 -21 -4 24 c-2 18
-10 24 -35 26 -20 2 -33 -1 -33 -8z"/>
<path d="M1520 1619 c0 -12 7 -19 20 -19 11 0 20 6 20 14 0 7 -9 16 -20 19
-15 4 -20 0 -20 -14z"/>
<path d="M1350 1590 c17 -11 47 -14 36 -3 -3 4 -17 8 -29 10 -17 2 -19 1 -7
-7z"/>
<path d="M1410 1570 c0 -5 5 -10 11 -10 5 0 7 5 4 10 -3 6 -8 10 -11 10 -2 0
-4 -4 -4 -10z"/>
<path d="M1345 1550 c3 -5 8 -10 11 -10 2 0 4 5 4 10 0 6 -5 10 -11 10 -5 0
-7 -4 -4 -10z"/>
<path d="M1558 1423 c7 -3 16 -2 19 1 4 3 -2 6 -13 5 -11 0 -14 -3 -6 -6z"/>
<path d="M2261 1397 c-7 -10 -25 -17 -40 -17 -14 0 -33 -4 -40 -9 -12 -8 -10
-11 10 -15 30 -7 95 -3 105 7 4 4 2 7 -4 7 -6 0 -12 10 -14 22 -3 19 -4 20
-17 5z"/>
<path d="M2537 1397 c-3 -9 -3 -17 1 -17 4 0 18 -20 31 -45 13 -25 26 -43 28
-41 7 7 -6 44 -20 58 -7 7 -17 24 -23 37 -9 21 -11 22 -17 8z"/>
<path d="M1040 1390 c0 -5 7 -7 15 -4 8 4 15 8 15 10 0 2 -7 4 -15 4 -8 0 -15
-4 -15 -10z"/>
<path d="M2317 1389 c9 -9 9 -16 2 -25 -7 -9 -5 -16 10 -24 17 -8 21 -8 21 4
0 8 6 16 13 19 16 6 -1 23 -33 32 -20 6 -23 5 -13 -6z"/>
<path d="M1430 1369 c-13 -9 -12 -10 2 -5 10 3 20 1 23 -4 5 -9 -28 -14 -87
-13 -10 0 -18 -4 -18 -9 0 -17 32 -20 95 -7 48 9 65 17 63 27 -4 18 -57 25
-78 11z"/>
<path d="M600 1300 c0 -5 5 -10 10 -10 6 0 10 5 10 10 0 6 -4 10 -10 10 -5 0
-10 -4 -10 -10z"/>
<path d="M2632 1260 c0 -14 2 -19 5 -12 2 6 2 18 0 25 -3 6 -5 1 -5 -13z"/>
<path d="M3593 1215 c4 -25 14 -60 23 -78 16 -29 18 -30 24 -12 7 18 8 19 15
3 4 -10 11 -15 16 -12 5 3 9 0 9 -7 0 -6 8 -9 19 -6 11 3 28 -1 38 -8 10 -6
37 -15 61 -18 24 -3 52 -13 63 -23 10 -9 19 -14 19 -9 0 4 6 2 14 -4 8 -6 18
-11 22 -9 18 5 54 -28 54 -49 0 -15 6 -21 20 -20 11 1 21 6 24 12 3 8 21 9 55
5 59 -7 179 -3 201 7 8 4 24 7 35 7 14 1 19 7 17 20 -2 10 2 23 10 28 11 8 10
9 -1 6 -8 -2 -24 6 -37 19 -28 28 -56 31 -47 6 4 -12 0 -11 -11 5 -10 12 -24
22 -32 22 -8 0 -17 6 -19 13 -3 7 -20 13 -38 14 -48 3 -87 10 -137 23 -25 6
-65 15 -90 19 -25 4 -54 12 -65 18 -30 17 -104 35 -158 39 -26 1 -61 10 -79
18 l-31 16 6 -45z"/>
<path d="M132 1177 c-26 -27 -28 -39 -7 -31 16 7 40 43 33 50 -3 2 -14 -6 -26
-19z"/>
<path d="M832 1180 c0 -14 2 -19 5 -12 2 6 2 18 0 25 -3 6 -5 1 -5 -13z"/>
<path d="M910 1120 c0 -5 5 -10 11 -10 5 0 7 5 4 10 -3 6 -8 10 -11 10 -2 0
-4 -4 -4 -10z"/>
<path d="M1710 1119 c0 -9 59 -59 70 -59 5 0 10 5 12 12 5 13 48 19 48 6 0
-11 37 -10 44 1 10 15 -19 31 -47 25 -19 -3 -29 0 -34 12 -4 11 -8 12 -13 4
-5 -8 -13 -9 -21 -4 -16 10 -59 12 -59 3z"/>
<path d="M2046 1098 c-9 -40 -26 -52 -26 -18 0 11 -4 20 -9 20 -5 0 -3 -25 6
-56 8 -31 12 -58 9 -61 -3 -3 -17 -5 -31 -5 -14 0 -25 -4 -25 -9 0 -5 -7 -9
-15 -9 -8 0 -15 7 -15 15 0 8 -4 15 -10 15 -5 0 -10 6 -10 14 0 9 10 13 30 12
32 -2 38 11 19 45 -11 22 -31 17 -22 -6 3 -10 -1 -15 -15 -15 -15 0 -22 -8
-24 -27 -4 -36 -32 -42 -62 -14 -23 21 -36 19 -36 -6 0 -8 4 -11 10 -8 6 3 7
-1 4 -9 -8 -22 -20 -20 -38 6 -9 12 -16 18 -16 13 0 -6 -7 -1 -15 9 -8 11 -17
17 -20 14 -3 -3 6 -16 20 -29 13 -13 25 -30 25 -38 0 -7 6 -11 15 -7 23 9 17
-7 -10 -27 -24 -17 -25 -17 -25 0 0 10 -8 27 -16 38 -15 19 -15 18 -10 -15 10
-58 -23 -80 -43 -28 -6 17 -9 13 -21 -22 -13 -41 -13 -43 10 -62 16 -13 25
-15 30 -7 6 8 13 8 28 0 18 -10 21 -7 28 22 6 31 7 31 15 9 5 -13 13 -20 19
-17 5 3 10 -2 10 -12 0 -15 2 -16 10 -3 5 8 10 31 10 50 0 26 3 31 10 20 5 -8
7 -23 4 -32 -7 -24 6 -45 17 -27 7 12 9 11 10 -1 1 -8 5 2 8 23 3 21 11 37 16
37 6 -1 9 -8 7 -16 -2 -8 2 -14 9 -14 7 0 9 11 5 34 -4 22 -2 37 6 43 20 16
62 23 78 13 9 -6 17 -5 22 3 4 7 8 -15 9 -48 l1 -60 13 85 c7 47 14 90 14 97
1 6 15 16 32 22 17 6 28 15 24 21 -10 15 -35 12 -35 -5 0 -8 -4 -15 -9 -15 -6
0 -11 19 -13 43 l-4 42 -8 -37z m-201 -157 c3 -5 1 -12 -5 -16 -5 -3 -10 1
-10 9 0 18 6 21 15 7z m47 -23 c-9 -9 -12 -7 -12 12 0 19 3 21 12 12 9 -9 9
-15 0 -24z m-75 -60 c-3 -8 -6 -5 -6 6 -1 11 2 17 5 13 3 -3 4 -12 1 -19z"/>
<path d="M2170 1073 c0 -18 5 -33 10 -33 13 0 13 30 0 50 -7 11 -10 7 -10 -17z"/>
<path d="M1922 1070 c0 -14 2 -19 5 -12 2 6 2 18 0 25 -3 6 -5 1 -5 -13z"/>
<path d="M1322 1060 c0 -14 2 -19 5 -12 2 6 2 18 0 25 -3 6 -5 1 -5 -13z"/>
<path d="M1805 1062 c-6 -4 -12 -18 -12 -31 -2 -22 0 -23 13 -9 17 17 16 52
-1 40z"/>
<path d="M2151 1044 c0 -11 3 -14 6 -6 3 7 2 16 -1 19 -3 4 -6 -2 -5 -13z"/>
<path d="M1870 1015 c0 -8 5 -15 10 -15 6 0 10 7 10 15 0 8 -4 15 -10 15 -5 0
-10 -7 -10 -15z"/>
<path d="M1286 924 c-4 -14 -5 -29 -2 -31 3 -3 8 7 12 21 3 15 4 29 1 32 -2 3
-8 -7 -11 -22z"/>
<path d="M786 875 c-3 -9 0 -15 9 -15 9 0 12 6 9 15 -4 8 -7 15 -9 15 -2 0 -5
-7 -9 -15z"/>
<path d="M1287 873 c-4 -3 -7 -11 -7 -17 0 -6 5 -5 12 2 6 6 9 14 7 17 -3 3
-9 2 -12 -2z"/>
<path d="M875 860 c3 -5 8 -10 11 -10 2 0 4 5 4 10 0 6 -5 10 -11 10 -5 0 -7
-4 -4 -10z"/>
<path d="M1626 843 c-4 -9 0 -23 9 -32 13 -14 15 -12 15 17 0 34 -14 43 -24
15z"/>
<path d="M3726 826 c-9 -32 -7 -48 4 -41 6 4 8 11 5 16 -4 5 5 13 19 19 32 12
33 16 2 22 -19 4 -26 0 -30 -16z"/>
<path d="M1146 752 c-3 -5 8 -6 25 -4 16 2 29 6 29 8 0 8 -49 4 -54 -4z"/>
<path d="M4101 683 c-1 -12 4 -25 9 -28 12 -7 12 2 0 30 -8 19 -9 19 -9 -2z"/>
<path d="M4007 654 c-3 -3 1 -17 9 -32 10 -20 10 -28 1 -34 -6 -4 -8 -10 -5
-14 4 -4 4 -14 -1 -23 -5 -9 -11 -29 -15 -44 -6 -23 -4 -28 11 -25 13 2 19 -4
20 -22 1 -14 0 -18 -3 -7 -10 31 -27 19 -20 -15 7 -37 17 -49 24 -29 4 11 6
11 13 0 6 -10 9 -7 10 11 0 14 3 19 6 13 2 -7 8 -13 12 -13 11 0 11 119 0 126
-5 3 -9 16 -9 30 0 17 -4 23 -12 18 -7 -4 -8 -3 -4 5 8 12 -27 64 -37 55z m53
-124 c0 -5 -2 -10 -4 -10 -3 0 -8 5 -11 10 -3 6 -1 10 4 10 6 0 11 -4 11 -10z"/>
<path d="M1052 573 c-12 -39 -7 -57 8 -33 9 14 14 70 7 70 -2 0 -9 -17 -15
-37z"/>
<path d="M4091 534 c0 -11 3 -14 6 -6 3 7 2 16 -1 19 -3 4 -6 -2 -5 -13z"/>
<path d="M1008 503 c-21 -24 -68 -119 -68 -138 0 -26 19 -17 26 13 9 44 26 85
46 115 22 30 19 36 -4 10z"/>
<path d="M3957 473 c-4 -3 -7 -21 -7 -38 0 -31 -18 -89 -41 -128 -6 -10 -7
-32 -4 -49 l7 -30 16 24 c9 13 15 31 14 41 -2 9 2 17 7 17 6 0 11 -7 11 -16 0
-8 5 -12 11 -8 7 4 9 21 6 40 -3 19 -2 34 3 34 9 0 10 37 3 88 -4 31 -12 39
-26 25z"/>
<path d="M4098 455 c-8 -8 3 -55 13 -55 5 0 9 8 9 18 0 20 -14 44 -22 37z"/>
<path d="M4130 358 c0 -7 5 -20 10 -28 8 -12 10 -11 10 7 0 12 -4 25 -10 28
-5 3 -10 0 -10 -7z"/>
<path d="M4071 344 c0 -11 3 -14 6 -6 3 7 2 16 -1 19 -3 4 -6 -2 -5 -13z"/>
<path d="M888 322 c-35 -21 -36 -32 -3 -32 28 0 33 -20 10 -44 -8 -8 -15 -19
-15 -25 0 -6 -4 -11 -9 -11 -17 0 -52 -117 -55 -185 -1 -11 5 -20 14 -20 10 0
18 20 27 65 20 107 25 123 54 164 16 21 27 42 24 46 -3 4 2 13 10 20 19 16 19
34 0 26 -8 -3 -15 -1 -15 4 0 14 -11 12 -42 -8z"/>
<path d="M3990 331 c0 -5 5 -13 10 -16 6 -3 10 -2 10 4 0 5 -4 13 -10 16 -5 3
-10 2 -10 -4z"/>
<path d="M4065 290 c-10 -11 -15 -21 -12 -21 4 -1 12 -3 17 -4 6 -1 15 -3 22
-4 6 0 9 -4 5 -7 -10 -10 14 -64 29 -64 8 0 14 5 14 10 0 6 -5 10 -10 10 -6 0
-10 6 -8 13 2 10 -30 87 -37 87 -1 0 -10 -9 -20 -20z"/>
<path d="M4036 238 c3 -4 -13 -8 -33 -10 -26 -2 -39 -8 -41 -20 -2 -12 2 -15
16 -12 10 3 25 -2 33 -12 12 -15 12 -16 -8 -10 -12 4 -24 3 -27 -3 -10 -16 25
-22 65 -10 35 11 37 13 21 26 -16 12 -16 14 1 27 24 19 21 31 -7 31 -13 0 -22
-3 -20 -7z"/>
<path d="M2058 202 c-27 -2 -48 -7 -48 -13 0 -5 5 -9 10 -9 6 0 10 -6 10 -14
0 -21 18 -29 58 -28 21 1 43 10 54 22 10 11 24 20 30 20 8 0 8 3 3 9 -14 12
-61 17 -117 13z"/>
<path d="M3878 144 c-11 -16 18 -108 40 -127 13 -12 35 -16 75 -15 64 2 75 22
13 25 -65 2 -86 11 -86 37 0 13 -6 26 -14 29 -8 3 -16 18 -18 34 -2 16 -6 23
-10 17z"/>
<path d="M4146 41 c-17 -7 -16 -8 7 -24 15 -9 30 -17 36 -17 15 0 20 27 8 39
-12 12 -24 13 -51 2z"/>
<path d="M4412 20 c7 -11 19 -20 27 -20 11 0 10 5 -4 20 -10 11 -22 20 -27 20
-4 0 -3 -9 4 -20z"/>
<path d="M4086 16 c3 -9 11 -16 16 -16 13 0 5 23 -10 28 -7 2 -10 -2 -6 -12z"/>
</g>
</svg>
