<?xml version="1.0" standalone="no"?>
<!DOCTYPE svg PUBLIC "-//W3C//DTD SVG 20010904//EN"
 "http://www.w3.org/TR/2001/REC-SVG-20010904/DTD/svg10.dtd">
<svg version="1.0" xmlns="http://www.w3.org/2000/svg"
 width="626.000000pt" height="417.000000pt" viewBox="0 0 626.000000 417.000000"
 preserveAspectRatio="xMidYMid meet">

<g transform="translate(0.000000,417.000000) scale(0.100000,-0.100000)"
fill="#000000" stroke="none">
<path d="M0 4161 c0 -5 8 -12 18 -14 16 -4 16 -5 0 -6 -24 -1 -23 -78 1 -84
14 -4 14 -5 -1 -6 -15 -1 -17 -14 -16 -100 0 -84 3 -101 16 -104 15 -4 15 -5
0 -6 -16 -1 -18 -16 -17 -172 1 -129 5 -174 15 -184 12 -11 11 -14 -4 -18 -9
-3 2 -5 25 -6 29 -1 45 -7 52 -18 10 -17 10 -17 11 0 0 12 9 17 28 18 23 2 24
2 4 6 -12 2 -20 9 -17 14 4 5 19 2 36 -6 19 -10 29 -12 29 -4 0 7 9 9 25 5 14
-4 25 -2 25 4 0 5 5 10 11 10 5 0 8 -4 4 -9 -8 -14 9 -21 25 -10 8 5 10 9 4 9
-6 0 -11 7 -11 15 0 11 4 12 11 5 13 -13 39 -13 31 0 -3 6 1 10 9 10 9 0 16
-4 16 -9 0 -5 9 -11 20 -14 13 -3 20 0 20 9 0 11 7 13 28 8 15 -4 31 -11 37
-15 13 -12 45 -11 45 1 0 6 7 10 15 10 8 0 15 5 15 11 0 12 43 1 48 -12 2 -5
10 -9 18 -9 9 0 12 5 9 10 -4 7 3 8 22 4 25 -7 27 -6 14 9 -12 15 -10 17 28
17 22 0 41 -4 41 -10 0 -5 -6 -10 -12 -10 -10 0 -9 -3 1 -9 8 -5 26 -4 47 5
18 8 35 10 38 5 3 -5 26 -12 51 -15 24 -4 47 -11 50 -17 4 -5 12 -6 18 -2 12
8 68 11 235 16 45 1 82 4 82 7 0 3 21 6 48 6 32 1 41 -1 27 -7 -20 -8 -20 -8
0 -8 12 -1 25 3 30 8 14 12 215 22 215 10 0 -12 37 -12 42 1 2 6 45 12 96 15
79 3 93 1 88 -11 -3 -8 -1 -14 5 -14 5 0 12 7 16 16 5 13 7 13 14 2 6 -9 9
-10 9 -1 0 13 39 12 73 -2 10 -4 17 -3 17 4 0 7 8 8 24 1 13 -4 27 -5 32 0 12
11 66 16 80 7 15 -9 202 -1 228 9 14 5 17 4 12 -4 -4 -7 -3 -12 3 -12 5 0 13
5 16 10 3 6 11 10 16 10 6 0 7 -4 4 -10 -3 -5 1 -10 10 -10 9 0 13 5 10 10 -9
14 18 13 51 -2 21 -10 28 -10 31 -1 3 9 12 9 29 2 14 -5 31 -9 37 -8 7 0 3 4
-7 8 -19 7 -19 8 2 13 12 4 22 3 22 0 0 -7 93 -8 332 -2 69 1 131 -1 137 -4 6
-4 11 -2 11 3 0 6 9 11 21 11 11 0 17 -4 14 -10 -3 -5 -1 -10 4 -10 6 0 11 4
11 8 0 14 183 14 192 0 6 -10 10 -10 16 -1 8 13 232 14 242 1 3 -4 41 -2 84 3
61 8 81 7 87 -2 5 -9 12 -10 21 -3 14 11 289 11 307 0 6 -4 11 -3 11 2 0 12
104 10 112 -2 6 -8 8 -8 8 0 0 6 19 11 45 11 25 0 45 -4 45 -9 0 -5 12 -5 27
-2 15 4 32 6 38 5 5 -1 154 -3 330 -6 176 -2 332 -6 348 -8 15 -3 27 0 27 7 0
7 3 7 8 1 4 -5 23 -11 42 -11 19 -1 89 -3 155 -5 66 -2 123 -8 127 -13 4 -6
12 -5 21 2 12 10 16 9 21 -3 7 -18 52 -20 59 -2 4 9 6 9 6 -1 1 -7 6 -10 11
-7 6 3 15 3 22 -1 7 -4 26 -9 43 -10 16 -2 24 0 18 3 -15 5 -17 23 -4 23 5 0
16 -6 23 -13 22 -21 58 -16 64 10 4 13 11 23 16 23 5 0 8 6 6 12 -6 18 36 48
64 47 15 -1 17 -3 7 -6 -23 -6 -12 -43 12 -43 11 0 19 7 19 15 0 17 17 20 22
4 2 -6 26 -11 53 -11 71 1 107 -7 98 -21 -3 -7 -2 -8 3 -4 5 5 10 13 10 18 1
5 2 14 3 19 0 6 11 9 24 9 16 -1 18 -2 5 -6 -40 -10 -9 -40 40 -37 17 1 32 -2
32 -7 0 -5 -14 -9 -31 -9 -27 0 -30 -2 -19 -15 7 -8 17 -12 22 -9 6 4 5 -2 -1
-14 -13 -24 4 -43 34 -38 20 3 45 -10 45 -24 0 -4 -9 -10 -20 -13 -14 -4 -18
-10 -14 -22 7 -16 8 -16 16 -1 7 12 13 14 21 7 7 -5 26 -11 42 -14 l30 -4 -33
-2 c-18 0 -40 -8 -48 -16 -8 -8 -22 -11 -32 -8 -9 3 -4 -4 11 -17 23 -18 36
-21 68 -16 26 4 39 2 39 -5 0 -6 -7 -9 -15 -5 -8 3 -15 1 -15 -4 0 -6 7 -10
16 -10 8 0 12 -4 9 -10 -9 -14 -52 -12 -58 3 -4 10 -6 10 -6 0 -1 -7 -11 -13
-23 -13 -18 0 -20 -2 -9 -9 8 -5 19 -8 25 -6 36 11 106 13 106 4 0 -6 -4 -8
-9 -4 -5 3 -12 1 -16 -5 -3 -5 -16 -8 -28 -6 -12 1 -16 1 -9 -1 7 -3 9 -9 6
-15 -4 -7 -2 -8 4 -4 7 4 12 2 12 -3 0 -6 -7 -11 -15 -11 -8 0 -15 -4 -15 -8
0 -5 15 -6 32 -4 31 5 32 4 18 -13 -14 -16 -13 -17 6 -11 12 3 32 2 45 -3 22
-9 20 -10 -16 -11 -32 -1 -36 -3 -20 -10 11 -5 14 -9 6 -9 -11 -1 -11 -4 -1
-16 7 -8 9 -15 4 -15 -13 0 -36 16 -35 24 3 18 0 26 -9 26 -16 0 -12 -26 6
-41 15 -12 14 -15 -5 -30 -16 -13 -18 -18 -7 -22 8 -3 17 -1 19 6 3 8 17 5 48
-10 40 -21 42 -23 17 -23 -16 0 -28 5 -28 10 0 6 -4 10 -8 10 -5 0 -9 -7 -9
-15 0 -8 9 -15 19 -15 10 0 18 -7 18 -15 0 -8 6 -15 13 -15 7 0 22 -6 32 -14
18 -13 18 -14 -7 -9 -14 3 -34 0 -45 -6 -17 -10 -17 -10 2 -11 11 0 16 -4 10
-8 -16 -11 -15 -44 1 -38 9 3 14 -2 14 -14 0 -11 -5 -20 -11 -20 -5 0 -7 5 -4
10 3 6 -1 10 -10 10 -11 0 -15 5 -12 14 3 8 -2 20 -10 28 -15 11 -16 11 -10
-4 5 -14 1 -18 -16 -19 -21 0 -21 -1 3 -10 18 -8 21 -12 11 -18 -10 -7 -11
-13 -2 -30 14 -25 33 -29 24 -4 -5 13 -2 15 11 10 10 -4 22 -7 28 -7 6 0 6 -6
-2 -15 -7 -8 -21 -15 -32 -15 -10 0 -16 -5 -13 -10 4 -7 12 -7 25 0 13 7 21 7
25 0 6 -9 -20 -14 -55 -11 -12 1 -11 -1 3 -12 23 -19 22 -31 -3 -24 -11 3 -20
1 -20 -4 0 -5 5 -9 10 -9 6 0 10 -5 10 -11 0 -6 -7 -9 -15 -5 -8 3 -15 1 -15
-4 0 -6 11 -10 24 -10 19 0 23 -4 19 -20 -6 -24 -23 -27 -23 -4 0 8 -4 13 -9
10 -20 -12 2 -43 37 -54 34 -10 35 -10 5 -6 -26 4 -33 2 -33 -11 0 -12 6 -15
19 -10 14 4 21 0 26 -14 3 -11 14 -22 23 -24 16 -4 16 -5 0 -6 -9 0 -24 6 -32
15 -12 12 -16 12 -16 2 0 -10 -2 -10 -8 -1 -4 7 -13 9 -21 4 -10 -7 -11 -13
-1 -31 14 -26 30 -171 18 -164 -4 3 -8 1 -8 -5 0 -5 9 -13 21 -16 16 -6 18 -9
8 -22 -10 -12 -10 -16 0 -23 11 -6 11 -9 0 -13 -10 -4 -10 -6 -1 -6 6 -1 12
-10 12 -21 0 -11 -3 -19 -7 -18 -17 4 -53 -14 -53 -27 0 -7 -11 -16 -25 -19
-36 -9 -32 -30 5 -23 16 4 32 2 35 -2 3 -5 14 -7 25 -4 11 3 20 0 20 -6 0 -6
-7 -8 -17 -4 -11 4 -14 3 -9 -5 4 -7 3 -12 -2 -12 -6 0 -8 -10 -5 -21 4 -15 0
-27 -12 -35 -18 -13 -17 -14 9 -14 15 0 25 -4 21 -10 -3 -5 -12 -7 -20 -3 -9
3 -15 -1 -15 -11 0 -10 6 -14 18 -10 12 4 11 0 -7 -15 l-23 -21 44 6 c40 6 44
4 44 -15 0 -14 -4 -17 -10 -11 -13 13 -26 13 -26 0 0 -6 8 -14 17 -17 9 -4 25
-15 35 -25 14 -14 15 -18 4 -18 -8 0 -22 7 -30 16 -13 13 -18 13 -28 2 -28
-30 -20 -39 28 -34 25 3 50 8 55 11 5 4 9 1 9 -5 0 -7 -9 -14 -20 -17 -11 -3
-20 -12 -20 -20 0 -10 -6 -13 -16 -9 -18 7 -45 -16 -36 -30 4 -5 28 -10 54
-12 l47 -2 1 579 c0 456 -2 581 -12 585 -10 5 -10 7 0 12 9 4 12 128 12 570
l0 564 -215 0 -215 0 0 -192 0 -193 -1107 1 c-1016 1 -1062 0 -553 -8 305 -4
596 -10 645 -12 271 -12 380 -18 384 -22 2 -2 -209 -4 -470 -4 -261 0 -1114
-1 -1896 -2 -782 -1 -1426 1 -1429 5 -4 4 26 7 67 7 41 0 103 5 139 10 36 6
331 13 655 16 325 4 592 9 595 12 3 2 -525 2 -1172 -1 l-1178 -5 0 194 0 194
-255 0 c-150 0 -255 -4 -255 -9z m37 -397 c-3 -3 -12 -4 -19 -1 -8 3 -5 6 6 6
11 1 17 -2 13 -5z m5698 -173 c3 -5 1 -12 -5 -16 -5 -3 -10 1 -10 9 0 18 6 21
15 7z m126 -24 c-7 -9 -23 -12 -43 -9 -32 5 -32 6 -8 13 44 12 64 11 51 -4z
m89 -17 c0 -5 -2 -10 -4 -10 -3 0 -8 5 -11 10 -3 6 -1 10 4 10 6 0 11 -4 11
-10z m-5476 -45 c-4 -8 -12 -15 -20 -15 -8 0 -11 6 -8 15 4 8 12 15 20 15 8 0
11 -6 8 -15z m-417 -1 c-3 -3 -12 -4 -19 -1 -8 3 -5 6 6 6 11 1 17 -2 13 -5z
m26 -31 c-7 -2 -21 -2 -30 0 -10 3 -4 5 12 5 17 0 24 -2 18 -5z m5935 -19 c1
0 -11 -1 -28 -2 -16 0 -30 3 -30 8 0 14 24 18 40 6 8 -5 16 -11 18 -12z m32
16 c0 -5 -5 -10 -11 -10 -5 0 -7 5 -4 10 3 6 8 10 11 10 2 0 4 -4 4 -10z m80
-100 c0 -5 -5 -10 -11 -10 -5 0 -7 5 -4 10 3 6 8 10 11 10 2 0 4 -4 4 -10z
m50 -94 c0 -2 -7 -7 -16 -10 -8 -3 -12 -2 -9 4 6 10 25 14 25 6z m-10 -190 c0
-3 -4 -8 -10 -11 -5 -3 -10 -1 -10 4 0 6 5 11 10 11 6 0 10 -2 10 -4z m60
-140 c0 -3 -4 -8 -10 -11 -5 -3 -10 -1 -10 4 0 6 5 11 10 11 6 0 10 -2 10 -4z
m-35 -166 c3 -6 -1 -7 -9 -4 -18 7 -21 14 -7 14 6 0 13 -4 16 -10z m-12 -215
c9 -4 24 -5 32 -1 8 3 15 1 15 -4 0 -6 -16 -10 -35 -10 -19 0 -35 -4 -35 -10
0 -5 7 -7 15 -4 20 8 19 2 -4 -18 -18 -15 -20 -14 -29 21 -10 40 -2 45 41 26z
m27 -122 c5 -7 7 -11 4 -8 -4 3 -13 0 -19 -5 -15 -12 -45 -3 -45 14 0 16 46
15 60 -1z m-10 -129 c0 -8 -5 -12 -10 -9 -6 4 -8 11 -5 16 9 14 15 11 15 -7z
m-28 -72 c-3 -9 -8 -10 -15 -3 -13 13 -30 14 -22 2 3 -5 1 -12 -5 -16 -16 -10
-12 22 6 39 12 13 18 13 28 3 8 -6 11 -18 8 -25z m28 -2 c0 -5 -5 -10 -11 -10
-5 0 -7 5 -4 10 3 6 8 10 11 10 2 0 4 -4 4 -10z m13 -71 c13 -1 7 -4 -13 -8
-20 -4 -34 -12 -32 -19 1 -7 -2 -12 -8 -12 -14 0 -12 12 7 40 10 14 18 19 21
12 2 -7 13 -13 25 -13z m-16 -55 c-3 -3 -12 -4 -19 -1 -8 3 -5 6 6 6 11 1 17
-2 13 -5z m38 -114 c3 -5 2 -10 -4 -10 -5 0 -13 5 -16 10 -3 6 -2 10 4 10 5 0
13 -4 16 -10z m12 -86 c-3 -3 -12 -4 -19 -1 -8 3 -5 6 6 6 11 1 17 -2 13 -5z"/>
<path d="M2928 3783 c29 -2 74 -2 100 0 26 2 2 3 -53 3 -55 0 -76 -1 -47 -3z"/>
<path d="M3145 3530 c3 -5 14 -10 23 -10 15 0 15 2 2 10 -20 13 -33 13 -25 0z"/>
<path d="M5798 3528 c6 -6 18 -8 28 -6 14 3 12 5 -9 10 -19 3 -25 2 -19 -4z"/>
<path d="M5730 3520 c0 -14 28 -19 33 -6 3 6 -4 13 -14 13 -10 1 -19 -2 -19
-7z"/>
<path d="M515 3490 c-3 -6 1 -7 9 -4 18 7 21 14 7 14 -6 0 -13 -4 -16 -10z"/>
<path d="M5848 3483 c6 -2 18 -2 25 0 6 3 1 5 -13 5 -14 0 -19 -2 -12 -5z"/>
<path d="M287 3460 c-4 -15 0 -20 14 -20 11 0 19 7 20 18 0 10 3 12 6 5 2 -7
9 -13 14 -13 4 0 6 7 3 15 -9 23 -51 19 -57 -5z"/>
<path d="M45 3440 c3 -5 8 -10 11 -10 2 0 4 5 4 10 0 6 -5 10 -11 10 -5 0 -7
-4 -4 -10z"/>
<path d="M139 3436 c10 -12 8 -15 -11 -19 -20 -4 -20 -4 5 -6 30 -1 38 23 11
33 -14 5 -15 4 -5 -8z"/>
<path d="M50 3396 c0 -13 -4 -15 -19 -6 -28 14 -28 15 -29 -35 -2 -41 0 -45
20 -45 13 0 30 -5 38 -11 12 -8 11 -9 -5 -5 -36 9 -55 -16 -54 -72 2 -51 2
-52 28 -45 14 3 27 10 29 15 2 4 10 8 19 8 8 0 13 7 11 18 -3 13 -12 16 -35
14 -17 -2 -34 2 -38 7 -3 7 3 11 14 11 12 0 21 4 21 9 0 4 17 7 38 5 l37 -3
-24 20 c-23 19 -23 19 -2 19 16 0 21 6 21 25 0 14 5 25 12 25 9 0 9 3 -1 13
-10 10 -15 9 -24 -3 -22 -28 -90 -33 -95 -7 -3 14 1 17 21 11 14 -3 32 -2 40
3 12 7 11 11 -4 27 -17 18 -19 18 -19 2z"/>
<path d="M5930 3395 c-7 -9 -8 -15 -2 -15 5 0 12 7 16 15 3 8 4 15 2 15 -2 0
-9 -7 -16 -15z"/>
<path d="M188 3328 c5 -5 16 -8 23 -6 8 3 3 7 -10 11 -17 4 -21 3 -13 -5z"/>
<path d="M5980 3305 c0 -8 5 -15 10 -15 6 0 10 7 10 15 0 8 -4 15 -10 15 -5 0
-10 -7 -10 -15z"/>
<path d="M145 3270 c-3 -5 -1 -10 4 -10 6 0 11 5 11 10 0 6 -2 10 -4 10 -3 0
-8 -4 -11 -10z"/>
<path d="M186 3255 c-3 -8 -1 -15 3 -15 5 0 11 7 15 15 3 8 1 15 -3 15 -5 0
-11 -7 -15 -15z"/>
<path d="M458 3223 c7 -3 16 -2 19 1 4 3 -2 6 -13 5 -11 0 -14 -3 -6 -6z"/>
<path d="M177 3209 c7 -7 15 -10 18 -7 3 3 -2 9 -12 12 -14 6 -15 5 -6 -5z"/>
<path d="M238 3213 c6 -2 18 -2 25 0 6 3 1 5 -13 5 -14 0 -19 -2 -12 -5z"/>
<path d="M6040 3196 c0 -23 11 -46 22 -46 7 0 6 5 -1 14 -6 7 -9 21 -5 30 3 9
1 16 -5 16 -6 0 -11 -6 -11 -14z"/>
<path d="M85 3179 c-13 -13 -27 -18 -42 -14 -25 6 -30 -4 -10 -24 10 -11 8
-12 -9 -7 -18 6 -20 2 -20 -39 -1 -25 4 -45 9 -45 5 0 6 -11 3 -24 -4 -16 -1
-26 9 -29 9 -4 12 -1 9 8 -5 11 4 13 42 9 46 -6 94 9 94 28 0 5 -9 4 -19 -2
-11 -5 -31 -10 -45 -10 -20 0 -24 4 -19 17 4 10 2 14 -4 10 -18 -11 -23 21 -7
38 17 16 11 35 -12 35 -8 0 -14 5 -14 10 0 13 2 13 36 -5 34 -17 70 -21 41 -4
-12 7 -15 15 -9 22 11 16 10 40 -3 43 -5 2 -19 -6 -30 -17z m-40 -119 c-3 -5
-13 -6 -21 -3 -12 4 -13 8 -3 14 15 9 32 2 24 -11z m25 -24 c0 -3 -4 -8 -10
-11 -5 -3 -10 -1 -10 4 0 6 5 11 10 11 6 0 10 -2 10 -4z"/>
<path d="M265 3140 c-3 -5 1 -10 10 -10 9 0 13 5 10 10 -3 6 -8 10 -10 10 -2
0 -7 -4 -10 -10z"/>
<path d="M145 3104 c-5 -1 -23 -5 -40 -9 l-30 -8 30 -13 c39 -17 52 -17 58 -1
6 17 -4 35 -18 31z"/>
<path d="M227 3035 c3 -8 9 -12 14 -9 12 7 11 11 -5 17 -10 4 -13 1 -9 -8z"/>
<path d="M205 3010 c3 -5 8 -10 11 -10 2 0 4 5 4 10 0 6 -5 10 -11 10 -5 0 -7
-4 -4 -10z"/>
<path d="M90 2989 c0 -5 -6 -7 -12 -3 -10 5 -10 4 -1 -6 6 -7 16 -9 22 -6 14
9 14 26 1 26 -5 0 -10 -5 -10 -11z"/>
<path d="M124 2989 c-2 -4 7 -9 21 -11 13 -3 26 0 28 6 5 11 -42 16 -49 5z"/>
<path d="M6140 2987 c0 -10 8 -17 18 -17 9 0 13 4 7 8 -5 4 -13 11 -17 16 -5
5 -8 2 -8 -7z"/>
<path d="M118 2953 c-9 -2 -15 -10 -12 -17 3 -8 -2 -16 -11 -20 -23 -8 -10
-23 20 -23 21 0 24 3 19 23 -5 18 -2 24 11 24 9 0 13 5 10 10 -6 10 -9 11 -37
3z"/>
<path d="M2 2934 c4 -21 18 -27 38 -14 17 10 14 15 -18 25 -19 6 -23 4 -20
-11z"/>
<path d="M68 2943 c7 -3 16 -2 19 1 4 3 -2 6 -13 5 -11 0 -14 -3 -6 -6z"/>
<path d="M23 2893 c9 -2 25 -2 35 0 9 3 1 5 -18 5 -19 0 -27 -2 -17 -5z"/>
<path d="M200 2880 c0 -5 5 -10 10 -10 6 0 10 5 10 10 0 6 -4 10 -10 10 -5 0
-10 -4 -10 -10z"/>
<path d="M4028 2877 c-36 -10 -105 -56 -150 -101 -48 -48 -61 -84 -66 -178 -3
-64 -8 -88 -18 -88 -17 0 -26 -32 -18 -64 4 -19 2 -26 -9 -26 -16 0 -30 -27
-21 -41 3 -5 14 -9 25 -9 23 0 25 -24 4 -64 -18 -35 -18 -36 -1 -36 7 0 16 10
20 22 7 31 25 12 33 -35 5 -32 3 -37 -13 -37 -16 0 -17 -2 -4 -10 11 -7 12
-12 3 -18 -6 -4 -14 -23 -18 -42 -6 -33 -4 -37 35 -60 22 -14 56 -49 75 -77
20 -29 38 -53 41 -53 3 0 2 5 -1 10 -3 6 1 17 9 26 29 29 11 100 -22 89 -12
-3 -23 4 -35 24 -16 27 -16 30 3 70 20 39 40 54 40 29 0 -6 3 -8 7 -4 4 4 7
21 8 39 0 26 4 32 22 33 21 1 22 -15 1 -42 -4 -6 -19 -32 -33 -58 -19 -35 -21
-46 -10 -46 8 0 24 19 36 42 15 30 23 37 29 27 5 -7 12 -10 16 -6 4 3 1 13 -6
21 -10 13 -8 22 10 51 25 40 34 45 25 13 -6 -22 -6 -22 10 -4 20 26 3 46 -25
28 -16 -9 -21 -9 -28 4 -8 14 -10 14 -21 0 -8 -9 -19 -16 -27 -16 -7 0 -15 -9
-19 -20 -6 -19 -24 -23 -35 -8 -3 3 -12 8 -20 10 -23 5 -41 68 -42 144 0 71
18 147 34 138 4 -3 18 2 31 11 18 11 37 14 68 10 l44 -6 -24 20 c-30 27 -61
27 -97 0 l-29 -21 28 26 c15 14 22 26 15 26 -9 0 -9 3 2 10 8 5 11 10 6 10 -5
0 3 9 18 21 19 15 46 22 89 25 34 2 75 6 90 9 19 3 30 0 33 -10 7 -18 49 -13
73 9 15 14 18 13 29 -4 6 -11 9 -26 6 -35 -4 -8 0 -17 9 -21 24 -9 36 -61 33
-148 -1 -44 0 -74 2 -68 2 7 9 12 16 12 7 0 22 30 34 68 23 72 25 83 23 124
-1 23 -5 26 -27 24 -36 -4 -74 15 -74 37 0 14 4 16 18 9 9 -5 22 -7 29 -5 6 2
14 -1 18 -6 3 -6 10 -11 16 -11 15 0 10 29 -9 58 -10 15 -22 36 -28 46 -5 11
-25 27 -44 37 -18 10 -36 22 -39 27 -21 32 -140 55 -203 39z m-210 -409 c-2
-12 -10 -23 -18 -25 -12 -4 -13 -3 -1 5 8 6 11 17 8 26 -4 9 -2 16 4 16 6 0 9
-10 7 -22z m10 -100 c-6 -18 -28 -21 -28 -4 0 9 7 16 16 16 9 0 14 -5 12 -12z"/>
<path d="M28 2871 c-17 -4 -25 -10 -20 -17 8 -13 72 -24 72 -12 0 4 -7 8 -15
8 -21 0 -19 18 3 23 27 7 -9 6 -40 -2z"/>
<path d="M120 2870 c0 -5 7 -10 16 -10 8 0 12 5 9 10 -3 6 -10 10 -16 10 -5 0
-9 -4 -9 -10z"/>
<path d="M185 2840 c3 -5 11 -10 16 -10 6 0 7 5 4 10 -3 6 -11 10 -16 10 -6 0
-7 -4 -4 -10z"/>
<path d="M16 2814 c-6 -16 12 -18 32 -5 11 6 9 9 -7 14 -12 3 -22 -1 -25 -9z"/>
<path d="M140 2810 c-13 -8 -12 -10 3 -10 9 0 17 5 17 10 0 12 -1 12 -20 0z"/>
<path d="M225 2810 c3 -5 8 -10 11 -10 2 0 4 5 4 10 0 6 -5 10 -11 10 -5 0 -7
-4 -4 -10z"/>
<path d="M1 2715 c1 -48 5 -65 15 -65 8 0 11 6 8 15 -5 12 -2 12 25 -1 35 -17
40 -26 14 -23 -49 4 -63 -1 -63 -26 0 -17 4 -23 15 -19 8 4 12 10 9 15 -3 5 2
9 11 9 9 0 13 -5 10 -10 -3 -6 6 -15 20 -20 38 -14 41 -13 17 9 -22 18 -31 38
-13 26 5 -3 13 4 16 16 4 11 16 24 28 29 18 7 19 9 4 9 -11 1 -15 6 -11 13 4
6 -2 18 -12 26 -17 13 -16 14 19 7 27 -4 37 -3 32 4 -3 6 4 15 17 20 l23 9
-27 7 c-28 7 -52 -1 -43 -14 2 -5 -10 -12 -28 -15 -30 -7 -31 -8 -12 -19 12
-7 19 -20 17 -30 -2 -9 -8 -15 -13 -11 -5 3 -7 10 -4 15 4 5 -8 9 -24 9 -21 0
-31 5 -31 15 0 24 4 30 20 28 8 -1 23 3 34 9 20 11 20 11 1 19 -11 4 -32 8
-47 8 -28 1 -28 1 -27 -64z"/>
<path d="M788 2751 c-21 -4 -46 -15 -56 -24 -10 -10 -21 -14 -25 -11 -3 3 -11
3 -17 -1 -9 -6 -9 -9 0 -15 7 -4 -1 -10 -20 -13 -17 -4 -29 -11 -25 -16 3 -5
0 -13 -6 -17 -8 -4 -9 -3 -5 4 4 7 1 12 -7 12 -18 0 -77 -59 -77 -76 0 -8 -11
-20 -25 -26 -19 -8 -22 -14 -14 -24 7 -9 6 -20 -7 -39 -19 -29 -31 -27 -15 3
14 26 14 32 1 32 -5 0 -10 -9 -10 -19 0 -11 -7 -27 -16 -35 -8 -9 -11 -16 -5
-16 6 0 19 -17 30 -37 11 -21 33 -52 49 -70 16 -17 27 -34 24 -37 -3 -3 -18
11 -33 33 -24 32 -39 41 -94 56 -72 19 -114 15 -160 -15 l-30 -20 40 -1 c22 0
34 -3 28 -6 -19 -7 -16 -23 5 -23 22 0 62 -43 53 -58 -4 -7 -12 -8 -21 -2 -8
6 -23 10 -33 10 -11 0 -31 10 -45 21 l-27 21 25 -7 c20 -6 23 -5 13 6 -21 22
-149 16 -205 -9 -83 -39 -78 -14 -78 -378 0 -178 3 -324 6 -324 4 0 38 11 76
25 38 14 76 25 84 25 8 0 32 13 52 29 39 30 88 45 99 29 3 -6 -1 -14 -8 -19
-9 -6 -10 -9 -2 -9 7 0 10 -9 8 -22 -6 -27 -22 -44 -32 -33 -5 4 -2 10 5 12 6
3 12 9 12 14 0 4 -7 6 -15 3 -8 -4 -15 -2 -15 4 0 6 6 13 13 15 9 4 9 6 0 6
-18 1 -84 -61 -118 -109 -15 -22 -31 -61 -36 -87 -5 -26 -13 -49 -18 -52 -4
-4 -11 -19 -15 -35 -6 -25 -5 -28 13 -23 23 6 31 -9 31 -64 0 -21 9 -53 20
-71 20 -33 27 -74 11 -64 -5 3 -30 -1 -57 -9 -26 -8 -51 -12 -56 -9 -4 3 -11
-2 -14 -10 -3 -9 -15 -16 -25 -16 -12 0 -19 -7 -19 -20 0 -24 1 -24 65 -4 74
23 166 25 189 5 14 -13 40 -16 125 -15 111 1 193 8 210 19 6 3 18 21 27 40 11
24 21 32 32 28 13 -4 14 -3 3 5 -8 6 -10 15 -6 22 5 9 4 11 -3 6 -15 -9 -15
-3 0 29 8 19 14 22 20 13 6 -9 7 -5 3 9 -3 12 -1 32 5 44 10 17 8 24 -10 41
-12 11 -19 26 -16 34 8 22 -4 45 -30 55 -13 4 -24 16 -24 26 0 9 -10 27 -22
40 -12 13 -16 23 -10 23 17 0 14 22 -6 45 -35 40 -112 84 -112 65 0 -6 5 -10
10 -10 6 0 10 -5 10 -11 0 -6 -7 -9 -15 -5 -10 3 -15 -1 -16 -12 0 -10 -3 -12
-6 -4 -2 6 -13 12 -23 12 -28 0 -45 26 -30 45 9 11 16 12 25 5 9 -8 17 -6 29
6 15 14 19 14 40 1 55 -36 146 -133 146 -156 0 -12 14 -36 30 -53 53 -53 84
-116 83 -170 0 -26 1 -48 4 -48 2 0 20 8 41 19 39 20 237 97 287 112 17 5 44
5 60 0 28 -7 116 11 194 41 23 8 23 9 5 23 -23 17 -38 19 -28 3 4 -7 3 -8 -4
-4 -17 10 -15 24 6 47 23 24 52 16 45 -12 -4 -14 0 -19 16 -19 15 0 19 4 14
17 -4 11 -3 14 5 9 8 -5 12 0 12 13 0 12 4 21 10 21 5 0 9 3 8 8 0 4 7 24 16
45 24 55 7 135 -36 165 -10 7 -18 20 -18 28 0 9 -5 12 -12 8 -6 -4 -8 -3 -5 3
11 17 -74 92 -123 109 -69 25 -91 37 -80 44 6 4 -8 13 -31 20 -36 12 -45 12
-70 -2 -16 -10 -31 -13 -34 -7 -10 15 -30 11 -53 -11 -15 -14 -22 -16 -23 -8
-1 7 -4 2 -8 -11 -4 -14 -13 -26 -21 -29 -12 -3 -12 -2 -1 6 8 6 10 12 3 16
-14 8 -7 42 12 62 20 19 20 24 -1 39 -22 17 -8 35 28 35 19 0 28 4 23 11 -3 6
-15 9 -25 6 -10 -3 -22 -1 -25 5 -3 5 -12 7 -20 4 -9 -3 -14 1 -14 11 0 13 -3
14 -12 5 -7 -7 -17 -12 -23 -12 -5 0 -2 7 8 14 14 11 27 12 53 4 28 -7 43 -6
70 7 19 9 34 20 34 25 0 17 -74 47 -117 48 -24 0 -47 1 -52 1 -7 1 -8 20 -2
54 0 4 20 7 43 7 l42 0 -22 23 c-22 21 -24 21 -37 4 -8 -11 -14 -14 -17 -7 -2
7 -15 -10 -30 -36 l-26 -47 21 -17 c18 -15 19 -21 9 -46 -7 -16 -13 -43 -15
-61 -1 -17 -5 -29 -9 -27 -17 10 -12 -22 5 -37 20 -16 20 -16 -4 -50 -13 -19
-28 -38 -34 -42 -6 -6 -6 -10 3 -14 16 -6 6 -24 -11 -18 -7 3 -23 -4 -37 -15
-19 -15 -21 -20 -9 -20 17 0 34 -28 24 -38 -3 -3 -17 0 -31 7 -23 10 -31 8
-72 -19 -42 -28 -51 -30 -119 -26 -71 4 -75 3 -113 -29 -21 -18 -37 -35 -33
-38 3 -3 -4 -5 -16 -4 -11 1 -21 7 -21 13 0 6 35 49 78 94 42 45 83 92 91 104
7 12 32 34 55 49 65 41 91 68 74 78 -9 6 -4 9 16 9 20 0 38 11 60 35 18 19 36
35 40 35 4 0 14 7 22 15 10 10 11 15 3 15 -8 0 -8 4 2 16 11 14 10 19 -9 34
-12 10 -27 20 -33 22 -27 9 -33 188 -7 204 14 9 22 -4 11 -18 -6 -7 -13 -26
-15 -41 l-6 -29 80 4 c75 3 79 2 74 -17 -5 -20 -5 -20 9 -1 21 28 18 89 -6
130 -20 34 -24 36 -72 36 -47 0 -50 1 -36 16 9 8 23 16 31 18 8 1 23 9 32 19
23 22 121 23 176 1 39 -16 53 -34 28 -34 -25 0 16 -20 42 -20 26 -1 68 -38 90
-79 6 -13 14 -76 17 -140 l5 -116 -41 -77 c-33 -62 -38 -78 -25 -78 19 0 91
-43 139 -82 18 -16 37 -28 41 -28 5 -1 27 -24 49 -51 66 -83 60 -80 102 -58
20 10 46 19 58 19 11 0 27 5 35 10 12 8 12 10 -5 10 -18 0 -20 7 -20 59 0 49
2 57 14 48 7 -6 23 -16 34 -22 29 -14 33 -42 10 -68 l-18 -22 23 19 c12 11 22
29 22 41 0 22 -44 75 -61 75 -5 0 -9 4 -9 10 0 5 7 6 17 3 11 -4 14 -3 9 5
-11 18 3 14 51 -13 55 -33 56 -42 2 -15 -23 12 -43 19 -46 17 -5 -6 84 -47
102 -47 30 0 91 -105 80 -139 -4 -13 3 -29 20 -47 14 -15 25 -31 25 -35 0 -5
4 -9 9 -9 6 0 -1 24 -14 53 -13 28 -26 63 -28 77 -2 14 -2 19 0 13 5 -15 23
-17 23 -3 0 23 19 8 34 -27 17 -39 16 -22 -2 32 -40 120 -41 127 -32 146 9 16
3 26 -37 64 -26 24 -42 45 -34 45 8 0 22 -6 31 -12 9 -7 6 -3 -6 8 -13 12 -29
24 -36 27 -9 3 -6 12 11 31 18 19 34 26 63 26 22 0 53 7 70 16 26 13 48 15
117 10 47 -4 106 -12 131 -18 25 -5 57 -10 73 -9 22 0 27 -4 27 -24 0 -18 -5
-25 -19 -25 -26 0 -28 -7 -20 -55 3 -22 7 -30 8 -17 1 27 21 30 21 3 0 -11 5
-23 10 -26 6 -3 10 -17 10 -31 0 -13 4 -24 8 -24 5 0 12 -12 18 -27 7 -22 9
-16 9 34 0 38 -5 67 -15 79 -14 17 -14 18 2 6 15 -12 17 -10 20 20 2 25 7 32
21 30 20 -3 23 22 5 42 -11 11 -14 11 -23 0 -14 -20 -70 21 -82 61 -16 53 -5
151 23 210 31 67 48 85 80 85 13 0 24 4 24 9 0 17 -19 22 -40 11 -32 -17 -24
4 20 55 22 25 40 53 40 60 0 8 6 12 14 9 7 -3 16 2 19 10 4 10 1 13 -7 10 -8
-3 -17 -1 -20 4 -3 6 1 12 9 16 8 3 15 11 15 17 0 8 -5 7 -17 -2 -13 -11 -17
-11 -20 -2 -4 10 -9 10 -26 1 -12 -7 -25 -11 -29 -10 -13 3 -109 -117 -129
-164 -16 -36 -20 -59 -16 -96 l6 -48 -377 0 c-207 0 -387 -3 -400 -6 -18 -5
-22 -12 -18 -28 10 -44 18 -151 10 -143 -5 4 -11 34 -15 65 -15 126 -29 183
-58 247 -36 76 -38 90 -11 55 27 -36 36 -17 11 24 -33 53 -97 105 -170 139
-57 26 -79 31 -161 33 -52 2 -112 -1 -132 -5z m246 -130 c-3 -3 -15 6 -27 18
l-22 24 27 -19 c14 -10 24 -21 22 -23z m182 -76 c23 -36 14 -38 -14 -4 -13 16
-19 29 -13 29 6 0 18 -11 27 -25z m-66 -38 c0 -16 -18 3 -23 25 -6 22 -5 22 8
4 8 -11 15 -24 15 -29z m-881 -212 c-9 -8 -50 26 -44 36 3 5 16 0 27 -11 12
-11 19 -22 17 -25z m929 -21 l-3 -49 -5 57 c-3 31 -1 53 3 49 5 -5 7 -30 5
-57z m940 -30 c-7 -15 -14 -21 -16 -15 -2 7 2 18 8 26 18 22 21 18 8 -11z
m-827 -92 l-5 -27 -5 25 -4 25 -8 -25 c-6 -22 -7 -21 -8 11 -1 20 2 39 6 43
13 13 30 -23 24 -52z m119 32 c30 -16 9 -18 -42 -3 -21 5 -38 14 -38 20 0 11
44 2 80 -17z m687 4 c-3 -8 -6 -5 -6 6 -1 11 2 17 5 13 3 -3 4 -12 1 -19z
m-1683 -9 c22 -6 53 -25 69 -42 27 -30 29 -30 25 -8 -2 18 2 25 20 27 14 3 22
-1 22 -11 0 -9 -6 -12 -15 -9 -8 4 -15 1 -15 -5 0 -6 4 -11 8 -11 12 0 14 -93
3 -121 -8 -21 -10 -17 -12 26 l-2 50 -4 -44 c-5 -50 -59 -126 -96 -136 -12 -3
-38 -11 -58 -17 -47 -14 -115 7 -143 45 -22 30 -35 130 -17 141 6 4 11 0 11
-8 0 -22 5 -20 54 14 24 16 46 27 49 24 8 -8 18 46 12 66 -4 12 0 20 12 23 30
8 36 7 77 -4z m1716 2 c0 -6 -4 -12 -8 -15 -5 -3 -9 1 -9 9 0 8 4 15 9 15 4 0
8 -4 8 -9z m-1385 -11 c-3 -5 -12 -10 -18 -10 -7 0 -6 4 3 10 19 12 23 12 15
0z m-158 -8 c16 -10 12 -112 -4 -112 -7 0 -13 -9 -13 -20 0 -11 -5 -20 -11
-20 -8 0 -9 19 -5 63 3 34 6 70 7 80 0 18 7 21 26 9z m971 -66 c40 -20 129
-119 113 -124 -9 -3 -4 -14 16 -34 l28 -30 -60 32 c-77 42 -90 54 -46 45 l33
-7 -33 37 c-51 57 -72 75 -85 75 -7 0 -16 5 -19 10 -9 15 22 12 53 -4z m-79
-22 c37 -47 21 -60 -25 -21 -16 14 -24 29 -20 35 11 18 23 14 45 -14z m-272
-6 c-3 -8 -6 -5 -6 6 -1 11 2 17 5 13 3 -3 4 -12 1 -19z m-368 -1 c-2 -1 -13
-9 -24 -17 -19 -14 -19 -14 -6 3 7 9 18 17 24 17 6 0 8 -1 6 -3z m603 -47 c18
-11 29 -20 23 -20 -5 0 -23 9 -40 20 -39 26 -25 26 17 0z m88 0 c0 -5 -4 -10
-10 -10 -5 0 -10 5 -10 10 0 6 5 10 10 10 6 0 10 -4 10 -10z m60 -11 c0 -4 -7
-6 -15 -3 -8 4 -15 10 -15 15 0 4 7 6 15 3 8 -4 15 -10 15 -15z m142 -16 c18
-16 24 -33 11 -33 -10 1 -46 50 -37 50 4 0 16 -7 26 -17z m-637 -52 c3 -5 1
-12 -5 -16 -5 -3 -10 1 -10 9 0 18 6 21 15 7z m-95 -5 c0 -3 -4 -8 -10 -11 -5
-3 -10 -1 -10 4 0 6 5 11 10 11 6 0 10 -2 10 -4z m70 -6 c0 -5 -7 -10 -16 -10
-8 0 -12 5 -9 10 3 6 10 10 16 10 5 0 9 -4 9 -10z m610 -19 c19 -16 33 -31 30
-34 -3 -3 -23 10 -45 29 -22 18 -35 34 -30 34 6 0 26 -13 45 -29z m-204 -41
c1 -17 -2 -30 -7 -30 -12 0 -23 46 -14 60 10 16 19 4 21 -30z m-31 -9 c18 -36
12 -54 -21 -70 -31 -14 -44 -14 -44 0 0 19 28 39 47 34 10 -3 3 2 -14 10 -32
15 -47 33 -19 22 8 -3 16 2 19 14 7 26 14 24 32 -10z m-669 -25 l36 -24 -33
-7 c-22 -5 -34 -4 -37 4 -2 6 -10 18 -18 25 -34 34 3 35 52 2z m-528 -187 c-3
-8 -7 -3 -11 10 -4 17 -3 21 5 13 5 -5 8 -16 6 -23z m962 -199 c-19 -11 -53
-19 -75 -18 l-40 0 40 8 c22 5 51 13 65 19 41 16 47 11 10 -9z"/>
<path d="M597 2130 c-4 -14 -6 -36 -6 -50 1 -18 4 -14 10 14 10 44 6 75 -4 36z"/>
<path d="M2402 2752 c-30 -9 -33 -26 -5 -30 19 -3 21 -7 13 -22 -9 -16 -7 -18
15 -14 15 3 25 0 25 -8 0 -6 7 -3 15 8 14 18 15 16 10 -21 l-6 -40 15 30 c12
24 15 26 15 10 2 -18 3 -18 12 -3 7 14 15 15 34 8 21 -8 25 -6 26 8 0 10 4 6
11 -10 10 -29 28 -38 28 -15 0 8 4 7 10 -3 13 -20 13 3 0 32 -17 37 -70 65
-136 71 -32 3 -69 3 -82 -1z"/>
<path d="M4877 2716 c-21 -8 -56 -26 -77 -41 -38 -27 -156 -158 -218 -244
l-32 -44 -95 -1 c-70 -1 -95 2 -95 12 0 16 -15 15 -51 -4 -17 -8 -28 -21 -26
-27 2 -7 0 -20 -5 -29 -7 -15 -4 -18 17 -18 18 0 25 5 25 19 0 11 -5 23 -11
27 -8 4 -7 9 2 15 19 12 31 0 24 -24 -6 -21 -5 -21 9 -3 20 25 93 17 141 -15
32 -22 34 -27 28 -64 -3 -22 -15 -50 -26 -63 l-21 -22 -40 37 c-22 21 -35 31
-30 23 16 -24 36 -99 29 -113 -4 -6 3 -1 15 12 20 23 59 35 70 21 3 -3 23 -19
45 -36 63 -46 82 -66 94 -104 11 -31 10 -37 -10 -52 -18 -15 -18 -18 -4 -18
16 0 45 -22 45 -35 0 -3 -29 -36 -65 -72 -41 -43 -61 -71 -55 -77 14 -14 77
23 113 67 28 34 34 37 72 34 51 -5 68 -14 61 -34 -3 -8 -1 -11 4 -8 13 8 13
-1 -1 -26 -6 -11 -20 -24 -32 -29 l-22 -9 22 0 c15 -1 28 9 38 28 8 17 31 42
50 57 19 14 35 31 35 36 0 6 -6 5 -15 -2 -19 -16 -73 -19 -79 -4 -2 7 -15 9
-30 7 -22 -5 -26 -2 -26 19 0 14 -9 33 -20 43 -11 10 -27 42 -36 71 -13 47
-13 55 2 88 26 53 36 44 31 -25 -6 -71 6 -74 42 -9 19 34 22 46 13 59 -39 54
-54 99 -59 172 -8 110 18 171 79 184 18 4 26 11 21 16 -5 5 -22 5 -41 0 l-32
-10 17 31 c26 45 108 94 183 111 67 14 93 15 170 2 25 -4 54 -8 65 -9 10 0 27
-9 37 -18 30 -29 46 -21 32 15 -3 9 -13 13 -25 10 -10 -3 -19 -1 -19 4 0 6
-11 8 -24 6 -22 -5 -57 26 -68 59 -3 7 -15 9 -32 4 -20 -5 -26 -11 -22 -23 5
-11 2 -14 -10 -9 -8 3 -34 6 -57 6 -28 0 -37 3 -28 9 7 5 10 14 7 20 -9 15
-52 13 -99 -3z m-167 -510 c-7 -7 -14 -6 -21 1 -9 9 -7 12 9 10 14 -1 18 -5
12 -11z m122 -358 c-7 -7 -12 -8 -12 -2 0 14 12 26 19 19 2 -3 -1 -11 -7 -17z"/>
<path d="M120 2696 c0 -2 11 -6 25 -8 14 -3 25 -1 25 3 0 5 -11 9 -25 9 -14 0
-25 -2 -25 -4z"/>
<path d="M4121 2683 c0 -4 4 -17 9 -28 8 -19 9 -19 9 2 1 12 -3 25 -9 28 -5 3
-10 3 -9 -2z"/>
<path d="M190 2669 c0 -15 31 -38 50 -38 8 0 5 4 -7 9 -13 5 -23 16 -23 25 0
8 -4 15 -10 15 -5 0 -10 -5 -10 -11z"/>
<path d="M230 2670 c-9 -6 -10 -10 -3 -10 6 0 15 5 18 10 8 12 4 12 -15 0z"/>
<path d="M5493 2673 c-18 -7 -16 -43 2 -43 8 0 15 4 15 9 0 5 3 16 6 25 6 16
0 19 -23 9z"/>
<path d="M6053 2648 c12 -38 28 -46 56 -29 9 6 10 11 2 15 -6 4 -11 2 -11 -3
0 -6 -7 -11 -16 -11 -12 0 -15 6 -11 21 3 12 3 18 0 15 -3 -3 -12 2 -19 12
-10 14 -10 10 -1 -20z"/>
<path d="M145 2661 c3 -5 -3 -12 -12 -14 -17 -4 -17 -5 0 -6 10 0 16 -5 13
-10 -3 -5 1 -11 9 -15 9 -3 15 0 15 9 0 8 -6 15 -12 15 -8 0 -5 7 6 15 19 15
19 15 -3 15 -12 0 -20 -4 -16 -9z"/>
<path d="M5184 2595 c3 -9 0 -15 -9 -15 -12 0 -11 -6 5 -32 24 -39 26 -62 5
-54 -9 3 -15 0 -15 -9 0 -8 -4 -15 -9 -15 -6 0 -7 -23 -4 -54 4 -41 2 -60 -11
-77 -9 -13 -16 -37 -16 -54 0 -17 -7 -40 -15 -51 -8 -10 -15 -22 -15 -26 0
-14 27 -9 40 7 13 16 35 21 25 6 -6 -10 36 -47 65 -56 10 -3 21 -12 24 -21 5
-12 2 -13 -17 -3 -20 11 -21 11 -8 -4 18 -23 28 -21 69 9 24 19 30 29 21 34
-15 10 41 48 84 57 20 4 27 11 27 29 0 13 4 24 10 24 5 0 7 -6 4 -14 -3 -8 4
-16 18 -20 39 -10 58 -7 58 10 0 14 -3 14 -15 4 -17 -14 -21 0 -4 17 16 16 -3
77 -25 81 -11 2 -16 0 -12 -6 13 -22 -14 -21 -34 0 -12 13 -25 23 -30 23 -12
0 -80 105 -80 122 0 7 -8 17 -17 22 -10 5 -34 25 -53 45 -36 36 -77 49 -66 21z
m45 -69 c-3 -3 -11 5 -18 17 -13 21 -12 21 5 5 10 -10 16 -20 13 -22z m101
-121 c0 -5 -5 -3 -10 5 -5 8 -10 20 -10 25 0 6 5 3 10 -5 5 -8 10 -19 10 -25z
m17 -10 c-4 -8 -12 -15 -19 -14 -10 0 -10 2 0 6 6 2 12 12 12 21 0 8 3 13 6 9
4 -3 4 -13 1 -22z m48 -84 c-3 -12 -10 -21 -15 -21 -5 0 -4 11 2 25 13 29 23
26 13 -4z m35 15 c0 -8 7 -17 15 -19 11 -4 10 -4 -2 -3 -10 1 -23 -9 -31 -24
-12 -25 -12 -25 -6 5 4 17 7 36 7 43 0 17 17 15 17 -2z m47 -28 c-3 -7 -5 -2
-5 12 0 14 2 19 5 13 2 -7 2 -19 0 -25z m-174 16 c-7 -3 -9 -13 -6 -22 6 -14
5 -15 -9 -2 -16 15 -7 31 17 29 6 0 5 -3 -2 -5z m17 -66 c0 -14 -16 -9 -40 12
-24 21 -40 26 -40 12 0 -5 10 -13 22 -19 15 -6 18 -12 10 -17 -7 -4 -12 -2
-12 4 0 6 -4 8 -10 5 -5 -3 -10 -1 -10 5 0 6 -4 8 -10 5 -15 -10 -12 6 6 26
15 16 17 16 49 -4 19 -12 34 -25 35 -29z m15 33 c-8 -14 -25 -14 -25 0 0 5 5
7 10 4 6 -3 10 -1 10 6 0 7 3 10 6 6 3 -3 3 -10 -1 -16z m50 -11 c3 -5 2 -10
-4 -10 -5 0 -13 5 -16 10 -3 6 -2 10 4 10 5 0 13 -4 16 -10z m-132 -41 c23
-12 44 -23 46 -25 1 -1 -7 -13 -19 -26 -16 -16 -24 -19 -27 -10 -3 6 -9 10
-14 6 -5 -3 -9 0 -9 6 0 6 -4 8 -10 5 -5 -3 -10 -1 -10 5 0 6 -4 9 -9 6 -9 -6
-25 23 -18 31 7 6 37 -9 37 -19 0 -5 5 -6 10 -3 6 3 10 1 10 -5 0 -6 4 -9 9
-6 5 4 12 0 14 -6 4 -10 6 -10 6 0 1 7 -15 20 -34 29 -19 9 -35 20 -35 25 0
12 6 10 53 -13z m75 1 c16 -1 16 -1 0 -10 -18 -11 -48 -3 -48 12 0 6 7 7 16 4
9 -3 23 -6 32 -6z"/>
<path d="M5367 2603 c-4 -3 -7 -14 -7 -24 0 -20 41 -33 81 -24 25 6 27 8 15
21 -14 13 -59 34 -75 34 -4 0 -11 -3 -14 -7z"/>
<path d="M5580 2570 c-11 -20 -6 -40 9 -40 19 0 42 27 35 43 -8 23 -31 22 -44
-3z"/>
<path d="M4145 2560 c28 -12 78 -12 70 0 -3 6 -25 10 -48 9 -33 0 -38 -2 -22
-9z"/>
<path d="M13 2548 c-17 -29 -11 -38 25 -38 42 0 71 13 53 24 -6 4 -9 12 -6 17
4 5 -10 9 -29 9 -19 0 -38 -6 -43 -12z"/>
<path d="M3910 2521 l-25 -20 48 -20 c27 -12 52 -21 56 -21 3 0 13 -9 21 -20
10 -14 16 -16 22 -7 39 61 -62 135 -122 88z"/>
<path d="M1276 2515 c3 -11 11 -36 16 -55 6 -19 13 -30 15 -23 2 6 -5 31 -16
55 -12 24 -18 34 -15 23z"/>
<path d="M4128 2503 c-25 -6 -22 -30 5 -47 19 -13 28 -13 62 -1 l40 13 -27 11
c-33 12 -38 26 -7 16 15 -5 19 -4 15 4 -7 11 -54 13 -88 4z"/>
<path d="M5038 2503 c7 -3 16 -2 19 1 4 3 -2 6 -13 5 -11 0 -14 -3 -6 -6z"/>
<path d="M4 2465 c1 -38 24 -65 37 -44 6 9 4 15 -6 17 -11 3 -12 7 -3 22 8 13
16 16 24 9 14 -11 46 -1 41 14 -1 5 -23 10 -48 11 -45 1 -46 0 -45 -29z"/>
<path d="M330 2460 c0 -5 5 -10 11 -10 5 0 7 5 4 10 -3 6 -8 10 -11 10 -2 0
-4 -4 -4 -10z"/>
<path d="M2263 2447 c-7 -7 -19 -18 -28 -25 -34 -29 -3 -52 71 -52 18 0 24 -6
24 -22 1 -20 4 -18 20 12 28 51 26 76 -8 88 -19 6 -35 6 -47 0 -13 -8 -16 -7
-11 1 9 15 -6 13 -21 -2z"/>
<path d="M2710 2414 c0 -77 10 -114 30 -114 22 0 43 72 30 104 -6 17 -9 11
-15 -32 -10 -72 -24 -75 -23 -5 1 32 -4 67 -10 78 -10 17 -11 12 -12 -31z"/>
<path d="M4775 2430 l-28 -29 24 -10 c13 -5 29 -7 34 -4 6 2 1 -3 -9 -11 -23
-19 -15 -20 36 -6 53 15 66 43 32 69 -36 28 -55 26 -89 -9z"/>
<path d="M4983 2453 c-17 -6 -6 -54 15 -70 9 -7 25 -13 36 -12 21 0 21 1 1 9
-17 6 -14 9 18 15 48 9 47 22 -3 30 -22 4 -40 11 -40 16 0 13 44 11 58 -3 8
-8 12 -8 12 -1 0 20 -63 30 -97 16z"/>
<path d="M1002 2430 c-6 -11 -12 -27 -12 -35 0 -21 20 -19 21 3 0 14 2 14 8
-3 5 -11 6 -24 4 -28 -7 -12 40 14 49 26 4 6 12 4 23 -6 20 -21 25 -21 25 -2
0 8 -21 22 -50 32 -31 11 -45 20 -37 25 9 6 8 8 -3 8 -8 0 -21 -9 -28 -20z"/>
<path d="M71 2419 c-10 -17 -10 -20 1 -13 7 5 21 7 32 5 10 -1 15 2 12 7 -3 6
2 13 11 15 14 4 13 5 -4 6 -13 0 -23 -5 -23 -11 0 -10 -2 -10 -8 -1 -6 9 -11
6 -21 -8z"/>
<path d="M155 2431 c-3 -5 -2 -12 3 -15 5 -3 9 1 9 9 0 17 -3 19 -12 6z"/>
<path d="M1300 2395 c0 -14 2 -25 4 -25 2 0 6 11 8 25 3 14 1 25 -3 25 -5 0
-9 -11 -9 -25z"/>
<path d="M2477 2414 c-15 -15 -6 -32 18 -36 17 -4 29 0 36 11 7 12 12 13 15 4
3 -7 11 -13 17 -13 7 0 5 6 -3 15 -18 17 -72 30 -83 19z"/>
<path d="M4004 2379 c-16 -26 57 -46 85 -23 9 8 -13 25 -26 20 -8 -3 -23 -1
-33 4 -13 7 -21 7 -26 -1z"/>
<path d="M2794 2369 c-3 -5 -7 -43 -10 -86 -2 -43 -6 -97 -8 -121 -3 -40 -1
-45 32 -67 20 -14 42 -25 50 -25 16 0 83 -42 101 -64 7 -9 19 -16 25 -16 6 1
-2 11 -17 24 -16 13 -34 34 -41 47 -6 13 -21 25 -31 25 -11 1 -26 2 -32 3 -25
2 -13 40 20 64 73 55 93 60 207 52 147 -10 311 -8 324 5 5 5 22 10 37 10 16 0
49 11 75 25 26 14 57 25 70 25 23 0 54 40 69 88 l7 23 -436 -2 c-240 -1 -439
-6 -442 -10z"/>
<path d="M6111 2352 c-14 -34 -76 -72 -117 -72 -16 0 -42 -11 -59 -25 l-30
-26 34 20 c26 15 39 17 54 9 15 -8 18 -7 12 2 -6 10 -1 11 21 6 16 -4 26 -4
22 0 -8 7 59 58 76 59 13 0 20 25 7 25 -6 0 -8 7 -5 15 11 28 -3 15 -15 -13z"/>
<path d="M4880 2320 c0 -5 5 -10 10 -10 6 0 10 5 10 10 0 6 -4 10 -10 10 -5 0
-10 -4 -10 -10z"/>
<path d="M4932 2321 c2 -7 7 -12 11 -12 12 1 9 15 -3 20 -7 2 -11 -2 -8 -8z"/>
<path d="M2331 2303 c-6 -10 -11 -12 -11 -5 -1 44 -60 -61 -60 -108 0 -35 18
-13 25 31 4 22 13 43 21 46 22 8 27 -3 12 -29 -16 -28 -38 -209 -27 -222 9
-10 14 9 29 109 25 163 24 160 42 157 12 -2 15 3 11 18 -7 25 -28 26 -42 3z"/>
<path d="M2390 2301 c0 -5 7 -11 15 -15 9 -3 15 0 15 9 0 8 -7 15 -15 15 -8 0
-15 -4 -15 -9z"/>
<path d="M6102 2294 c-7 -8 -8 -14 -3 -14 10 0 25 19 20 25 -2 1 -10 -3 -17
-11z"/>
<path d="M5007 2271 c7 -36 9 -35 -41 -15 -7 3 -16 -2 -19 -10 -5 -11 0 -16
13 -16 13 0 17 -5 14 -15 -9 -23 4 -35 29 -26 12 5 21 12 20 17 0 5 3 16 7 25
6 10 2 25 -11 45 l-19 29 7 -34z"/>
<path d="M940 2280 c0 -5 7 -10 16 -10 8 0 12 5 9 10 -3 6 -10 10 -16 10 -5 0
-9 -4 -9 -10z"/>
<path d="M4068 2248 c-45 -80 -70 -138 -65 -150 2 -7 11 4 20 25 9 21 21 36
27 32 6 -3 9 4 8 17 -1 13 9 42 22 66 30 56 19 66 -12 10z"/>
<path d="M4848 2249 c-41 -21 -45 -28 -26 -47 9 -9 16 -4 30 19 14 23 24 30
39 26 12 -3 19 -1 16 6 -6 18 -20 17 -59 -4z"/>
<path d="M2762 2235 c0 -16 2 -22 5 -12 2 9 2 23 0 30 -3 6 -5 -1 -5 -18z"/>
<path d="M2376 2198 c-4 -18 -9 -69 -11 -113 -2 -44 -2 -69 1 -55 3 14 7 32
10 40 3 8 7 35 9 60 1 25 6 57 10 73 4 16 3 27 -3 27 -5 0 -12 -15 -16 -32z"/>
<path d="M2700 2209 c0 -11 4 -18 10 -14 5 3 7 12 3 20 -7 21 -13 19 -13 -6z"/>
<path d="M4873 2222 c-8 -5 -9 -13 -3 -22 7 -12 10 -12 16 3 8 21 3 29 -13 19z"/>
<path d="M4931 2220 c-1 -3 -14 -42 -30 -87 -29 -85 -33 -109 -8 -50 41 94 49
116 44 129 -3 7 -6 11 -6 8z"/>
<path d="M5845 2200 c-13 -6 -15 -9 -5 -9 8 0 22 4 30 9 18 12 2 12 -25 0z"/>
<path d="M5766 2158 c-8 -41 0 -49 14 -12 6 16 17 32 23 36 8 5 4 8 -9 8 -16
0 -23 -8 -28 -32z"/>
<path d="M2436 2158 c-3 -13 -1 -27 4 -32 7 -7 10 1 10 22 0 37 -5 41 -14 10z"/>
<path d="M4342 2140 c-18 -15 -21 -23 -13 -37 5 -10 13 -16 17 -13 15 10 26
-64 13 -85 -7 -11 -16 -37 -20 -58 -6 -36 -5 -38 15 -33 11 3 30 6 41 7 16 0
14 3 -7 11 -31 11 -36 33 -12 59 21 23 21 75 -1 99 -12 13 -15 27 -11 45 8 30
7 30 -22 5z"/>
<path d="M4060 2100 c-6 -11 -9 -29 -7 -38 4 -13 5 -13 6 4 0 11 6 25 13 32 6
6 9 14 6 18 -4 3 -12 -4 -18 -16z"/>
<path d="M4400 2109 c0 -5 5 -7 10 -4 6 3 10 8 10 11 0 2 -4 4 -10 4 -5 0 -10
-5 -10 -11z"/>
<path d="M6090 2090 c-9 -6 -10 -10 -3 -10 6 0 15 5 18 10 8 12 4 12 -15 0z"/>
<path d="M750 2075 c-7 -9 -8 -15 -2 -15 5 0 12 7 16 15 3 8 4 15 2 15 -2 0
-9 -7 -16 -15z"/>
<path d="M5678 2064 c24 -17 39 -14 27 5 -3 6 -16 11 -28 11 l-21 0 22 -16z"/>
<path d="M694 2048 c-4 -6 -2 -14 5 -16 9 -3 9 -7 0 -18 -6 -8 -7 -14 -2 -14
8 0 33 42 33 55 0 10 -29 4 -36 -7z"/>
<path d="M2422 2010 c0 -14 2 -19 5 -12 2 6 2 18 0 25 -3 6 -5 1 -5 -13z"/>
<path d="M2621 1983 c-29 -86 -96 -212 -113 -212 -9 -1 -20 -6 -24 -12 -4 -8
-9 -7 -15 2 -7 11 -9 10 -9 -3 0 -9 9 -20 20 -23 38 -12 52 -48 51 -134 -1
-106 6 -122 30 -76 11 19 19 47 19 63 0 15 9 61 21 102 11 41 22 110 25 155 2
44 6 101 9 128 2 26 3 47 2 47 -2 0 -9 -17 -16 -37z m-90 -260 c13 -16 12 -17
-3 -4 -10 7 -18 15 -18 17 0 8 8 3 21 -13z"/>
<path d="M6121 1996 c-9 -11 -6 -12 14 -8 14 2 25 8 25 13 0 14 -26 11 -39 -5z"/>
<path d="M4590 1980 c0 -5 5 -10 10 -10 6 0 10 5 10 10 0 6 -4 10 -10 10 -5 0
-10 -4 -10 -10z"/>
<path d="M711 1938 c-14 -23 -14 -23 8 -4 22 20 25 26 13 26 -4 0 -13 -10 -21
-22z"/>
<path d="M4206 1922 c35 -51 39 -53 18 -10 -9 20 -23 39 -30 42 -7 3 -1 -12
12 -32z"/>
<path d="M2250 1896 c0 -3 9 -20 20 -38 21 -35 18 -70 -7 -100 -8 -9 -13 -26
-11 -37 3 -18 10 -14 61 33 31 29 57 57 57 61 0 12 -50 55 -63 55 -7 0 -23 7
-35 16 -12 8 -22 13 -22 10z"/>
<path d="M6090 1896 c0 -2 7 -6 15 -10 8 -3 15 -1 15 4 0 6 -7 10 -15 10 -8 0
-15 -2 -15 -4z"/>
<path d="M6180 1843 c0 -16 -12 -17 -28 -1 -7 7 -12 8 -12 2 0 -18 46 -34 59
-21 9 9 11 3 8 -27 -4 -30 -1 -39 13 -43 21 -5 15 -53 -6 -53 -8 0 -14 -8 -14
-17 0 -16 2 -16 11 -3 8 12 12 12 16 2 11 -28 33 10 33 59 0 40 -3 49 -17 49
-17 1 -17 1 0 14 14 11 15 15 5 19 -10 4 -10 6 0 6 29 2 8 19 -28 23 -28 2
-40 0 -40 -9z"/>
<path d="M2196 1831 c-6 -10 22 -37 29 -29 8 7 -5 38 -15 38 -5 0 -11 -4 -14
-9z"/>
<path d="M1722 1780 c0 -19 2 -27 5 -17 2 9 2 25 0 35 -3 9 -5 1 -5 -18z"/>
<path d="M1867 1803 c-10 -9 -9 -73 1 -73 4 0 7 18 7 40 0 22 0 40 -1 40 0 0
-4 -3 -7 -7z"/>
<path d="M4155 1790 c3 -5 11 -10 16 -10 6 0 7 5 4 10 -3 6 -11 10 -16 10 -6
0 -7 -4 -4 -10z"/>
<path d="M5636 1767 c-16 -12 -15 -14 11 -37 19 -17 22 -19 10 -4 -17 21 -23
39 -9 31 4 -3 13 1 20 9 17 19 -7 20 -32 1z"/>
<path d="M3861 1746 l-23 -24 45 -7 c70 -11 91 12 37 40 -36 19 -32 19 -59 -9z"/>
<path d="M6156 1735 c7 -17 54 -21 54 -4 0 6 -9 9 -20 6 -11 -3 -20 -1 -20 4
0 5 -4 9 -10 9 -5 0 -7 -7 -4 -15z"/>
<path d="M4103 1725 c-17 -19 -16 -35 1 -35 8 0 20 -2 28 -3 7 -2 10 -2 6 0
-5 3 -5 16 -2 29 7 27 -13 33 -33 9z"/>
<path d="M5068 1723 c7 -3 16 -2 19 1 4 3 -2 6 -13 5 -11 0 -14 -3 -6 -6z"/>
<path d="M1880 1701 c-15 -29 -13 -31 24 -31 46 0 54 16 17 35 -28 14 -31 14
-41 -4z"/>
<path d="M5148 1713 c7 -3 16 -2 19 1 4 3 -2 6 -13 5 -11 0 -14 -3 -6 -6z"/>
<path d="M1445 1653 c7 -27 18 -62 23 -80 11 -35 8 -43 -20 -43 -12 0 -17 5
-13 13 4 6 -5 -1 -19 -16 -14 -15 -26 -32 -26 -38 0 -5 37 -8 85 -7 47 1 85 5
85 10 0 4 -6 5 -13 2 -18 -7 -48 60 -54 121 -4 33 -13 56 -26 68 -32 27 -36
21 -22 -30z"/>
<path d="M6140 1645 c-11 -13 -7 -15 29 -15 30 0 41 -4 41 -15 0 -8 -5 -15
-11 -15 -8 0 -8 -5 1 -15 7 -8 16 -12 21 -9 5 3 9 0 9 -5 0 -6 -7 -11 -16 -11
-8 0 -13 -4 -10 -9 3 -4 17 -6 31 -3 20 3 23 7 14 18 -8 10 -8 14 0 14 6 0 11
16 11 38 l0 37 -54 3 c-38 2 -57 -2 -66 -13z m97 -39 c-4 -9 -12 -16 -18 -16
-8 0 -8 4 1 15 6 8 8 20 4 27 -5 10 -4 10 6 1 7 -6 10 -19 7 -27z"/>
<path d="M0 1609 c0 -5 5 -7 10 -4 5 3 10 8 10 11 0 2 -4 4 -10 4 -5 0 -10 -5
-10 -11z"/>
<path d="M6242 1521 c-10 -6 -10 -10 3 -21 13 -11 15 -9 15 9 0 24 0 24 -18
12z"/>
<path d="M6156 1508 c7 -11 34 -10 34 1 0 6 -9 9 -19 8 -11 0 -17 -5 -15 -9z"/>
<path d="M3070 1490 c0 -5 4 -10 9 -10 6 0 13 5 16 10 3 6 -1 10 -9 10 -9 0
-16 -4 -16 -10z"/>
<path d="M6180 1470 c-9 -16 -8 -20 5 -20 8 0 14 5 13 12 -5 20 35 22 49 2 11
-15 13 -15 13 -2 0 32 -64 38 -80 8z"/>
<path d="M3032 1458 c-7 -7 -12 -16 -12 -22 0 -6 5 -5 11 1 6 6 18 9 25 6 8
-3 14 1 14 11 0 19 -21 21 -38 4z"/>
<path d="M2004 1425 c0 -14 6 -25 13 -25 6 0 9 9 6 20 -8 30 -21 33 -19 5z"/>
<path d="M1837 1419 c7 -7 15 -10 18 -7 3 3 -2 9 -12 12 -14 6 -15 5 -6 -5z"/>
<path d="M3053 1423 c-13 -2 -23 -9 -23 -15 0 -7 14 -8 43 -2 23 4 57 8 75 8
20 0 28 2 20 8 -13 8 -76 9 -115 1z"/>
<path d="M6210 1419 c0 -5 5 -7 10 -4 6 3 10 8 10 11 0 2 -4 4 -10 4 -5 0 -10
-5 -10 -11z"/>
<path d="M3211 1403 c-2 -36 -12 -53 -35 -53 -19 -1 -19 -2 -3 -11 22 -13 5
-49 -24 -49 -16 0 -18 -2 -7 -14 11 -12 16 -11 35 6 22 21 49 108 40 130 -3 7
-6 3 -6 -9z"/>
<path d="M6140 1409 c0 -5 5 -7 10 -4 6 3 10 8 10 11 0 2 -4 4 -10 4 -5 0 -10
-5 -10 -11z"/>
<path d="M3018 1385 c-4 -4 -2 -19 3 -33 5 -14 7 -38 4 -53 -3 -15 -2 -30 3
-33 5 -3 9 2 8 12 -1 14 6 17 39 15 l40 -2 -37 10 c-48 14 -51 39 -5 40 17 0
41 4 52 9 15 6 8 9 -29 9 -32 1 -53 6 -60 17 -6 8 -15 12 -18 9z"/>
<path d="M6220 1365 c0 -17 5 -25 18 -25 13 0 14 2 3 9 -7 5 -9 10 -3 12 6 2
4 9 -4 17 -12 11 -14 9 -14 -13z"/>
<path d="M3126 1235 c-11 -8 -15 -15 -9 -15 6 0 16 7 23 15 16 19 11 19 -14 0z"/>
<path d="M5165 1220 c-16 -7 -11 -9 22 -9 23 -1 45 4 48 9 8 12 -42 12 -70 0z"/>
<path d="M5848 1153 c12 -2 32 -2 45 0 12 2 2 4 -23 4 -25 0 -35 -2 -22 -4z"/>
<path d="M5963 1153 c9 -2 23 -2 30 0 6 3 -1 5 -18 5 -16 0 -22 -2 -12 -5z"/>
<path d="M100 1080 c0 -5 6 -10 14 -10 8 0 18 5 21 10 3 6 -3 10 -14 10 -12 0
-21 -4 -21 -10z"/>
<path d="M283 1073 c9 -2 23 -2 30 0 6 3 -1 5 -18 5 -16 0 -22 -2 -12 -5z"/>
<path d="M389 1065 c37 -17 71 -20 71 -6 0 9 -49 21 -84 21 -16 -1 -13 -4 13
-15z"/>
<path d="M6236 171 c-3 -5 1 -11 9 -15 9 -3 15 0 15 9 0 16 -16 20 -24 6z"/>
</g>
</svg>
