<?xml version="1.0" standalone="no"?>
<!DOCTYPE svg PUBLIC "-//W3C//DTD SVG 20010904//EN"
 "http://www.w3.org/TR/2001/REC-SVG-20010904/DTD/svg10.dtd">
<svg version="1.0" xmlns="http://www.w3.org/2000/svg"
 width="352.000000pt" height="301.000000pt" viewBox="0 0 352.000000 301.000000"
 preserveAspectRatio="xMidYMid meet">

<g transform="translate(0.000000,301.000000) scale(0.100000,-0.100000)"
fill="#000000" stroke="none">
<path d="M800 2984 c6 -14 15 -34 21 -45 8 -16 5 -27 -11 -55 -26 -40 -45 -52
-119 -71 -31 -8 -72 -18 -91 -23 -19 -5 -66 -10 -105 -10 -117 -1 -124 -20
-54 -145 70 -126 90 -190 90 -289 -1 -103 -6 -129 -37 -193 -20 -41 -37 -60
-81 -87 -31 -20 -76 -38 -102 -42 -25 -4 -54 -8 -63 -10 -20 -3 -188 13 -224
22 -22 6 -24 3 -24 -32 l0 -39 93 -23 c140 -34 206 -30 303 17 96 46 177 117
205 179 19 41 21 59 17 181 -6 153 -21 215 -76 299 -45 70 -38 77 83 85 77 5
109 12 163 37 113 53 155 123 137 229 l-7 41 -64 0 -64 0 10 -26z"/>
<path d="M1034 2988 c8 -44 11 -53 21 -60 6 -5 5 -8 -4 -8 -11 0 -11 -3 0 -17
8 -9 9 -14 3 -10 -12 7 -26 -24 -32 -69 -3 -19 -64 -89 -74 -86 -6 2 -8 -6 -5
-18 3 -11 1 -17 -4 -14 -6 3 -16 0 -25 -6 -12 -10 -12 -16 -2 -28 10 -13 10
-14 1 -8 -8 4 -13 2 -13 -4 0 -6 -4 -8 -10 -5 -5 3 -10 1 -10 -5 0 -6 -5 -8
-10 -5 -7 4 -9 -3 -6 -20 4 -23 2 -26 -14 -22 -11 3 -19 2 -18 -2 2 -18 -4
-21 -22 -11 -35 19 -40 -23 -38 -278 l3 -237 85 -30 c79 -28 107 -44 149 -86
15 -14 19 -12 56 28 24 27 52 46 70 49 16 3 34 9 40 14 17 14 79 16 90 3 6 -7
22 -14 38 -16 15 -1 34 -13 43 -25 8 -12 20 -22 26 -22 10 0 110 80 151 120
72 71 90 92 112 131 14 24 28 52 31 62 4 9 11 17 16 17 5 0 6 5 3 10 -3 6 1
10 9 10 9 0 13 -6 10 -14 -3 -8 0 -17 7 -22 8 -5 10 -3 4 6 -5 9 -4 11 4 6 8
-5 7 -15 -6 -36 -9 -16 -20 -27 -25 -24 -4 3 -8 1 -8 -5 0 -6 -11 -20 -24 -33
-15 -15 -26 -40 -30 -69 -6 -43 -4 -49 27 -83 36 -38 67 -46 87 -21 14 17 5
35 -19 35 -39 0 -56 51 -23 69 15 8 26 2 57 -32 22 -23 39 -50 40 -62 0 -31
55 -32 91 -1 22 17 34 22 46 15 23 -13 78 40 78 76 0 22 4 26 20 22 10 -3 19
-2 18 2 -3 23 6 31 32 31 24 0 33 -6 41 -27 32 -79 61 -133 87 -159 45 -46 71
-64 77 -54 4 6 -1 13 -9 16 -25 10 -18 38 13 56 20 11 31 26 33 45 3 24 7 28
31 25 20 -2 29 3 37 20 12 29 51 78 48 59 -2 -8 5 -17 16 -19 10 -2 16 0 13 6
-9 14 18 46 32 38 7 -5 9 -20 5 -42 -5 -25 -3 -34 8 -34 23 0 58 30 58 51 0
12 10 23 25 29 16 6 23 15 19 24 -3 9 3 26 13 40 17 21 22 22 43 11 14 -7 28
-11 32 -9 5 3 8 -1 8 -8 0 -9 3 -9 10 2 7 11 10 -2 10 -42 0 -62 7 -71 29 -36
13 21 14 21 27 3 10 -13 11 -22 3 -32 -12 -13 -4 -83 9 -83 4 0 19 8 32 17 14
10 35 16 46 15 12 -2 25 1 28 7 4 6 24 15 45 21 25 6 42 18 49 35 10 21 15 24
30 16 10 -6 28 -8 38 -5 27 7 42 -28 55 -128 15 -106 8 -483 -8 -499 -21 -21
-94 -25 -163 -10 -36 8 -68 18 -71 24 -4 5 -9 3 -12 -4 -4 -10 -6 -9 -6 4 -1
15 -18 22 -43 18 -5 0 -8 3 -8 9 0 6 -5 9 -11 8 -6 -2 -13 16 -15 41 -2 24 -9
50 -15 57 -13 15 -39 7 -39 -12 0 -19 -40 -58 -62 -59 -24 -2 -23 10 3 21 19
9 18 11 -14 26 -34 16 -36 16 -57 -2 -13 -11 -28 -17 -34 -14 -6 3 -2 -2 8
-10 11 -9 30 -16 43 -16 13 0 23 -4 23 -9 0 -5 15 -14 33 -21 87 -33 107 -60
67 -92 -12 -10 -19 -18 -16 -18 4 0 -1 -11 -10 -24 -8 -14 -15 -27 -15 -30 2
-17 -13 -35 -23 -29 -6 3 -8 3 -4 -2 4 -4 27 -9 50 -11 24 -2 61 -6 83 -10 46
-7 59 -7 101 1 21 5 34 2 43 -9 17 -20 28 -20 46 -2 10 10 37 14 85 14 41 -1
76 4 83 11 15 15 57 14 58 -1 1 -7 2 -17 4 -23 1 -5 3 -13 3 -17 1 -4 18 3 37
17 30 19 41 22 68 14 17 -5 45 -9 60 -9 16 0 35 -6 42 -14 8 -7 24 -13 37 -12
22 1 23 6 30 96 4 52 7 415 5 807 -2 641 -4 714 -18 728 -15 15 -17 15 -23 -9
-8 -32 -23 -34 -28 -3 l-3 22 -288 3 c-278 3 -289 2 -294 -17 -5 -19 -18 -22
-39 -8 -21 13 -108 20 -282 23 -149 3 -173 1 -168 -11 6 -17 -19 -21 -30 -4
-3 6 -20 9 -36 7 -16 -3 -31 -1 -34 4 -3 4 -145 8 -315 8 -304 0 -341 -3 -360
-33 -4 -5 -30 -12 -58 -15 -42 -4 -51 -2 -51 12 0 17 13 20 71 17 20 -2 40 3
44 9 5 8 -14 10 -67 8 -68 -3 -73 -5 -76 -26 -2 -13 -9 -21 -15 -19 -7 2 -11
14 -9 25 4 29 -33 30 -50 2 -21 -32 -54 -25 -50 11 1 4 -21 7 -48 7 -36 0 -50
-4 -50 -14 0 -8 -10 -14 -25 -14 -18 0 -23 4 -19 15 5 13 -7 15 -75 15 -79 0
-81 -1 -77 -22z m1543 4 c13 -8 2 -35 -13 -31 -5 2 -19 -1 -32 -5 -31 -10 -35
-5 -16 22 15 22 39 28 61 14z m388 -12 c3 -5 -1 -10 -10 -10 -9 0 -13 5 -10
10 3 6 8 10 10 10 2 0 7 -4 10 -10z m-1037 -26 c6 -2 12 -13 12 -24 0 -18 -3
-19 -22 -9 -13 7 -29 15 -37 19 -8 3 -17 12 -19 19 -4 11 20 10 66 -5z m52 6
c0 -5 -7 -10 -15 -10 -8 0 -15 5 -15 10 0 6 7 10 15 10 8 0 15 -4 15 -10z
m255 -10 c-21 -8 -35 -4 -35 9 0 5 12 6 27 3 24 -5 25 -6 8 -12z m47 -12 c-15
-15 -26 -4 -18 18 5 13 9 15 18 6 9 -9 9 -15 0 -24z m641 17 c-4 -15 -36 -12
-41 3 -3 9 3 13 19 10 13 -1 23 -7 22 -13z m-305 -24 c-18 -23 -31 -30 -40
-25 -21 13 13 57 38 47 12 -4 12 -8 2 -22z m697 20 c3 -5 -2 -17 -11 -26 -15
-15 -18 -15 -35 1 -10 9 -16 21 -13 25 7 12 51 11 59 0z m-1245 -21 c0 -10 8
-21 17 -24 12 -5 14 -9 5 -18 -9 -9 -18 -6 -36 11 -16 15 -32 22 -45 18 -11
-3 -22 1 -25 8 -7 18 -3 20 43 21 33 1 41 -2 41 -16z m-707 -24 l28 -20 -33
-32 c-31 -30 -54 -38 -102 -35 -14 1 -17 6 -12 24 4 12 9 34 11 50 2 15 7 32
10 37 8 14 66 0 98 -24z m481 -4 c2 -4 -7 -8 -22 -9 -24 -2 -24 -1 -7 7 11 5
21 9 22 9 1 1 4 -3 7 -7z m536 -8 c0 -2 -12 -4 -27 -4 -21 0 -24 3 -14 9 13 8
41 5 41 -5z m-425 -23 c-5 -16 -13 -21 -30 -18 -14 1 -28 7 -32 12 -4 4 -2 5
5 1 6 -4 12 -2 12 3 0 6 9 11 20 11 11 0 20 5 20 12 0 6 3 9 6 5 3 -3 3 -15
-1 -26z m247 9 c12 -11 19 -23 15 -26 -4 -4 -19 5 -33 19 -31 31 -14 37 18 7z
m808 -60 c23 -19 24 -21 7 -31 -20 -12 -14 -31 8 -23 9 4 13 -1 11 -13 -4 -26
-51 -25 -51 2 0 11 -10 39 -23 62 -28 54 -28 74 1 45 12 -12 33 -31 47 -42z
m-700 46 c0 -3 -4 -8 -10 -11 -5 -3 -10 -1 -10 4 0 6 5 11 10 11 6 0 10 -2 10
-4z m550 -77 l19 -36 -50 5 -50 5 3 -39 c3 -36 6 -40 43 -52 28 -9 45 -10 56
-3 21 12 29 5 29 -27 0 -27 -72 -133 -132 -195 -34 -35 -41 -39 -73 -33 -20 4
-35 13 -35 21 0 8 -9 19 -20 25 -11 6 -20 18 -20 27 0 13 -3 14 -12 5 -18 -18
-38 -14 -38 6 0 11 -9 27 -20 37 -11 10 -20 13 -20 7 0 -7 -7 -12 -15 -12 -24
0 -17 28 8 32 17 2 23 10 25 39 3 30 6 36 22 32 14 -4 19 1 22 24 3 25 7 29
48 33 25 3 51 9 58 13 17 11 15 56 -2 63 -21 8 -28 34 -13 48 6 6 30 19 52 27
36 14 43 14 68 0 16 -9 37 -32 47 -52z m450 35 c0 -18 -24 -18 -39 0 -10 11
-8 15 6 18 23 6 33 0 33 -18z m-1022 -13 c3 -8 -1 -12 -9 -9 -7 2 -15 10 -17
17 -3 8 1 12 9 9 7 -2 15 -10 17 -17z m90 -19 c2 -7 -3 -12 -12 -12 -9 0 -16
7 -16 16 0 17 22 14 28 -4z m-186 -21 c63 -27 120 -116 87 -137 -8 -5 -6 -10
5 -16 19 -11 21 -35 4 -40 -9 -3 -9 -12 1 -36 7 -18 17 -32 22 -32 12 0 11
-51 -1 -70 -5 -8 -24 -15 -42 -15 -30 0 -33 -3 -36 -32 -3 -34 6 -40 37 -24
15 9 14 3 -6 -40 -23 -48 -25 -49 -67 -49 -35 0 -50 6 -78 33 -19 17 -38 46
-41 62 -4 17 -15 60 -25 96 -10 36 -17 74 -16 85 8 58 16 84 24 84 5 0 14 18
20 40 6 22 14 40 18 40 4 0 9 12 10 27 2 24 16 42 34 43 3 0 26 -8 50 -19z
m318 9 c0 -5 -9 -10 -20 -10 -11 0 -20 5 -20 10 0 6 9 10 20 10 11 0 20 -4 20
-10z m955 -50 c0 -7 -6 -15 -12 -17 -8 -3 -13 4 -13 17 0 13 5 20 13 18 6 -3
12 -11 12 -18z m-92 -7 c14 -16 14 -20 -4 -42 -25 -31 -42 -17 -33 27 7 36 14
39 37 15z m-1563 -8 c0 -17 -43 -31 -61 -19 -9 5 -7 11 6 21 25 17 55 17 55
-2z m-97 -82 c22 -4 25 -8 16 -19 -10 -12 -15 -12 -31 3 -19 17 -20 17 -33 0
-6 -9 -20 -17 -29 -17 -13 0 -15 4 -7 19 6 10 7 22 3 26 -4 4 7 5 23 1 17 -4
42 -10 58 -13z m737 -83 c0 -5 -2 -10 -4 -10 -3 0 -8 5 -11 10 -3 6 -1 10 4
10 6 0 11 -4 11 -10z m915 -20 c10 -1 -24 -30 -34 -30 -3 0 -13 5 -21 10 -13
8 -13 11 -1 19 7 5 21 7 30 6 9 -2 21 -4 26 -5z m-435 -25 c7 -8 16 -12 22 -9
5 3 6 -5 2 -20 -4 -15 -1 -32 6 -41 22 -27 4 -48 -35 -42 -20 3 -37 1 -41 -5
-5 -7 -2 -8 6 -3 8 5 11 4 7 -3 -4 -5 -16 -8 -27 -5 -12 3 -20 0 -20 -7 0 -9
-3 -10 -13 -1 -10 8 -14 7 -14 -4 0 -8 4 -15 8 -15 5 0 6 -6 3 -14 -8 -21 -66
-47 -80 -35 -6 5 -14 5 -19 1 -4 -4 -2 3 4 16 7 13 19 26 27 29 8 3 14 19 14
39 0 30 3 34 25 34 14 0 24 3 23 8 -3 10 21 52 30 52 5 0 16 -17 26 -37 l18
-38 15 43 c13 41 13 45 -4 58 -10 7 -13 14 -7 14 6 0 17 -7 24 -15z m70 -99
c0 -3 -4 -8 -10 -11 -5 -3 -10 -1 -10 4 0 6 5 11 10 11 6 0 10 -2 10 -4z m403
-12 c10 -11 -5 -34 -22 -34 -9 1 -27 8 -41 16 -24 14 -24 15 -3 11 13 -3 26
-1 29 4 6 10 28 12 37 3z m-403 -129 c0 -24 -28 -48 -46 -41 -12 4 -14 13 -9
29 4 12 8 33 10 47 2 14 4 27 4 29 2 11 41 -50 41 -64z m440 24 c0 -14 -5 -19
-17 -17 -26 5 -29 38 -4 38 15 0 21 -6 21 -21z m-1080 -89 c-9 -6 -19 -5 -25
1 -6 6 -5 13 5 19 9 6 19 5 25 -1 6 -6 5 -13 -5 -19z m1000 -20 c0 -5 -4 -10
-10 -10 -5 0 -10 5 -10 10 0 6 5 10 10 10 6 0 10 -4 10 -10z m-1575 -19 c8
-14 -10 -22 -30 -15 -13 5 -14 8 -3 15 17 11 26 11 33 0z m1585 -11 c0 -5 -2
-10 -4 -10 -3 0 -8 5 -11 10 -3 6 -1 10 4 10 6 0 11 -4 11 -10z m-120 -617
c14 -5 -9 -16 -61 -28 -20 -4 -42 9 -45 27 -1 9 11 12 45 10 25 -2 53 -6 61
-9z m119 -22 c11 -7 11 -10 0 -17 -29 -18 -69 -8 -69 17 0 11 51 11 69 0z
m-199 -21 c0 -4 -7 -10 -15 -14 -10 -4 -15 1 -15 14 0 13 5 18 15 14 8 -4 15
-10 15 -14z m256 -12 c4 -7 3 -8 -4 -4 -7 4 -12 2 -12 -5 0 -7 -3 -10 -6 -6
-6 5 3 27 11 27 2 0 7 -5 11 -12z m54 -14 c0 -17 -4 -23 -12 -18 -8 5 -9 2 -5
-9 3 -9 3 -18 -1 -21 -4 -3 -8 4 -9 14 -1 11 2 22 7 25 5 3 7 12 3 20 -3 8 0
15 6 15 6 0 11 -12 11 -26z m-100 -22 c0 -5 -7 -9 -15 -9 -8 0 -15 4 -15 9 0
4 7 8 15 8 8 0 15 -4 15 -8z m46 -5 c4 -4 0 -7 -9 -7 -9 0 -18 4 -21 9 -7 10
20 9 30 -2z"/>
<path d="M1320 2870 c-13 -8 -12 -10 3 -10 9 0 17 5 17 10 0 12 -1 12 -20 0z"/>
<path d="M2702 2618 c3 -7 22 -14 42 -16 28 -2 37 0 34 10 -3 7 -22 14 -42 16
-28 2 -37 0 -34 -10z"/>
<path d="M2715 2562 c-11 -1 -30 -11 -43 -20 l-22 -17 25 -28 c36 -38 96 -39
114 -1 10 22 9 30 -4 44 -18 20 -40 27 -70 22z"/>
<path d="M2142 2598 c7 -20 58 -23 58 -4 0 11 -10 16 -31 16 -20 0 -29 -4 -27
-12z"/>
<path d="M2790 3006 c0 -2 7 -6 15 -10 8 -3 15 -1 15 4 0 6 -7 10 -15 10 -8 0
-15 -2 -15 -4z"/>
<path d="M2334 2013 c9 -23 -12 -83 -40 -113 -17 -18 -26 -45 -33 -92 -5 -36
-17 -77 -26 -91 -9 -14 -17 -40 -17 -59 0 -18 -4 -40 -8 -48 -4 -8 -10 -55
-13 -104 -3 -49 -10 -93 -16 -99 -6 -6 -11 -38 -11 -71 1 -67 13 -60 24 12 4
24 13 53 20 65 8 12 12 30 11 40 -2 10 3 21 11 24 8 3 14 15 14 27 0 31 14 48
41 51 13 1 27 3 31 4 3 0 4 10 1 21 -6 23 14 53 30 43 5 -3 7 -1 3 5 -3 6 -2
13 3 16 11 7 9 24 -6 51 -8 15 -8 26 2 44 7 15 10 36 5 55 -3 17 -3 42 0 56 7
29 3 157 -5 171 -10 16 -27 10 -21 -8z"/>
<path d="M1165 2000 c-49 -23 -65 -37 -88 -73 -28 -44 -44 -44 -90 1 -76 75
-207 103 -285 61 -69 -37 -90 -125 -56 -239 17 -58 12 -70 -33 -70 -101 -1
-137 -107 -55 -163 41 -29 83 -38 89 -20 2 6 -12 16 -31 23 -40 13 -66 43 -66
76 0 32 21 44 95 57 36 6 65 16 65 23 0 6 -11 32 -24 57 -44 83 -37 177 17
219 26 21 116 24 168 6 31 -10 110 -64 117 -79 2 -4 14 -20 27 -35 l24 -28 19
20 c11 11 23 30 27 43 3 12 22 38 41 59 32 36 36 37 100 37 65 0 67 -1 100
-40 66 -78 39 -184 -77 -297 -38 -37 -69 -74 -69 -81 0 -14 74 -67 94 -67 12
0 46 -32 60 -57 17 -30 -70 -105 -136 -117 -32 -5 -119 15 -186 44 -74 32 -86
20 -90 -92 -3 -93 -15 -134 -43 -143 -23 -7 -58 2 -77 21 -7 7 -21 19 -30 26
-23 18 -62 74 -62 91 0 7 -5 18 -11 24 -6 6 -13 38 -16 72 -7 73 -23 81 -23
11 0 -66 40 -160 96 -227 31 -37 33 -38 100 -38 l67 0 12 50 c6 28 12 77 14
110 1 33 6 63 10 68 4 4 25 0 47 -10 29 -13 67 -17 151 -18 108 0 112 1 155
30 38 27 43 36 46 74 3 46 -8 63 -58 89 -52 26 -95 57 -98 70 -1 7 18 21 43
32 25 11 59 34 75 52 34 37 80 145 80 189 0 40 -51 148 -70 149 -8 0 -24 7
-34 15 -27 20 -83 18 -131 -5z"/>
<path d="M1680 1964 c0 -7 -14 -25 -31 -41 -17 -15 -43 -39 -57 -53 -29 -27
-39 -30 -61 -16 -9 6 -12 5 -7 -2 3 -6 1 -14 -5 -18 -8 -4 -9 -3 -5 4 4 7 3
12 -3 12 -6 0 -8 8 -5 18 5 14 4 14 -4 2 -6 -8 -8 -18 -6 -22 3 -4 0 -8 -5 -8
-6 0 -11 -10 -11 -22 0 -12 -7 -29 -15 -38 -12 -14 -14 -32 -9 -88 4 -39 10
-70 13 -68 3 2 7 -6 8 -17 0 -12 7 -35 14 -52 16 -38 14 -32 23 -87 5 -27 11
-48 15 -48 3 0 15 17 26 38 11 20 27 48 37 61 10 13 18 36 18 51 0 15 6 40 14
55 10 18 13 47 9 90 -5 70 14 140 51 190 13 17 28 39 34 51 9 18 8 20 -14 20
-13 0 -24 -5 -24 -12z"/>
<path d="M1179 1927 c-31 -12 -56 -50 -67 -103 -10 -51 -52 -83 -85 -65 -13 7
-31 25 -40 40 -31 53 -73 90 -120 105 -64 21 -84 20 -98 -6 -13 -23 -5 -156
10 -171 5 -5 21 3 36 17 48 44 157 48 170 6 4 -11 10 -18 15 -15 9 6 31 -18
34 -37 1 -7 5 -19 10 -26 15 -24 35 -112 25 -112 -5 0 -9 -7 -9 -15 0 -8 -4
-15 -10 -15 -5 0 -10 -7 -10 -15 0 -8 -13 -29 -30 -47 -16 -17 -30 -32 -30
-34 0 -7 58 -33 83 -38 14 -2 35 -10 47 -16 14 -8 20 -8 16 -1 -4 6 7 5 26 -3
51 -21 79 -15 99 21 20 36 16 43 -40 61 -18 7 -44 23 -56 36 -13 14 -26 22
-29 19 -3 -4 -6 14 -6 38 0 25 4 49 10 55 5 5 11 22 12 36 2 26 26 42 56 39 7
-1 15 5 18 14 3 8 16 15 29 15 20 0 23 6 30 58 3 31 11 74 18 96 10 35 9 40
-12 57 -25 21 -61 23 -102 6z"/>
<path d="M1543 1865 c0 -8 4 -12 9 -9 5 3 6 10 3 15 -9 13 -12 11 -12 -6z"/>
<path d="M3 1749 c0 -66 2 -88 10 -80 18 18 22 145 5 159 -13 10 -15 -1 -15
-79z"/>
<path d="M2580 1802 c0 -10 100 -25 109 -17 10 10 -10 18 -59 22 -27 2 -50 0
-50 -5z"/>
<path d="M2635 1730 c-5 -9 18 -20 41 -20 8 0 14 4 14 9 0 11 -49 21 -55 11z"/>
<path d="M2940 1675 c0 -2 7 -8 15 -15 12 -10 15 -10 15 2 0 8 -7 15 -15 15
-8 0 -15 -1 -15 -2z"/>
<path d="M0 1621 c0 -14 10 -20 40 -25 33 -5 60 -27 60 -49 0 -11 -45 -53 -68
-63 -26 -12 -26 -12 -4 -13 35 -1 80 29 91 60 14 42 -6 70 -66 90 -51 17 -53
17 -53 0z"/>
<path d="M2573 1514 c-7 -18 11 -39 26 -30 17 11 13 46 -4 46 -9 0 -18 -7 -22
-16z"/>
<path d="M776 1493 c-3 -3 -6 -52 -6 -107 0 -111 17 -158 60 -169 12 -3 19 -3
16 0 -3 3 -1 14 5 24 5 11 11 42 13 69 2 28 9 57 15 64 18 22 21 52 5 54 -8 1
-21 3 -29 4 -8 1 -13 4 -11 7 5 9 -60 61 -68 54z"/>
<path d="M1391 1356 c-13 -15 -4 -26 21 -26 21 0 24 25 4 33 -8 3 -19 0 -25
-7z"/>
<path d="M2923 1276 c-3 -5 -1 -6 4 -3 6 4 23 -5 38 -19 15 -14 30 -23 33 -19
3 3 -4 12 -16 21 -12 8 -20 19 -17 24 3 5 -4 8 -16 7 -11 -1 -23 -6 -26 -11z"/>
<path d="M3150 1275 c0 -8 -7 -18 -16 -22 -14 -5 -12 -8 7 -19 28 -15 79 -18
79 -5 0 6 -10 17 -22 26 -13 8 -22 19 -20 23 2 4 -4 8 -12 10 -9 2 -16 -3 -16
-13z"/>
<path d="M3070 1256 c0 -10 9 -16 21 -16 24 0 21 23 -4 28 -10 2 -17 -3 -17
-12z"/>
<path d="M1015 1240 c3 -6 2 -10 -3 -10 -5 0 -9 -8 -9 -17 0 -58 -5 -81 -20
-99 -16 -17 -18 -26 -14 -58 0 -5 9 -2 18 5 14 12 16 12 8 0 -6 -11 -4 -13 8
-8 9 3 19 2 22 -4 4 -5 11 -7 16 -4 5 4 9 1 9 -5 0 -6 4 -9 9 -6 5 3 20 -3 32
-15 13 -11 17 -18 9 -14 -8 4 -7 0 4 -9 21 -17 50 -7 73 23 9 13 14 14 24 4
18 -18 26 -16 32 7 4 15 0 20 -13 20 -40 0 -40 58 1 118 17 26 24 40 15 33 -9
-7 -22 -11 -31 -8 -18 7 -30 -10 -30 -43 -1 -15 -7 -26 -17 -28 -14 -3 -16 4
-12 38 6 51 -8 70 -52 70 -18 0 -44 4 -59 10 -17 7 -24 7 -20 0z"/>
<path d="M2147 1230 c-27 -26 -27 -47 0 -102 27 -56 29 -78 8 -78 -21 0 -18
-12 11 -39 14 -13 32 -38 41 -55 17 -33 31 -46 49 -46 8 0 9 14 2 48 -13 70
-14 75 -25 102 -6 14 -8 29 -5 34 3 5 -10 22 -28 38 -30 25 -33 34 -31 73 1
25 1 45 -1 44 -2 0 -11 -8 -21 -19z"/>
<path d="M3376 1205 c-8 -23 22 -31 42 -11 9 9 11 16 5 16 -6 0 -18 3 -26 6
-8 3 -17 -2 -21 -11z"/>
<path d="M2071 1201 c-10 -6 -9 -10 3 -14 8 -3 18 -2 21 3 8 13 -9 20 -24 11z"/>
<path d="M2026 1192 c-3 -5 1 -9 9 -9 8 0 12 4 9 9 -3 4 -7 8 -9 8 -2 0 -6 -4
-9 -8z"/>
<path d="M3020 1180 c0 -5 6 -10 14 -10 8 0 18 5 21 10 3 6 -3 10 -14 10 -12
0 -21 -4 -21 -10z"/>
<path d="M2070 1130 c-6 -11 -9 -20 -8 -20 2 0 11 9 21 20 9 11 13 20 7 20 -5
0 -14 -9 -20 -20z"/>
<path d="M3483 1114 c-16 -16 -17 -44 -3 -44 13 0 23 24 18 43 -2 13 -5 13
-15 1z"/>
<path d="M3224 1105 c10 -8 24 -16 30 -18 7 -3 7 -9 -3 -21 -11 -13 -12 -22
-3 -42 10 -21 15 -23 32 -14 28 15 51 6 92 -38 20 -20 44 -43 54 -50 11 -7 14
-10 8 -8 -6 3 -27 -3 -47 -13 -20 -10 -34 -15 -31 -10 9 15 -23 10 -36 -6 -19
-22 -46 -18 -64 10 -10 15 -26 25 -40 25 -12 0 -31 9 -41 20 -25 28 -33 17
-27 -35 4 -38 1 -49 -17 -66 -12 -11 -19 -24 -17 -28 4 -6 -32 -7 -64 -2 -11
2 -30 87 -25 110 5 29 -19 61 -48 61 -16 0 -18 -5 -13 -26 5 -19 1 -30 -15
-43 -18 -15 -21 -27 -20 -81 1 -35 3 -66 6 -68 2 -3 21 -7 42 -9 42 -4 58 -15
58 -41 0 -11 9 -18 26 -20 23 -3 28 -9 32 -40 5 -43 -6 -62 -39 -62 -13 0 -27
-8 -33 -17 -9 -16 -11 -16 -20 7 -5 14 -10 20 -10 14 -1 -6 -12 -16 -25 -22
-13 -5 -26 -20 -29 -33 -4 -15 -3 -19 4 -12 14 14 80 -3 96 -24 6 -8 17 -13
24 -11 7 2 29 -3 48 -13 35 -17 37 -17 58 3 13 12 29 18 38 14 9 -3 28 0 43 8
34 17 113 29 121 19 4 -4 30 -21 60 -36 59 -31 75 -27 69 19 -3 26 -7 29 -39
30 -45 1 -108 40 -109 67 0 4 7 7 15 7 9 0 15 9 15 24 0 33 34 41 54 12 15
-20 16 -20 29 -3 8 9 22 17 31 17 12 0 16 9 15 43 -1 41 -15 114 -18 90 0 -7
-11 -10 -23 -8 -28 6 -43 21 -29 29 6 4 11 18 11 32 0 20 5 24 31 24 31 0 31
1 25 38 -3 20 -6 46 -6 57 -1 18 -2 17 -15 -5 l-15 -25 -6 23 c-3 12 -9 22
-13 22 -4 0 -17 9 -29 20 -12 12 -22 16 -22 10 0 -7 -12 -4 -30 7 -16 9 -30
25 -30 35 0 14 -6 16 -28 12 -22 -5 -31 0 -50 25 -12 17 -30 31 -40 31 -15 -1
-15 -2 2 -15z m84 -281 c2 -12 12 -24 23 -27 10 -3 19 -10 19 -16 0 -20 -60
-49 -90 -45 -31 5 -39 -2 -42 -38 -2 -20 -8 -23 -44 -25 -41 -2 -42 -1 -48 33
-9 47 1 77 22 69 33 -13 37 -10 38 25 0 19 1 39 2 43 1 4 28 7 60 5 50 -3 57
-6 60 -24z"/>
<path d="M3050 1102 c0 -13 15 -29 37 -41 13 -6 22 -16 20 -20 -1 -5 1 -9 6
-10 25 -3 29 1 14 17 -10 10 -17 26 -17 35 0 9 -6 17 -12 18 -7 0 -21 2 -30 4
-10 2 -18 0 -18 -3z"/>
<path d="M1290 1080 c-16 -16 -18 -25 -10 -40 12 -23 17 -24 49 -6 32 18 71 8
81 -20 5 -13 14 -24 20 -24 15 0 23 27 16 47 -6 15 -8 15 -16 3 -8 -13 -10
-13 -10 -1 0 8 -3 11 -7 8 -3 -4 -17 0 -30 8 -13 9 -28 13 -33 10 -5 -3 -11 4
-15 15 -8 25 -20 25 -45 0z"/>
<path d="M2897 1093 c-12 -12 -7 -33 8 -33 17 0 19 9 7 28 -5 7 -11 9 -15 5z"/>
<path d="M2501 1063 c6 -16 7 -55 3 -97 -4 -39 -8 -82 -8 -96 -1 -14 -4 -29
-7 -35 -8 -14 -4 -113 4 -122 10 -9 9 -25 -1 -19 -5 3 -6 -15 -2 -39 4 -25 4
-47 1 -50 -3 -3 -5 -27 -6 -53 0 -38 4 -51 24 -68 23 -19 24 -24 13 -48 -7
-15 -8 -24 -2 -21 5 3 10 -3 10 -13 0 -25 -54 -50 -73 -33 -8 6 -17 8 -20 5
-4 -4 -5 2 -3 13 3 11 -1 20 -8 20 -7 0 -12 -10 -12 -21 1 -17 -4 -20 -24 -18
-32 3 -38 11 -46 50 -5 27 -2 36 24 58 28 25 29 29 17 48 -8 12 -16 32 -19 46
-2 14 -7 32 -10 40 -3 8 -10 34 -16 58 -7 28 -15 40 -23 36 -7 -4 -9 -4 -5 0
3 4 -2 33 -13 64 -11 32 -19 58 -19 60 0 1 -1 4 -1 7 -1 3 -3 10 -4 15 -1 6
-3 15 -4 20 0 6 -12 10 -25 10 -14 0 -26 7 -30 18 -7 20 -25 49 -48 76 -20 23
-23 17 -32 -59 -5 -39 -2 -59 14 -90 21 -40 26 -66 13 -64 -5 1 -12 0 -18 -1
-5 -1 -16 -3 -23 -4 -8 0 -20 -15 -27 -33 -13 -30 -12 -33 11 -48 15 -9 24
-25 24 -41 0 -24 2 -25 43 -19 47 6 67 -2 71 -31 4 -22 -13 -59 -22 -50 -3 4
-11 -3 -17 -15 -10 -18 -8 -25 13 -46 14 -14 38 -25 56 -26 29 -2 31 -5 28
-30 -2 -15 1 -34 8 -42 11 -13 10 -18 -6 -29 -10 -8 -24 -12 -31 -9 -7 3 -13
0 -13 -5 0 -12 -67 -28 -77 -19 -3 4 -6 17 -7 29 -1 19 -7 23 -33 24 -17 0
-38 6 -46 13 -20 16 -34 -4 -17 -24 7 -8 9 -15 4 -15 -4 0 -3 -5 3 -11 8 -8 8
-20 -2 -43 -10 -24 -21 -32 -49 -37 -20 -3 -38 -3 -41 0 -11 11 -45 10 -45 -1
0 -6 -3 -9 -6 -5 -4 3 -15 -4 -24 -16 l-18 -22 -7 27 c-4 16 -12 25 -20 22
-17 -7 -29 30 -17 53 6 10 11 20 13 23 1 3 -4 16 -11 30 -8 14 -15 28 -16 33
-1 4 -2 8 -3 10 -1 1 -4 20 -6 41 -3 22 -10 43 -16 46 -8 6 -8 9 0 11 7 3 13
59 16 164 2 88 6 169 7 180 2 12 -3 20 -12 20 -8 0 -15 -7 -16 -15 0 -8 -4
-33 -8 -55 -4 -22 -10 -51 -13 -65 -2 -14 -15 -53 -28 -87 -14 -34 -25 -68
-25 -75 0 -8 -5 -19 -12 -26 -7 -7 -8 -12 -4 -12 5 0 1 -11 -7 -24 -9 -13 -18
-35 -19 -50 -2 -14 -8 -29 -13 -33 -4 -5 -5 -1 0 7 6 10 2 9 -12 -3 -19 -17
-20 -20 -6 -48 11 -21 22 -29 44 -30 42 -2 41 -2 77 -27 39 -28 43 -69 9 -105
-21 -23 -24 -24 -50 -11 -30 16 -28 35 3 29 22 -4 36 10 20 20 -18 11 -60 -4
-60 -21 0 -8 -4 -12 -10 -9 -5 3 -10 2 -10 -4 0 -6 -6 -8 -14 -5 -8 3 -37 -6
-65 -19 -27 -14 -52 -23 -55 -19 -4 3 -13 -4 -21 -15 -16 -23 -72 -36 -79 -19
-3 7 -10 4 -19 -6 -17 -21 -38 -23 -55 -6 -9 9 -12 9 -12 0 0 -30 -28 -7 -48
38 -25 56 -26 64 -12 55 6 -3 10 -1 10 5 0 7 6 8 16 2 14 -8 112 3 122 13 2 1
-10 12 -26 24 l-29 20 -57 -30 c-31 -17 -60 -38 -65 -47 -15 -29 -1 -79 25
-91 29 -13 33 -59 8 -96 -15 -23 -15 -25 2 -25 9 0 26 8 36 17 14 13 21 14 30
5 16 -16 36 -15 54 3 21 21 47 19 69 -5 15 -17 31 -20 101 -20 45 0 94 4 108
10 24 9 26 14 26 70 0 60 6 70 27 49 15 -15 36 -1 28 18 -3 9 -3 24 0 34 5 15
11 16 38 8 18 -6 40 -15 50 -20 13 -7 23 -7 32 1 17 14 38 3 31 -16 -3 -8 6
-26 19 -40 14 -15 25 -30 25 -34 0 -4 20 -3 44 2 30 6 51 6 64 -1 11 -6 22 -7
26 -4 13 13 5 29 -24 46 -30 18 -42 57 -17 57 7 0 23 14 36 31 21 28 24 29 40
15 18 -17 43 -21 55 -9 15 16 34 9 50 -18 10 -16 26 -29 37 -29 10 0 19 -4 19
-10 0 -13 -33 -44 -51 -48 -7 -2 -17 -8 -20 -14 -4 -6 -17 -7 -30 -4 -13 3
-18 3 -11 0 6 -3 12 -21 12 -39 0 -39 19 -50 49 -28 12 8 29 12 37 9 8 -3 25
1 37 8 19 12 28 12 60 1 l39 -13 -7 46 c-4 33 -2 53 8 66 14 18 16 19 56 3 23
-10 55 -17 71 -17 27 0 30 -3 30 -34 0 -38 6 -41 70 -45 34 -1 50 -8 66 -28
20 -24 25 -25 83 -18 33 4 61 11 61 16 0 4 10 13 22 20 18 10 24 8 39 -12 16
-20 20 -22 28 -9 11 17 5 30 -14 30 -39 0 -68 26 -95 87 l-28 62 -32 -15 c-17
-9 -37 -13 -45 -10 -18 6 -20 36 -3 36 6 0 9 2 6 5 -2 3 -22 -4 -43 -15 -21
-11 -43 -16 -49 -13 -6 4 -27 6 -47 4 -37 -2 -53 9 -54 39 0 8 -10 15 -22 16
-18 1 -21 -3 -18 -26 5 -38 -8 -56 -25 -35 -8 9 -27 23 -43 32 -28 14 -29 14
-22 -3 14 -33 11 -59 -5 -55 -8 2 -26 6 -40 9 -32 6 -100 75 -100 102 0 27 37
41 103 39 29 -1 80 3 115 8 47 7 65 6 73 -3 10 -12 54 -12 67 0 4 4 7 13 7 19
0 7 15 12 35 12 28 0 34 -4 32 -18 -2 -11 4 -17 16 -17 23 0 42 -19 42 -42 0
-15 8 -18 44 -18 34 0 47 -5 58 -22 11 -17 18 -19 33 -11 31 18 115 -28 115
-63 0 -17 21 -23 43 -12 21 11 22 27 1 43 -15 10 -15 13 1 28 15 16 15 18 -9
29 -14 6 -26 14 -26 17 1 9 43 37 68 45 18 6 22 14 20 34 -3 31 -24 36 -51 13
-17 -14 -20 -14 -33 4 -7 11 -18 26 -24 33 -8 9 -7 12 2 12 10 0 10 2 -1 9 -7
5 -9 10 -4 12 5 2 6 15 2 29 -5 17 -7 19 -8 7 -1 -10 -5 -15 -11 -12 -5 3 -10
1 -10 -5 0 -6 -4 -9 -9 -5 -5 3 -12 1 -15 -4 -3 -5 -16 -7 -29 -3 -19 5 -20 4
-9 -11 14 -16 8 -57 -7 -57 -4 0 -18 -9 -31 -20 -17 -15 -27 -17 -41 -9 -11 5
-19 6 -19 1 0 -10 -49 -3 -51 7 0 3 -2 35 -3 69 -1 50 -5 67 -21 78 -10 8 -15
14 -11 14 5 0 2 8 -5 17 -12 15 -12 16 1 8 10 -5 8 -1 -4 13 -11 13 -16 30
-13 42 5 18 3 19 -11 8 -11 -9 -14 -9 -9 -1 5 7 1 26 -8 43 -9 17 -13 36 -9
43 4 7 3 9 -1 4 -8 -7 -85 134 -85 156 0 6 -6 18 -14 26 -8 9 -17 41 -20 71
-4 30 -11 57 -16 60 -5 3 -11 22 -13 41 -5 43 -13 59 -32 59 -12 0 -12 -6 -4
-27z m72 -244 c5 -19 12 -36 17 -39 4 -3 10 -18 11 -34 4 -30 -4 -34 -59 -27
-10 1 -15 95 -7 122 9 29 28 18 38 -22z m-353 0 c7 -11 9 -24 5 -27 -7 -7 -35
25 -35 40 0 16 19 8 30 -13z m386 -495 c-5 -14 -9 -15 -19 -5 -9 9 -9 14 3 21
18 11 24 6 16 -16z"/>
<path d="M779 1016 c8 -10 9 -16 1 -19 -6 -3 -5 -4 2 -3 19 4 20 23 2 30 -14
5 -15 4 -5 -8z"/>
<path d="M1720 1021 c0 -5 5 -13 10 -16 6 -3 10 -2 10 4 0 5 -4 13 -10 16 -5
3 -10 2 -10 -4z"/>
<path d="M878 968 c-24 -19 -38 -82 -38 -170 0 -42 -3 -83 -6 -92 -7 -18 -44
-22 -60 -6 -16 16 -151 40 -225 40 -99 0 -151 -16 -198 -60 -35 -31 -41 -43
-41 -77 0 -49 25 -78 93 -111 27 -12 54 -27 60 -32 7 -6 21 -17 32 -24 19 -14
19 -15 1 -35 -10 -11 -38 -26 -62 -35 -54 -18 -107 -71 -124 -122 -7 -21 -19
-48 -26 -59 -15 -21 -18 -85 -8 -148 6 -30 11 -37 30 -37 21 0 23 3 14 26 -17
44 -12 122 11 167 31 61 66 99 137 151 55 41 62 50 62 80 0 36 -15 51 -80 76
-52 20 -99 58 -106 85 -14 56 111 135 214 135 55 0 195 -43 230 -70 13 -11 29
-17 35 -14 28 10 45 69 46 153 0 47 5 89 11 95 5 5 10 18 10 27 0 9 13 22 29
29 25 10 36 9 73 -8 69 -31 153 -146 162 -224 1 -3 4 -10 9 -14 4 -4 7 -27 7
-50 0 -24 4 -45 9 -48 10 -7 24 55 16 75 -2 8 -7 27 -9 42 -7 43 -74 174 -108
213 -43 49 -159 73 -200 42z"/>
<path d="M1379 957 c-8 -11 -22 -27 -31 -36 -10 -8 -18 -21 -18 -28 0 -7 -4
-13 -10 -13 -5 0 -10 -6 -10 -14 0 -10 7 -13 23 -9 12 3 34 7 50 10 33 6 41
17 29 40 -7 11 -5 21 5 31 7 8 12 19 10 25 -6 18 -34 15 -48 -6z"/>
<path d="M1220 870 c0 -12 28 -21 35 -11 2 5 -4 11 -15 14 -11 3 -20 2 -20 -3z"/>
<path d="M944 857 c-3 -8 -3 -26 0 -40 2 -15 0 -30 -6 -33 -6 -4 -5 -10 3 -15
11 -7 11 -9 1 -9 -7 0 -11 -4 -8 -9 10 -15 -17 -125 -34 -141 -9 -8 -14 -14
-11 -12 2 1 13 -6 24 -15 15 -13 18 -14 12 -3 -6 11 -3 10 12 -3 11 -9 23 -14
26 -10 4 3 7 1 7 -6 0 -7 4 -10 9 -7 4 3 19 -16 32 -42 33 -66 59 -103 69 -97
5 3 12 0 16 -6 4 -8 3 -9 -4 -5 -7 4 -12 2 -12 -3 0 -6 11 -10 24 -9 14 1 22
6 20 10 -3 4 1 8 8 8 10 0 9 3 -2 9 -8 6 -19 7 -25 4 -5 -4 -7 -3 -3 1 4 5 -5
26 -19 49 -24 39 -25 41 -9 69 34 56 10 175 -41 208 -17 11 -17 11 0 6 13 -4
17 0 17 20 0 13 -7 27 -15 30 -8 4 -15 11 -15 18 -1 33 -65 61 -76 33z"/>
<path d="M1380 790 c-8 -5 -12 -11 -9 -14 2 -3 11 -1 19 4 8 5 12 11 9 14 -2
3 -11 1 -19 -4z"/>
<path d="M1375 759 c-4 -6 -19 -10 -33 -9 -53 4 -62 -1 -82 -40 -24 -47 -24
-50 -5 -50 9 0 21 11 27 25 13 30 37 39 69 27 24 -10 69 1 69 15 -1 10 -26 43
-33 43 -3 0 -9 -5 -12 -11z"/>
<path d="M2057 658 c-2 -7 -5 -16 -6 -20 -1 -4 -11 -29 -22 -55 l-20 -47 23
-18 c33 -24 54 -28 75 -13 15 11 16 17 6 32 -6 10 -16 17 -22 16 -6 -2 -11 0
-12 5 0 4 -2 16 -5 27 -2 11 -5 35 -6 53 -1 35 -3 39 -11 20z"/>
<path d="M785 570 c3 -5 11 -10 16 -10 6 0 7 5 4 10 -3 6 -11 10 -16 10 -6 0
-7 -4 -4 -10z"/>
<path d="M1205 520 c-10 -16 3 -28 35 -35 25 -5 100 -74 100 -91 0 -15 -23
-45 -42 -55 -12 -6 -53 -17 -92 -23 -79 -14 -93 -31 -58 -69 11 -12 27 -49 37
-82 16 -55 16 -86 -1 -142 -5 -20 -3 -23 20 -23 28 0 27 -6 28 108 0 48 -6 75
-23 107 -13 24 -20 47 -16 51 4 4 22 8 40 9 61 4 125 40 144 80 17 35 17 38
-2 73 -15 28 -36 45 -85 69 -72 36 -76 37 -85 23z"/>
<path d="M2897 523 c-4 -3 -7 -13 -7 -21 0 -12 3 -12 15 -2 8 7 15 16 15 21 0
11 -14 12 -23 2z"/>
<path d="M1400 461 c0 -6 5 -13 10 -16 6 -3 10 1 10 9 0 9 -4 16 -10 16 -5 0
-10 -4 -10 -9z"/>
<path d="M1237 405 c-8 -18 11 -31 25 -17 11 11 3 32 -12 32 -4 0 -10 -7 -13
-15z"/>
<path d="M3240 395 c-6 -16 -14 -23 -25 -19 -8 3 -15 10 -15 15 0 5 -11 3 -25
-3 -22 -10 -23 -13 -10 -20 8 -5 15 -18 15 -28 0 -25 17 -35 36 -19 14 12 54
81 54 94 0 16 -22 1 -30 -20z"/>
<path d="M3342 359 c2 -12 10 -25 18 -29 29 -14 92 -32 96 -27 7 6 -90 77
-106 77 -6 0 -10 -10 -8 -21z"/>
<path d="M2270 361 c0 -6 4 -13 10 -16 6 -3 7 1 4 9 -7 18 -14 21 -14 7z"/>
<path d="M2815 360 c-3 -6 1 -7 9 -4 18 7 21 14 7 14 -6 0 -13 -4 -16 -10z"/>
<path d="M2670 320 c0 -5 7 -10 16 -10 8 0 12 5 9 10 -3 6 -10 10 -16 10 -5 0
-9 -4 -9 -10z"/>
<path d="M1650 290 c-12 -7 -12 -12 -2 -22 9 -9 15 -9 24 0 16 16 -2 34 -22
22z"/>
<path d="M3484 279 c-3 -6 -1 -16 5 -22 8 -8 11 -5 11 11 0 24 -5 28 -16 11z"/>
<path d="M1000 228 c0 -4 -13 -20 -30 -34 -16 -15 -27 -30 -24 -35 2 -4 -5 -6
-16 -4 -11 2 -20 0 -20 -5 0 -5 -7 -6 -17 -3 -12 5 -14 3 -9 -8 6 -11 4 -10
-6 1 -16 18 -38 24 -38 10 0 -5 1 -11 2 -12 1 -2 -5 -14 -12 -28 -13 -24 -12
-24 6 -10 10 8 16 10 12 6 -4 -5 0 -15 10 -23 16 -12 16 -13 -3 -7 -22 6 46
-39 85 -57 14 -6 43 -11 65 -12 55 0 102 42 106 95 2 20 0 40 -3 43 -4 4 -4
13 -2 20 3 7 -4 16 -15 20 -11 3 -23 15 -26 26 -4 10 -11 17 -16 14 -5 -4 -9
-2 -9 4 0 5 -9 9 -20 8 -11 -1 -20 -5 -20 -9z"/>
<path d="M1516 163 c-6 -14 -5 -15 5 -6 7 7 10 15 7 18 -3 3 -9 -2 -12 -12z"/>
<path d="M788 161 c8 -4 12 -10 11 -12 -2 -2 2 -13 9 -24 6 -11 12 -18 12 -15
10 46 3 60 -30 60 -12 0 -12 -2 -2 -9z"/>
<path d="M690 110 c-6 -11 -8 -20 -5 -20 4 0 -2 -12 -13 -27 -30 -45 -34 -63
-13 -63 12 0 21 10 25 25 8 33 42 33 68 0 15 -19 29 -25 56 -25 28 1 33 3 21
10 -30 18 -89 73 -89 84 0 6 -9 17 -20 23 -16 11 -21 10 -30 -7z"/>
<path d="M3043 84 c-49 -53 -25 -84 63 -84 36 0 45 3 37 11 -9 9 -8 15 3 26
11 12 12 19 2 36 -7 12 -12 25 -11 28 1 3 -3 6 -10 7 -7 0 -21 3 -32 5 -14 4
-30 -6 -52 -29z m84 -9 c0 -8 -4 -12 -9 -9 -4 3 -8 9 -8 15 0 5 4 9 8 9 5 0 9
-7 9 -15z"/>
<path d="M1860 29 c0 -5 5 -7 10 -4 6 3 10 8 10 11 0 2 -4 4 -10 4 -5 0 -10
-5 -10 -11z"/>
<path d="M2560 15 l-25 -14 26 -1 c16 0 26 5 26 15 0 8 -1 15 -1 15 -1 -1 -12
-7 -26 -15z"/>
</g>
</svg>
