<?xml version="1.0" standalone="no"?>
<!DOCTYPE svg PUBLIC "-//W3C//DTD SVG 20010904//EN"
 "http://www.w3.org/TR/2001/REC-SVG-20010904/DTD/svg10.dtd">
<svg version="1.0" xmlns="http://www.w3.org/2000/svg"
 width="950.000000pt" height="550.000000pt" viewBox="0 0 950.000000 550.000000"
 preserveAspectRatio="xMidYMid meet">

<g transform="translate(0.000000,550.000000) scale(0.100000,-0.100000)"
fill="#000000" stroke="none">
<path d="M1 4843 c1 -362 5 -644 9 -628 7 26 16 17 10 -10 -1 -5 2 -6 7 -2 4
5 9 13 9 18 3 22 7 22 14 -1 6 -22 8 -20 9 15 0 22 5 58 10 80 8 36 9 33 11
-40 1 -44 1 -84 0 -90 -1 -5 -2 -14 -1 -20 1 -5 3 -416 4 -912 1 -496 6 -905
10 -909 4 -4 7 121 8 277 0 294 7 1214 10 1469 1 80 6 150 11 157 5 7 5 14 -2
18 -5 3 -10 32 -9 63 1 42 3 51 9 32 6 -22 8 -21 12 15 3 36 5 38 13 18 l10
-22 12 25 c10 21 9 23 -1 15 -10 -8 -16 -7 -25 3 -8 10 -9 16 -1 21 5 3 10 3
11 -2 0 -4 4 2 9 15 20 49 27 16 26 -124 0 -80 2 -148 7 -151 4 -2 7 37 7 87
0 61 3 89 10 85 7 -4 9 3 6 22 -2 15 -5 28 -6 28 -1 0 -4 20 -6 45 -3 32 -1
41 6 30 5 -8 10 -13 11 -10 0 3 3 21 6 40 2 19 9 39 14 45 5 5 9 25 10 45 l1
35 10 -40 c5 -22 8 -68 6 -103 -2 -34 0 -62 5 -62 4 0 8 42 8 93 2 136 16 176
18 49 0 -57 5 -101 9 -98 5 3 10 52 10 108 1 57 3 111 5 120 5 27 17 34 17 10
0 -12 5 -22 10 -22 6 0 10 -15 11 -32 l1 -33 8 29 c5 16 7 46 5 67 -2 22 0 39
5 39 12 0 20 -26 9 -37 -5 -5 0 -14 13 -22 18 -11 20 -11 15 3 -3 8 -2 18 3
21 6 4 10 14 10 23 0 15 -2 15 -10 2 -8 -12 -10 -11 -10 5 0 13 7 21 18 22 15
1 17 -5 14 -33 -5 -37 4 -42 34 -18 17 14 17 15 1 10 -15 -5 -16 -3 -7 15 9
15 8 24 -2 36 -11 14 -10 16 12 10 14 -3 32 -2 40 4 12 8 10 9 -7 4 -21 -6
-23 -3 -23 32 0 27 3 34 9 23 6 -8 7 -18 4 -24 -3 -5 -1 -6 6 -2 6 4 8 12 5
18 -5 8 -1 9 11 4 14 -5 16 -4 7 7 -7 8 -9 17 -5 20 13 14 18 6 21 -29 1 -25
-1 -33 -10 -28 -7 5 -8 3 -2 -7 4 -7 7 -30 7 -49 -1 -24 2 -16 11 25 8 33 14
50 15 37 0 -13 5 -20 11 -17 6 4 8 10 5 15 -3 5 6 20 20 33 15 13 28 38 30 57
8 62 17 45 15 -30 -3 -99 -2 -110 10 -110 6 0 10 40 10 101 0 125 15 123 19
-3 3 -126 11 -125 11 2 0 57 2 101 4 99 2 -2 7 -33 11 -69 4 -36 9 -67 11 -69
2 -2 5 38 6 90 l2 94 6 -80 6 -80 5 75 5 75 2 -80 c2 -51 5 -75 11 -66 5 8 8
40 7 73 -1 32 2 64 6 71 4 6 9 -17 10 -53 l1 -65 7 65 c5 50 7 56 9 25 l2 -40
14 34 c8 18 12 38 8 44 -3 6 -1 7 5 3 7 -4 12 -3 12 2 0 6 6 12 13 15 8 3 14
-1 14 -9 0 -7 -5 -10 -11 -7 -7 3 -6 1 1 -7 17 -18 34 -2 30 28 -2 15 0 38 4
52 7 23 10 -86 13 -462 0 -86 4 -159 7 -162 7 -7 19 261 19 430 0 67 3 142 6
166 6 40 9 45 28 40 11 -3 23 -9 26 -13 3 -4 12 -4 20 1 13 8 12 11 -5 24 -19
14 -19 15 10 12 17 -2 35 -1 40 2 17 10 35 11 29 1 -3 -5 -9 -7 -14 -4 -5 3
-11 1 -15 -5 -7 -12 14 -13 32 -2 6 4 13 21 16 37 4 21 5 17 3 -12 -1 -23 2
-39 6 -37 5 3 9 24 9 47 l2 42 6 -34 c3 -19 12 -36 19 -37 7 -1 8 0 2 3 -5 2
-10 14 -9 26 0 16 2 18 7 7 9 -19 30 -20 41 -1 7 11 10 9 16 -8 3 -11 4 -29 0
-40 -3 -10 -1 -29 4 -42 8 -19 10 -12 12 41 0 36 1 72 0 82 -1 9 4 20 10 24 9
5 10 2 6 -12 -7 -18 -7 -18 8 0 8 11 15 16 15 11 0 -5 7 0 15 11 14 18 14 17
15 -15 0 -35 14 -35 16 0 3 44 6 54 11 41 4 -10 8 -10 21 0 9 7 13 8 10 3 -4
-6 -3 -17 3 -25 6 -11 9 -6 9 18 0 20 4 31 10 27 5 -3 10 -1 10 6 0 7 9 5 26
-6 15 -9 24 -13 21 -8 -3 5 3 17 13 26 17 15 19 14 23 -1 3 -11 5 -8 6 8 1 19
4 21 10 11 5 -8 16 -11 26 -8 9 4 14 11 11 15 -3 5 1 9 9 9 8 0 15 -7 15 -15
0 -10 9 -5 26 14 15 16 24 25 21 19 -2 -5 -1 -19 4 -30 7 -18 8 -18 9 5 1 23
2 23 10 5 l9 -20 1 20 c2 17 3 16 10 -5 l8 -25 2 25 c1 14 2 28 1 33 -3 17 20
5 29 -15 7 -19 9 -12 11 32 2 52 3 52 6 12 5 -51 22 -46 24 6 l2 37 7 -35 7
-35 3 30 c2 30 2 30 10 5 7 -21 8 -22 9 -5 1 16 3 17 10 6 7 -11 10 -10 14 5
2 10 5 -103 6 -252 l1 -272 24 -6 c13 -3 32 -8 43 -11 10 -4 2 2 -17 12 l-35
18 1 70 c0 39 1 146 2 238 1 93 5 166 10 164 4 -3 6 16 5 41 -2 32 0 41 5 28
8 -18 9 -18 15 -3 3 9 12 17 19 17 10 0 10 -2 1 -8 -8 -5 -10 -22 -6 -50 4
-27 9 -39 14 -31 4 7 3 23 -2 37 -7 18 -6 27 5 36 7 6 16 18 18 26 3 8 3 -18
0 -57 -3 -51 -1 -73 7 -73 7 0 11 20 12 53 0 28 4 61 8 71 7 19 8 18 15 -5 4
-14 9 -19 13 -11 2 6 9 10 14 6 5 -3 9 7 10 23 l1 28 7 -25 c5 -14 4 -32 0
-42 -11 -21 -9 -119 2 -112 5 3 9 22 9 42 0 28 3 33 10 22 14 -22 12 -3 -2 21
-11 17 -10 22 5 33 9 7 17 26 17 41 0 44 13 20 15 -27 1 -24 3 -72 4 -108 3
-79 19 -55 20 30 1 74 11 130 23 130 6 0 8 -7 5 -14 -4 -10 -1 -13 8 -9 8 3
12 9 9 14 -3 5 -1 9 4 9 14 0 21 -47 18 -125 -2 -38 0 -79 5 -90 5 -13 8 10
10 63 1 45 3 87 4 92 1 6 3 21 4 35 l1 24 28 -26 c26 -25 27 -25 30 -4 2 12 8
21 13 21 6 0 8 -8 4 -19 -3 -11 1 -23 12 -32 10 -7 15 -10 12 -6 -4 5 -3 23 1
42 l8 35 -1129 0 -1129 0 1 -657z m1299 423 c0 -2 -8 -10 -17 -17 -16 -13 -17
-12 -4 4 13 16 21 21 21 13z m-110 -111 c0 -5 -5 -3 -10 5 -5 8 -10 20 -10 25
0 6 5 3 10 -5 5 -8 10 -19 10 -25z m-540 -159 c0 -3 -4 -8 -10 -11 -5 -3 -10
-1 -10 4 0 6 5 11 10 11 6 0 10 -2 10 -4z m-65 -36 c3 -5 1 -10 -4 -10 -6 0
-11 5 -11 10 0 6 2 10 4 10 3 0 8 -4 11 -10z m-395 -460 c0 -11 -4 -20 -9 -20
-7 0 -8 17 -2 38 4 10 11 -2 11 -18z m25 0 c3 -5 1 -10 -4 -10 -6 0 -11 5 -11
10 0 6 2 10 4 10 3 0 8 -4 11 -10z m-98 -102 c-3 -7 -5 -2 -5 12 0 14 2 19 5
13 2 -7 2 -19 0 -25z m-34 -18 c-7 -28 -13 -25 -13 6 0 14 4 23 9 20 5 -3 7
-15 4 -26z m-26 -82 c-3 -8 -6 -5 -6 6 -1 11 2 17 5 13 3 -3 4 -12 1 -19z m-7
-28 c0 -5 -2 -10 -4 -10 -3 0 -8 5 -11 10 -3 6 -1 10 4 10 6 0 11 -4 11 -10z"/>
<path d="M2290 5480 c21 -21 40 -19 40 3 0 7 -4 6 -10 -3 -8 -13 -10 -12 -10
3 0 10 -8 17 -20 17 -20 0 -20 0 0 -20z"/>
<path d="M2340 5474 c0 -13 9 -33 19 -43 17 -17 24 -18 55 -9 30 9 36 16 36
39 0 15 6 30 13 32 6 3 -4 5 -24 4 -29 -2 -35 -5 -31 -19 2 -10 8 -15 13 -12
5 3 6 -2 3 -10 -5 -12 -35 -31 -38 -24 -1 2 -7 13 -13 25 -11 19 -10 24 4 31
13 8 11 10 -10 10 -22 0 -27 -5 -27 -24z"/>
<path d="M2496 5467 c1 -19 4 -39 8 -45 4 -7 6 -49 5 -94 -2 -110 0 -222 5
-217 2 2 7 91 10 197 6 180 6 192 -11 192 -14 0 -18 -8 -17 -33z"/>
<path d="M2540 5490 c0 -5 4 -10 9 -10 6 0 12 -17 14 -37 3 -35 4 -34 5 10 2
36 -2 47 -13 47 -8 0 -15 -4 -15 -10z"/>
<path d="M2607 5475 c-2 -14 -1 -40 3 -58 7 -27 8 -24 9 26 1 61 -4 73 -12 32z"/>
<path d="M2643 5460 c0 -25 2 -35 4 -22 2 12 2 32 0 45 -2 12 -4 2 -4 -23z"/>
<path d="M2673 5455 c0 -27 2 -38 4 -22 2 15 2 37 0 50 -2 12 -4 0 -4 -28z"/>
<path d="M2733 5465 c0 -22 2 -30 4 -17 2 12 2 30 0 40 -3 9 -5 -1 -4 -23z"/>
<path d="M2775 5490 c3 -5 8 -10 11 -10 2 0 4 5 4 10 0 6 -5 10 -11 10 -5 0
-7 -4 -4 -10z"/>
<path d="M2815 5490 c-3 -5 1 -10 9 -10 12 0 14 -7 10 -30 -4 -19 -2 -30 5
-30 6 0 11 17 11 40 0 28 -4 40 -14 40 -8 0 -18 -4 -21 -10z"/>
<path d="M3075 5471 c-4 -18 -4 -35 -1 -38 3 -4 6 3 6 15 0 11 4 22 10 24 5 2
6 9 1 17 -6 10 -11 5 -16 -18z"/>
<path d="M3120 5490 c0 -5 4 -10 9 -10 6 0 12 -17 14 -37 3 -35 4 -34 5 10 2
36 -2 47 -13 47 -8 0 -15 -4 -15 -10z"/>
<path d="M3172 5470 c0 -19 2 -27 5 -17 2 9 2 25 0 35 -3 9 -5 1 -5 -18z"/>
<path d="M3232 5475 c0 -16 2 -22 5 -12 2 9 2 23 0 30 -3 6 -5 -1 -5 -18z"/>
<path d="M3292 5480 c0 -14 2 -19 5 -12 2 6 2 18 0 25 -3 6 -5 1 -5 -13z"/>
<path d="M3361 5484 c0 -11 3 -14 6 -6 3 7 2 16 -1 19 -3 4 -6 -2 -5 -13z"/>
<path d="M3445 5490 c3 -5 8 -10 11 -10 2 0 4 5 4 10 0 6 -5 10 -11 10 -5 0
-7 -4 -4 -10z"/>
<path d="M3520 5403 c0 -54 5 -105 10 -113 7 -10 10 21 10 98 0 68 -4 112 -10
112 -6 0 -10 -39 -10 -97z"/>
<path d="M4192 5379 c2 -66 6 -123 10 -126 5 -2 8 52 8 121 0 83 -4 126 -11
126 -7 0 -9 -40 -7 -121z"/>
<path d="M4652 5465 c0 -19 4 -35 9 -35 5 0 9 16 9 35 0 19 -4 35 -9 35 -5 0
-9 -16 -9 -35z"/>
<path d="M4702 5480 c0 -14 2 -19 5 -12 2 6 2 18 0 25 -3 6 -5 1 -5 -13z"/>
<path d="M4951 5288 c0 -128 4 -205 9 -193 12 29 12 405 0 405 -6 0 -10 -77
-9 -212z"/>
<path d="M5482 5449 c0 -32 3 -48 8 -43 14 14 17 86 4 91 -7 2 -11 -16 -12
-48z"/>
<path d="M6153 5460 c0 -25 2 -35 4 -22 2 12 2 32 0 45 -2 12 -4 2 -4 -23z"/>
<path d="M6650 5303 c0 -108 2 -194 4 -192 9 10 15 389 6 389 -6 0 -10 -77
-10 -197z"/>
<path d="M6731 5484 c0 -11 3 -14 6 -6 3 7 2 16 -1 19 -3 4 -6 -2 -5 -13z"/>
<path d="M6753 5455 c0 -27 2 -38 4 -22 2 15 2 37 0 50 -2 12 -4 0 -4 -28z"/>
<path d="M6771 5465 c1 -40 1 -40 11 -12 7 21 7 32 -1 40 -8 8 -11 0 -10 -28z"/>
<path d="M6831 5484 c0 -11 3 -14 6 -6 3 7 2 16 -1 19 -3 4 -6 -2 -5 -13z"/>
<path d="M7176 5491 c-4 -7 -5 -15 -2 -18 9 -9 19 4 14 18 -4 11 -6 11 -12 0z"/>
<path d="M7318 5463 c5 -59 10 -63 11 -10 1 26 -3 47 -7 47 -4 0 -6 -17 -4
-37z"/>
<path d="M7344 5488 c-4 -6 -3 -8 4 -4 6 4 12 -5 15 -21 4 -26 4 -26 6 5 1 32
-11 42 -25 20z"/>
<path d="M7398 5465 c2 -19 6 -35 8 -35 2 0 4 16 4 35 0 19 -4 35 -8 35 -4 0
-6 -16 -4 -35z"/>
<path d="M7420 5497 c0 -3 7 -18 15 -33 l15 -29 0 30 c1 26 2 27 11 12 6 -10
9 -39 8 -65 -1 -26 0 -249 2 -497 3 -438 3 -443 9 -185 3 146 6 374 6 507 -1
133 2 241 6 240 3 -1 8 3 10 8 1 6 -16 11 -39 13 -24 2 -43 1 -43 -1z"/>
<path d="M7572 5475 c0 -16 2 -22 5 -12 2 9 2 23 0 30 -3 6 -5 -1 -5 -18z"/>
<path d="M7595 5491 c-3 -5 -1 -12 5 -16 5 -3 10 1 10 9 0 18 -6 21 -15 7z"/>
<path d="M7628 5470 c6 -43 19 -46 24 -5 3 27 0 35 -12 35 -13 0 -15 -7 -12
-30z"/>
<path d="M7670 5483 c0 -15 2 -16 10 -3 9 13 10 13 10 0 0 -13 1 -13 10 0 8
13 10 12 10 -2 0 -10 5 -18 10 -18 6 0 10 9 10 20 0 16 -7 20 -30 20 -22 0
-30 -5 -30 -17z"/>
<path d="M7740 5486 c0 -8 4 -16 10 -18 5 -1 14 -28 19 -58 l9 -55 2 60 c2 33
5 50 7 38 4 -23 35 -39 53 -28 7 4 7 12 0 25 -17 32 -11 32 20 0 31 -32 52
-41 29 -13 -12 15 -12 16 1 8 8 -5 21 -17 28 -27 7 -10 19 -18 25 -18 7 0 4 5
-5 11 -10 5 -18 15 -18 22 0 8 3 9 8 1 11 -17 40 -24 46 -11 4 7 4 2 2 -10 -5
-28 16 -26 26 2 5 16 6 15 7 -8 1 -16 5 -26 11 -22 6 3 10 -1 10 -10 0 -12 8
-15 35 -12 19 2 33 1 30 -2 -2 -4 0 -13 6 -21 7 -13 9 -13 9 1 0 9 7 16 15 16
8 0 12 -4 9 -9 -3 -5 -1 -14 4 -21 6 -7 12 -23 15 -37 3 -17 5 -13 6 15 1 27
4 35 10 26 7 -11 9 -11 14 0 3 8 6 -6 7 -31 l2 -45 12 50 c12 49 12 50 21 20
l8 -30 7 25 c6 19 9 12 10 -30 2 -44 4 -49 9 -25 3 17 11 29 16 27 6 -2 13 7
16 20 5 17 8 10 14 -30 4 -29 12 -55 18 -59 6 -3 7 -1 3 5 -4 7 -2 12 4 12 7
0 11 -19 10 -52 -1 -29 0 -273 1 -543 2 -269 5 -436 9 -370 3 66 6 318 8 560
3 439 6 520 23 493 6 -9 9 -7 9 10 0 12 5 22 10 22 6 0 10 -10 10 -22 1 -22 1
-23 15 -4 14 18 15 16 16 -30 l1 -49 12 40 13 40 4 -45 c4 -35 6 -41 13 -25 4
11 14 36 22 55 8 20 14 26 13 15 -3 -42 4 -129 8 -112 2 9 8 17 13 17 4 0 11
16 14 35 8 42 21 46 22 8 1 -16 4 -47 8 -71 3 -24 3 -41 -2 -39 -4 3 -5 -23
-3 -56 l4 -62 8 50 c5 28 11 81 14 119 3 39 8 72 10 75 3 2 5 -1 5 -8 0 -7 5
-9 13 -5 7 5 6 0 -3 -11 -8 -10 -10 -16 -3 -12 6 4 14 1 16 -5 3 -7 6 1 7 17
l2 30 9 -30 c5 -16 9 -63 8 -103 -1 -48 2 -77 10 -81 6 -4 9 -15 5 -24 -5 -13
0 -17 20 -17 14 0 26 5 26 10 0 6 -7 10 -15 10 -9 0 -15 9 -15 24 0 32 20 44
27 17 10 -38 18 -22 18 34 0 30 -3 55 -7 55 -16 0 -7 18 11 23 13 3 21 -1 23
-12 3 -12 8 -8 21 14 18 33 23 21 7 -19 -5 -14 -6 -26 -1 -26 4 0 6 -13 3 -30
-5 -34 0 -37 19 -13 10 11 10 14 2 9 -16 -9 -16 -7 -2 33 14 40 29 40 29 0 0
-40 20 -28 21 14 l2 32 4 -29 c4 -23 7 -26 14 -15 8 11 9 9 5 -6 -3 -11 -2
-33 3 -50 9 -30 9 -30 11 10 1 36 2 38 11 16 5 -13 10 -35 11 -48 2 -21 4 -22
14 -9 15 21 21 20 27 -1 4 -16 5 -16 6 1 1 18 2 18 21 1 23 -21 26 -45 8 -65
-11 -12 -10 -12 5 -1 14 11 17 11 18 0 1 -8 5 2 9 21 l7 35 2 -42 c0 -23 -3
-45 -9 -48 -5 -3 -10 -12 -10 -18 0 -7 4 -6 10 3 8 11 10 5 10 -25 0 -22 4
-96 9 -165 8 -131 9 -126 15 80 6 198 8 214 15 195 8 -19 9 -19 17 5 4 14 7
28 6 33 -1 4 3 7 9 7 6 0 9 -6 6 -13 -3 -8 -1 -20 4 -28 6 -10 9 -6 10 16 1
17 1 36 0 44 -2 7 2 10 7 7 6 -3 10 -36 11 -72 0 -37 3 -69 6 -72 3 -3 5 13 5
36 0 62 20 63 21 0 l1 -53 11 45 c10 45 11 45 18 15 6 -27 7 -26 8 14 1 47 12
49 18 3 5 -48 6 -51 17 -49 7 1 13 -32 17 -88 l5 -90 2 74 c2 62 4 72 18 67 9
-3 18 -6 20 -6 2 0 4 -7 4 -16 0 -8 -4 -12 -10 -9 -6 3 -7 -1 -3 -10 4 -12 8
-13 13 -4 5 7 8 -3 8 -24 0 -19 4 -43 10 -52 7 -13 8 -8 7 21 -3 37 12 77 25
69 4 -2 7 2 7 10 0 19 -16 19 -23 0 -4 -8 -11 -12 -16 -9 -9 6 38 44 54 44 4
0 5 -28 3 -62 -4 -50 -1 -63 13 -74 21 -15 32 -9 32 18 0 17 -2 18 -15 8 -13
-10 -15 -9 -15 9 0 12 5 19 10 16 10 -6 13 5 11 35 0 10 1 11 5 3 3 -7 10 -13
15 -13 6 0 8 4 4 9 -3 5 -1 12 5 16 5 3 10 2 10 -4 0 -5 3 -17 6 -25 5 -12 2
-15 -10 -10 -9 3 -16 2 -16 -4 0 -8 22 -22 35 -22 2 0 4 140 5 310 l1 310
-881 0 c-746 0 -880 -3 -880 -14z m75 -25 c3 -5 1 -12 -5 -16 -5 -3 -10 1 -10
9 0 18 6 21 15 7z m562 -103 c-3 -7 -5 -2 -5 12 0 14 2 19 5 13 2 -7 2 -19 0
-25z m286 -33 c-3 -9 -8 -14 -10 -11 -3 3 -2 9 2 15 9 16 15 13 8 -4z m43 -52
c-10 -10 -19 5 -10 18 6 11 8 11 12 0 2 -7 1 -15 -2 -18z m4 -34 c0 -6 -4 -7
-10 -4 -5 3 -10 11 -10 16 0 6 5 7 10 4 6 -3 10 -11 10 -16z m-13 -41 c-3 -8
-6 -5 -6 6 -1 11 2 17 5 13 3 -3 4 -12 1 -19z m30 -30 c-3 -8 -6 -5 -6 6 -1
11 2 17 5 13 3 -3 4 -12 1 -19z m463 -45 c0 -5 -5 -15 -10 -23 -8 -12 -10 -11
-10 8 0 12 5 22 10 22 6 0 10 -3 10 -7z m116 -130 c-5 -12 -10 -10 -27 11 -11
14 -18 32 -16 39 4 7 6 6 6 -4 1 -9 8 -19 16 -23 11 -4 15 2 16 22 l2 27 4
-28 c3 -16 2 -36 -1 -44z m46 8 c8 11 9 11 6 1 -4 -16 -22 -18 -24 -2 -2 7 -1
6 3 -1 4 -8 8 -7 15 2z"/>
<path d="M3052 5470 c0 -14 2 -19 5 -12 2 6 2 18 0 25 -3 6 -5 1 -5 -13z"/>
<path d="M3831 5474 c0 -11 3 -14 6 -6 3 7 2 16 -1 19 -3 4 -6 -2 -5 -13z"/>
<path d="M3022 5460 c0 -14 2 -19 5 -12 2 6 2 18 0 25 -3 6 -5 1 -5 -13z"/>
<path d="M2541 5454 c0 -11 3 -14 6 -6 3 7 2 16 -1 19 -3 4 -6 -2 -5 -13z"/>
<path d="M2771 5454 c0 -11 3 -14 6 -6 3 7 2 16 -1 19 -3 4 -6 -2 -5 -13z"/>
<path d="M5462 5445 c0 -16 2 -22 5 -12 2 9 2 23 0 30 -3 6 -5 -1 -5 -18z"/>
<path d="M7212 5440 c0 -14 2 -19 5 -12 2 6 2 18 0 25 -3 6 -5 1 -5 -13z"/>
<path d="M2300 5433 c0 -10 5 -25 10 -33 7 -11 10 -7 10 18 0 17 -4 32 -10 32
-5 0 -10 -8 -10 -17z"/>
<path d="M7706 5431 c-4 -7 -5 -15 -2 -18 9 -9 19 4 14 18 -4 11 -6 11 -12 0z"/>
<path d="M2420 5411 c0 -6 5 -13 10 -16 6 -3 10 1 10 9 0 9 -4 16 -10 16 -5 0
-10 -4 -10 -9z"/>
<path d="M6771 5404 c0 -11 3 -14 6 -6 3 7 2 16 -1 19 -3 4 -6 -2 -5 -13z"/>
<path d="M2643 5360 c0 -30 2 -43 4 -27 2 15 2 39 0 55 -2 15 -4 2 -4 -28z"/>
<path d="M2542 5365 c0 -16 2 -22 5 -12 2 9 2 23 0 30 -3 6 -5 -1 -5 -18z"/>
<path d="M2563 5330 c0 -36 2 -50 4 -32 2 17 2 47 0 65 -2 17 -4 3 -4 -33z"/>
<path d="M6832 5370 c0 -14 2 -19 5 -12 2 6 2 18 0 25 -3 6 -5 1 -5 -13z"/>
<path d="M1772 5340 c0 -19 2 -27 5 -17 2 9 2 25 0 35 -3 9 -5 1 -5 -18z"/>
<path d="M1932 5345 c0 -16 2 -22 5 -12 2 9 2 23 0 30 -3 6 -5 -1 -5 -18z"/>
<path d="M3951 5354 c0 -11 3 -14 6 -6 3 7 2 16 -1 19 -3 4 -6 -2 -5 -13z"/>
<path d="M5613 5320 c0 -30 2 -43 4 -27 2 15 2 39 0 55 -2 15 -4 2 -4 -28z"/>
<path d="M2611 5334 c0 -11 3 -14 6 -6 3 7 2 16 -1 19 -3 4 -6 -2 -5 -13z"/>
<path d="M3395 5330 c-3 -5 -1 -10 4 -10 6 0 11 5 11 10 0 6 -2 10 -4 10 -3 0
-8 -4 -11 -10z"/>
<path d="M3861 5324 c0 -11 3 -14 6 -6 3 7 2 16 -1 19 -3 4 -6 -2 -5 -13z"/>
<path d="M6150 5331 c0 -5 5 -13 10 -16 6 -3 10 -2 10 4 0 5 -4 13 -10 16 -5
3 -10 2 -10 -4z"/>
<path d="M3082 5310 c0 -14 2 -19 5 -12 2 6 2 18 0 25 -3 6 -5 1 -5 -13z"/>
<path d="M3936 5302 c-2 -4 -1 -14 5 -22 7 -12 9 -10 9 8 0 23 -5 28 -14 14z"/>
<path d="M5491 5294 c0 -11 3 -14 6 -6 3 7 2 16 -1 19 -3 4 -6 -2 -5 -13z"/>
<path d="M2165 5280 c3 -5 8 -10 11 -10 2 0 4 5 4 10 0 6 -5 10 -11 10 -5 0
-7 -4 -4 -10z"/>
<path d="M3265 5280 c-3 -5 -1 -10 4 -10 6 0 11 5 11 10 0 6 -2 10 -4 10 -3 0
-8 -4 -11 -10z"/>
<path d="M3526 5243 c-4 -9 -2 -21 4 -27 7 -7 10 -2 10 17 0 31 -5 34 -14 10z"/>
<path d="M8165 5251 c-3 -5 -1 -12 5 -16 5 -3 10 1 10 9 0 18 -6 21 -15 7z"/>
<path d="M3851 5234 c0 -11 3 -14 6 -6 3 7 2 16 -1 19 -3 4 -6 -2 -5 -13z"/>
<path d="M8621 5234 c0 -11 3 -14 6 -6 3 7 2 16 -1 19 -3 4 -6 -2 -5 -13z"/>
<path d="M4191 5224 c0 -11 3 -14 6 -6 3 7 2 16 -1 19 -3 4 -6 -2 -5 -13z"/>
<path d="M8472 5220 c0 -14 2 -19 5 -12 2 6 2 18 0 25 -3 6 -5 1 -5 -13z"/>
<path d="M2120 5215 c0 -8 4 -15 10 -15 5 0 7 7 4 15 -4 8 -8 15 -10 15 -2 0
-4 -7 -4 -15z"/>
<path d="M2042 5200 c0 -14 2 -19 5 -12 2 6 2 18 0 25 -3 6 -5 1 -5 -13z"/>
<path d="M3821 5204 c0 -11 3 -14 6 -6 3 7 2 16 -1 19 -3 4 -6 -2 -5 -13z"/>
<path d="M8101 5204 c0 -11 3 -14 6 -6 3 7 2 16 -1 19 -3 4 -6 -2 -5 -13z"/>
<path d="M3092 5175 c0 -16 2 -22 5 -12 2 9 2 23 0 30 -3 6 -5 -1 -5 -18z"/>
<path d="M4190 5164 c0 -14 4 -23 10 -19 6 3 10 15 10 26 0 10 -4 19 -10 19
-5 0 -10 -12 -10 -26z"/>
<path d="M8192 5165 c0 -16 2 -22 5 -12 2 9 2 23 0 30 -3 6 -5 -1 -5 -18z"/>
<path d="M3804 5165 c-16 -12 -17 -14 -3 -15 9 0 19 7 23 15 7 19 5 19 -20 0z"/>
<path d="M2341 5161 c-8 -5 -20 -7 -28 -4 -15 6 -18 -13 -3 -22 6 -4 4 -12 -5
-21 -8 -9 -15 -21 -15 -28 0 -12 5 -14 50 -18 20 -2 24 -9 21 -38 -1 -11 1
-11 9 3 6 9 18 17 25 17 8 0 15 4 15 9 0 5 -9 7 -20 4 -11 -3 -20 -1 -20 5 0
12 29 24 41 16 5 -3 9 2 9 11 0 19 31 17 38 -3 2 -7 -2 -10 -12 -6 -9 3 -16 2
-16 -4 0 -5 9 -12 20 -15 11 -3 18 -2 15 3 -3 4 2 13 10 20 13 11 14 10 9 -5
-6 -14 -4 -16 7 -10 12 8 12 6 0 -8 -8 -10 -11 -20 -7 -24 3 -3 6 -1 6 6 0 7
4 10 9 7 22 -14 18 25 -5 43 -14 11 -24 23 -24 26 1 4 -2 10 -6 13 -4 4 -4 1
0 -5 4 -8 1 -13 -9 -13 -9 0 -13 5 -10 10 11 18 -6 32 -23 18 -9 -8 -13 -8 -9
-2 4 7 0 15 -9 18 -10 4 -13 2 -8 -7 5 -9 4 -9 -7 1 -15 14 -29 15 -48 3z m31
-65 c-3 -5 -9 -1 -14 8 -5 9 -14 14 -19 10 -6 -4 -6 -10 1 -19 8 -9 8 -15 0
-20 -5 -3 -13 1 -16 9 -7 19 14 48 29 39 6 -3 7 -1 3 5 -4 7 -4 18 1 25 8 13
23 -41 15 -57z m46 35 c11 -7 11 -9 -2 -14 -9 -4 -19 -8 -23 -9 -3 -2 -7 5 -9
15 -2 18 13 22 34 8z"/>
<path d="M3532 5150 c0 -14 2 -19 5 -12 2 6 2 18 0 25 -3 6 -5 1 -5 -13z"/>
<path d="M8512 5150 c0 -14 2 -19 5 -12 2 6 2 18 0 25 -3 6 -5 1 -5 -13z"/>
<path d="M2152 5148 c-7 -7 -12 -21 -11 -32 1 -18 2 -17 8 4 4 14 13 24 20 22
7 -1 10 2 6 8 -8 13 -8 13 -23 -2z"/>
<path d="M2272 5135 c-10 -21 -9 -25 3 -25 9 0 15 10 15 25 0 14 -2 25 -3 25
-2 0 -9 -11 -15 -25z"/>
<path d="M2240 5139 c0 -5 -4 -8 -9 -5 -5 4 -22 1 -38 -5 l-28 -11 24 -9 c17
-7 27 -6 33 3 5 9 8 6 8 -9 0 -24 -9 -29 -25 -14 -6 5 -19 5 -30 1 -17 -8 -16
-9 8 -9 16 -1 26 -5 22 -11 -4 -6 -10 -8 -14 -6 -4 3 -8 -1 -8 -9 0 -8 4 -15
8 -15 5 0 4 -11 -1 -25 -6 -15 -6 -26 1 -30 5 -4 9 -3 8 2 -1 4 -1 17 0 27 1
20 1 20 16 0 9 -12 14 -14 15 -6 0 7 4 11 9 8 5 -4 7 4 3 16 -3 13 -1 19 5 15
6 -4 15 6 21 22 8 23 7 31 -3 35 -9 3 -12 0 -9 -8 3 -8 1 -16 -3 -19 -5 -3 -9
3 -10 13 -1 11 2 22 8 25 12 8 12 35 -1 35 -5 0 -10 -5 -10 -11z m-9 -82 c-1
-4 -1 -14 -1 -23 0 -8 -4 -12 -10 -9 -13 8 -13 48 1 43 6 -2 10 -7 10 -11z"/>
<path d="M8844 5125 c3 -21 16 -31 16 -12 0 9 -4 18 -9 21 -5 4 -8 -1 -7 -9z"/>
<path d="M1041 5104 c0 -11 3 -14 6 -6 3 7 2 16 -1 19 -3 4 -6 -2 -5 -13z"/>
<path d="M3090 5109 c0 -5 5 -7 10 -4 6 3 10 8 10 11 0 2 -4 4 -10 4 -5 0 -10
-5 -10 -11z"/>
<path d="M8191 5104 c0 -11 3 -14 6 -6 3 7 2 16 -1 19 -3 4 -6 -2 -5 -13z"/>
<path d="M2108 5081 c-8 -11 -17 -18 -20 -15 -3 3 -8 -11 -10 -30 -4 -32 -2
-34 12 -21 23 20 33 19 21 -3 -5 -10 -6 -24 -2 -31 6 -9 10 -4 14 16 3 15 1
33 -3 38 -10 12 -8 40 3 51 4 4 7 -4 7 -19 0 -31 17 -45 26 -22 4 10 -1 25
-13 37 l-21 20 -14 -21z"/>
<path d="M3277 5094 c-4 -4 -7 -14 -7 -22 0 -12 3 -12 16 -1 13 10 17 10 25
-2 8 -11 9 -10 7 6 -3 20 -28 31 -41 19z"/>
<path d="M4193 5060 c0 -22 4 -37 8 -34 5 3 9 18 9 34 0 16 -4 31 -9 34 -4 3
-8 -12 -8 -34z"/>
<path d="M6654 4945 c0 -82 2 -115 3 -72 2 43 2 110 0 150 -1 40 -3 5 -3 -78z"/>
<path d="M8990 5080 c0 -5 5 -10 11 -10 5 0 7 5 4 10 -3 6 -8 10 -11 10 -2 0
-4 -4 -4 -10z"/>
<path d="M8842 5060 c0 -14 2 -19 5 -12 2 6 2 18 0 25 -3 6 -5 1 -5 -13z"/>
<path d="M2053 5054 c8 -13 -20 -27 -34 -18 -5 3 -9 -2 -9 -11 0 -13 4 -14 20
-5 16 9 20 8 20 -5 0 -9 -9 -15 -22 -16 -17 -1 -18 -3 -6 -6 10 -2 15 -10 11
-19 -3 -7 -10 -11 -16 -7 -6 4 -7 1 -3 -6 6 -9 12 -8 26 4 12 11 19 12 22 5 2
-7 3 9 3 33 0 25 -4 49 -9 54 -5 4 -6 3 -3 -3z"/>
<path d="M2294 5045 c9 -7 13 -20 9 -34 -5 -20 -4 -21 22 -9 22 10 24 13 10
18 -9 3 -16 9 -16 13 2 19 -1 23 -20 23 -17 0 -18 -2 -5 -11z"/>
<path d="M2431 5054 c-1 -6 8 -19 19 -29 11 -10 18 -21 15 -25 -2 -4 3 -7 11
-7 10 0 11 4 4 11 -5 5 -10 19 -10 29 0 13 -5 17 -14 14 -8 -3 -17 -1 -20 6
-3 8 -5 8 -5 1z"/>
<path d="M4954 4880 c0 -102 2 -143 3 -92 2 50 2 134 0 185 -1 50 -3 9 -3 -93z"/>
<path d="M8793 5015 c0 -22 2 -30 4 -17 2 12 2 30 0 40 -3 9 -5 -1 -4 -23z"/>
<path d="M2490 5030 c-18 -12 -2 -12 25 0 13 6 15 9 5 9 -8 0 -22 -4 -30 -9z"/>
<path d="M2160 5011 c0 -11 -6 -22 -12 -24 -8 -4 -7 -6 3 -6 9 -1 20 6 23 15
9 23 7 34 -4 34 -5 0 -10 -9 -10 -19z"/>
<path d="M2267 5005 c6 -28 5 -29 -13 -15 -17 14 -18 13 -7 -1 7 -9 10 -19 6
-22 -3 -4 -2 -7 4 -7 16 0 29 22 31 50 1 17 -1 21 -7 11 -7 -11 -10 -11 -14 0
-4 8 -3 1 0 -16z"/>
<path d="M2408 5023 c-28 -7 -21 -21 7 -15 14 2 25 8 25 13 0 9 -4 10 -32 2z"/>
<path d="M1985 5010 c3 -5 8 -10 11 -10 2 0 4 5 4 10 0 6 -5 10 -11 10 -5 0
-7 -4 -4 -10z"/>
<path d="M1970 4990 c6 -11 15 -20 20 -20 17 0 11 15 -11 28 -19 12 -19 11 -9
-8z"/>
<path d="M4193 4935 c0 -44 2 -61 4 -37 2 23 2 59 0 80 -2 20 -4 1 -4 -43z"/>
<path d="M852 4975 c0 -16 2 -22 5 -12 2 9 2 23 0 30 -3 6 -5 -1 -5 -18z"/>
<path d="M2433 4985 c0 -8 4 -12 9 -9 5 3 6 10 3 15 -9 13 -12 11 -12 -6z"/>
<path d="M2508 4993 c7 -3 16 -2 19 1 4 3 -2 6 -13 5 -11 0 -14 -3 -6 -6z"/>
<path d="M1940 4980 c0 -5 5 -10 10 -10 6 0 10 5 10 10 0 6 -4 10 -10 10 -5 0
-10 -4 -10 -10z"/>
<path d="M2385 4980 c-3 -6 1 -7 9 -4 18 7 21 14 7 14 -6 0 -13 -4 -16 -10z"/>
<path d="M2760 4981 c0 -12 32 -24 39 -14 4 4 5 7 2 6 -2 -1 -12 2 -22 8 -11
6 -19 6 -19 0z"/>
<path d="M2325 4970 c4 -6 11 -8 16 -5 14 9 11 15 -7 15 -8 0 -12 -5 -9 -10z"/>
<path d="M8161 4968 c0 -9 -8 -21 -17 -26 -12 -7 -13 -11 -4 -17 17 -11 32 9
27 36 -2 14 -5 17 -6 7z"/>
<path d="M1917 4954 c3 -7 9 -14 14 -14 14 0 10 17 -5 23 -10 4 -13 1 -9 -9z"/>
<path d="M2157 4964 c-11 -11 -8 -52 5 -60 7 -5 9 0 6 14 -4 16 -1 22 15 24
11 2 22 9 23 16 1 7 0 8 -3 2 -6 -13 -30 -13 -35 1 -2 5 -7 7 -11 3z"/>
<path d="M1597 4945 c-10 -7 -14 -16 -9 -19 5 -3 15 1 22 9 17 21 9 27 -13 10z"/>
<path d="M1954 4948 c-5 -7 -3 -8 5 -3 7 4 22 -2 36 -15 15 -14 25 -18 30 -11
3 6 -1 11 -9 11 -9 0 -16 7 -16 15 0 18 -36 20 -46 3z"/>
<path d="M2350 4952 c0 -4 9 -13 21 -20 19 -12 19 -11 9 8 -10 19 -30 28 -30
12z"/>
<path d="M2432 4937 c7 -14 13 -17 16 -9 2 6 8 10 13 6 5 -3 9 0 9 5 0 6 -3
11 -7 12 -5 0 -16 2 -25 4 -15 3 -16 0 -6 -18z"/>
<path d="M2055 4943 c-5 -5 -11 -13 -12 -19 -3 -13 34 -7 43 7 7 12 41 11 47
-1 3 -6 4 -5 3 2 -3 14 -65 22 -81 11z"/>
<path d="M2229 4939 c-8 -5 -8 -9 0 -13 6 -4 9 -12 6 -17 -3 -5 1 -6 9 -3 10
4 16 1 16 -7 0 -8 6 -5 14 6 8 11 12 25 9 31 -5 13 -36 15 -54 3z m46 -19 c-3
-5 -13 -6 -21 -3 -12 4 -13 8 -3 14 15 9 32 2 24 -11z"/>
<path d="M2330 4930 c0 -5 5 -10 11 -10 5 0 7 5 4 10 -3 6 -8 10 -11 10 -2 0
-4 -4 -4 -10z"/>
<path d="M1895 4920 c-3 -5 -1 -10 4 -10 6 0 11 5 11 10 0 6 -2 10 -4 10 -3 0
-8 -4 -11 -10z"/>
<path d="M1930 4920 c8 -5 20 -10 25 -10 6 0 3 5 -5 10 -8 5 -19 10 -25 10 -5
0 -3 -5 5 -10z"/>
<path d="M1915 4899 c-4 -6 -5 -12 -2 -15 2 -3 7 2 10 11 7 17 1 20 -8 4z"/>
<path d="M2335 4900 c-16 -7 -17 -9 -3 -9 9 -1 20 4 23 9 7 11 7 11 -20 0z"/>
<path d="M1995 4889 c-11 -16 -1 -19 13 -3 7 8 8 14 3 14 -5 0 -13 -5 -16 -11z"/>
<path d="M2365 4891 c-3 -5 -1 -12 5 -16 5 -3 10 1 10 9 0 18 -6 21 -15 7z"/>
<path d="M1936 4878 c3 -5 10 -6 15 -3 13 9 11 12 -6 12 -8 0 -12 -4 -9 -9z"/>
<path d="M2200 4876 c0 -8 4 -17 9 -20 5 -4 7 3 4 14 -6 23 -13 26 -13 6z"/>
<path d="M2265 4880 c-16 -7 -17 -9 -3 -9 9 -1 20 4 23 9 7 11 7 11 -20 0z"/>
<path d="M6375 4879 c-9 -14 -2 -20 14 -10 8 6 9 11 3 15 -6 3 -14 1 -17 -5z"/>
<path d="M2334 4869 c-3 -6 -2 -15 3 -20 5 -5 9 -1 9 11 0 23 -2 24 -12 9z"/>
<path d="M2157 4863 c-4 -3 -7 -11 -7 -17 0 -6 5 -5 12 2 6 6 9 14 7 17 -3 3
-9 2 -12 -2z"/>
<path d="M1913 4846 c5 -14 3 -17 -8 -13 -8 4 -17 2 -20 -3 -9 -15 29 -12 51
4 10 8 16 18 11 22 -4 4 -7 2 -7 -6 0 -10 -4 -10 -17 1 -15 12 -16 12 -10 -5z"/>
<path d="M9482 4840 c0 -14 2 -19 5 -12 2 6 2 18 0 25 -3 6 -5 1 -5 -13z"/>
<path d="M2379 4838 c14 -19 32 -15 30 5 0 8 -2 8 -6 -1 -4 -10 -8 -10 -21 0
-15 12 -16 11 -3 -4z"/>
<path d="M614 4826 c-3 -8 -4 -27 -2 -43 3 -23 5 -20 9 15 5 43 2 53 -7 28z"/>
<path d="M4192 4820 c0 -14 2 -19 5 -12 2 6 2 18 0 25 -3 6 -5 1 -5 -13z"/>
<path d="M9381 4824 c0 -11 3 -14 6 -6 3 7 2 16 -1 19 -3 4 -6 -2 -5 -13z"/>
<path d="M742 4805 c0 -16 2 -22 5 -12 2 9 2 23 0 30 -3 6 -5 -1 -5 -18z"/>
<path d="M1850 4820 c-13 -8 -12 -10 3 -10 9 0 17 5 17 10 0 12 -1 12 -20 0z"/>
<path d="M2417 4813 c-3 -5 -1 -17 4 -28 6 -17 7 -16 6 8 -1 28 -3 32 -10 20z"/>
<path d="M1930 4800 c-13 -8 -12 -10 3 -10 9 0 17 5 17 10 0 12 -1 12 -20 0z"/>
<path d="M2025 4800 c3 -5 8 -10 11 -10 2 0 4 5 4 10 0 6 -5 10 -11 10 -5 0
-7 -4 -4 -10z"/>
<path d="M2165 4800 c3 -5 14 -10 23 -10 15 0 15 2 2 10 -20 13 -33 13 -25 0z"/>
<path d="M1780 4790 c-9 -6 -10 -10 -3 -10 6 0 15 5 18 10 8 12 4 12 -15 0z"/>
<path d="M1979 4738 c-32 -41 -45 -65 -63 -119 -16 -47 -19 -63 -36 -172 -29
-196 -57 -343 -66 -359 -8 -13 -102 28 -173 75 -36 24 -86 55 -111 68 -25 13
-46 27 -48 32 -2 4 -8 7 -13 7 -6 0 -35 11 -64 25 -30 13 -66 27 -80 31 -14 3
-23 9 -21 13 2 3 -8 6 -22 7 -63 2 -114 9 -118 16 -3 4 -11 5 -20 1 -28 -10 6
-33 51 -33 23 0 61 -6 83 -14 22 -8 43 -12 46 -9 3 4 6 1 6 -5 0 -7 6 -12 13
-12 14 0 229 -107 237 -119 5 -7 57 -40 100 -63 14 -7 48 -28 75 -47 52 -34
52 -33 80 -151 8 -34 42 -99 49 -93 4 4 4 0 1 -9 -4 -9 0 -30 8 -45 8 -15 25
-48 38 -73 32 -64 61 -100 72 -93 6 3 7 1 3 -5 -4 -6 -2 -19 3 -29 5 -10 12
-30 15 -44 8 -37 72 -119 131 -168 93 -78 304 -180 515 -250 157 -52 184 -60
216 -65 17 -3 48 -13 69 -21 20 -9 39 -14 42 -11 3 2 28 -4 57 -14 l52 -18 -4
29 c-4 25 -11 31 -56 43 -28 9 -112 34 -186 56 -74 22 -142 42 -150 45 -16 4
-113 40 -195 73 -55 22 -171 78 -224 108 -55 31 -150 112 -181 156 -16 22 -32
60 -36 85 -4 25 -13 47 -21 50 -11 4 -12 8 -3 13 10 6 10 16 0 44 -7 23 -16
34 -23 29 -9 -5 -9 -3 0 8 9 11 8 24 -8 59 -11 25 -20 46 -19 48 6 12 -97 197
-130 235 -23 26 -35 44 -27 41 17 -6 22 13 32 121 3 39 10 95 15 125 5 30 11
75 14 100 17 136 64 271 97 282 6 2 9 14 7 26 -3 21 -4 21 -29 -10z m-54 -878
c-3 -5 -12 -10 -18 -10 -7 0 -6 4 3 10 19 12 23 12 15 0z m66 -153 c-10 -9
-11 -8 -5 6 3 10 9 15 12 12 3 -3 0 -11 -7 -18z"/>
<path d="M2380 4755 c-7 -9 -8 -15 -2 -15 5 0 12 7 16 15 3 8 4 15 2 15 -2 0
-9 -7 -16 -15z"/>
<path d="M1920 4730 c0 -5 5 -10 11 -10 5 0 7 5 4 10 -3 6 -8 10 -11 10 -2 0
-4 -4 -4 -10z"/>
<path d="M2303 4708 c-12 -20 -12 -38 -1 -38 6 0 8 6 5 14 -3 7 0 19 6 25 6 6
8 11 5 11 -4 0 -10 -6 -15 -12z"/>
<path d="M1813 4677 c0 -8 6 -14 14 -14 9 0 10 4 2 14 -6 7 -12 13 -14 13 -1
0 -2 -6 -2 -13z"/>
<path d="M1777 4669 c7 -7 15 -10 18 -7 3 3 -2 9 -12 12 -14 6 -15 5 -6 -5z"/>
<path d="M343 4635 c0 -22 2 -30 4 -17 2 12 2 30 0 40 -3 9 -5 -1 -4 -23z"/>
<path d="M9062 4625 c0 -16 2 -22 5 -12 2 9 2 23 0 30 -3 6 -5 -1 -5 -18z"/>
<path d="M401 4624 c0 -11 3 -14 6 -6 3 7 2 16 -1 19 -3 4 -6 -2 -5 -13z"/>
<path d="M4952 4600 c0 -19 2 -27 5 -17 2 9 2 25 0 35 -3 9 -5 1 -5 -18z"/>
<path d="M1767 4589 c7 -7 15 -10 18 -7 3 3 -2 9 -12 12 -14 6 -15 5 -6 -5z"/>
<path d="M402 4570 c0 -14 2 -19 5 -12 2 6 2 18 0 25 -3 6 -5 1 -5 -13z"/>
<path d="M9062 4540 c0 -19 2 -27 5 -17 2 9 2 25 0 35 -3 9 -5 1 -5 -18z"/>
<path d="M242 4515 c0 -16 2 -22 5 -12 2 9 2 23 0 30 -3 6 -5 -1 -5 -18z"/>
<path d="M4951 4514 c0 -11 3 -14 6 -6 3 7 2 16 -1 19 -3 4 -6 -2 -5 -13z"/>
<path d="M1065 4500 c-3 -6 1 -7 9 -4 18 7 21 14 7 14 -6 0 -13 -4 -16 -10z"/>
<path d="M1135 4481 c-3 -5 -2 -12 3 -15 5 -3 9 1 9 9 0 17 -3 19 -12 6z"/>
<path d="M1171 4483 c-1 -17 16 -25 25 -12 4 7 3 9 -4 5 -5 -3 -13 0 -15 6 -4
9 -6 10 -6 1z"/>
<path d="M2512 4460 c0 -14 2 -19 5 -12 2 6 2 18 0 25 -3 6 -5 1 -5 -13z"/>
<path d="M9062 4455 c0 -16 2 -22 5 -12 2 9 2 23 0 30 -3 6 -5 -1 -5 -18z"/>
<path d="M1095 4462 c-13 -9 -13 -28 0 -41 7 -7 10 0 10 20 0 16 0 29 0 29 0
0 -5 -4 -10 -8z"/>
<path d="M1040 4448 c0 -4 4 -8 9 -8 6 0 12 4 15 8 3 5 -1 9 -9 9 -8 0 -15 -4
-15 -9z"/>
<path d="M1205 4450 c-3 -5 -2 -18 4 -27 7 -14 9 -12 8 10 -2 30 -3 31 -12 17z"/>
<path d="M935 4440 c-3 -5 -1 -18 4 -27 9 -15 10 -14 9 10 -3 30 -4 32 -13 17z"/>
<path d="M1011 4424 c0 -11 3 -14 6 -6 3 7 2 16 -1 19 -3 4 -6 -2 -5 -13z"/>
<path d="M4942 4400 c0 -14 2 -19 5 -12 2 6 2 18 0 25 -3 6 -5 1 -5 -13z"/>
<path d="M895 4397 c18 -14 14 -37 -6 -37 -6 0 -8 3 -6 8 3 4 -1 13 -9 20 -8
7 -14 11 -15 10 -5 -21 -6 -39 -2 -34 4 3 13 0 21 -6 12 -10 18 -8 34 12 19
23 19 24 1 31 -30 12 -38 10 -18 -4z"/>
<path d="M991 4376 c-9 -11 -9 -16 0 -22 7 -4 9 -3 5 4 -3 5 0 12 6 15 7 2 10
7 7 11 -3 4 -12 0 -18 -8z"/>
<path d="M935 4370 c-8 -13 3 -30 18 -29 9 0 9 2 0 5 -7 3 -9 12 -6 20 6 16
-3 19 -12 4z"/>
<path d="M781 4343 c-16 -17 -11 -25 8 -14 7 5 12 13 10 19 -2 6 -10 4 -18 -5z"/>
<path d="M9062 4335 c0 -16 2 -22 5 -12 2 9 2 23 0 30 -3 6 -5 -1 -5 -18z"/>
<path d="M816 4342 c-2 -4 -1 -14 4 -22 7 -11 9 -9 7 8 -1 24 -3 26 -11 14z"/>
<path d="M901 4324 c0 -11 3 -14 6 -6 3 7 2 16 -1 19 -3 4 -6 -2 -5 -13z"/>
<path d="M975 4329 c-11 -16 -1 -19 13 -3 7 8 8 14 3 14 -5 0 -13 -5 -16 -11z"/>
<path d="M214 4205 c0 -66 1 -92 3 -57 2 34 2 88 0 120 -2 31 -3 3 -3 -63z"/>
<path d="M730 4310 c0 -5 10 -10 23 -10 18 0 19 2 7 10 -19 13 -30 13 -30 0z"/>
<path d="M780 4300 c0 -5 9 -14 20 -20 11 -6 20 -9 20 -8 0 2 -9 11 -20 21
-11 9 -20 13 -20 7z"/>
<path d="M712 4274 c-1 -12 3 -26 8 -29 6 -3 10 -1 10 5 0 6 4 9 9 6 5 -4 7 3
4 13 -7 29 -29 33 -31 5z"/>
<path d="M952 4270 c-8 -13 -8 -20 -2 -20 6 0 13 7 17 15 9 24 -1 27 -15 5z"/>
<path d="M1089 4273 c-13 -16 -12 -17 4 -4 9 7 17 15 17 17 0 8 -8 3 -21 -13z"/>
<path d="M682 4272 c-7 -5 -15 -25 -19 -46 -5 -32 -4 -36 13 -29 11 4 13 8 6
11 -14 4 -16 32 -3 32 5 0 11 9 14 20 3 11 4 20 4 20 -1 0 -8 -4 -15 -8z"/>
<path d="M840 4270 c0 -5 5 -10 11 -10 5 0 7 5 4 10 -3 6 -8 10 -11 10 -2 0
-4 -4 -4 -10z"/>
<path d="M983 4265 c-3 -9 -3 -18 -1 -21 3 -3 8 4 11 16 6 23 -1 27 -10 5z"/>
<path d="M765 4260 c-3 -6 1 -7 9 -4 18 7 21 14 7 14 -6 0 -13 -4 -16 -10z"/>
<path d="M820 4250 c0 -5 5 -10 11 -10 5 0 7 5 4 10 -3 6 -8 10 -11 10 -2 0
-4 -4 -4 -10z"/>
<path d="M4944 4115 c0 -82 2 -115 3 -72 2 43 2 110 0 150 -1 40 -3 5 -3 -78z"/>
<path d="M1040 4246 c0 -2 7 -7 16 -10 8 -3 12 -2 9 4 -6 10 -25 14 -25 6z"/>
<path d="M990 4230 c-9 -6 -10 -10 -3 -10 6 0 15 5 18 10 8 12 4 12 -15 0z"/>
<path d="M902 4216 c7 -8 15 -12 17 -11 5 6 -10 25 -20 25 -5 0 -4 -6 3 -14z"/>
<path d="M725 4210 c3 -5 10 -10 16 -10 5 0 9 5 9 10 0 6 -7 10 -16 10 -8 0
-12 -4 -9 -10z"/>
<path d="M761 4214 c-1 -15 28 -39 36 -30 3 3 1 6 -6 6 -7 0 -9 5 -5 12 4 6 3
8 -4 4 -5 -3 -13 0 -15 6 -4 8 -6 9 -6 2z"/>
<path d="M622 4201 c-10 -6 -9 -10 7 -14 14 -3 21 0 21 9 0 16 -9 18 -28 5z"/>
<path d="M700 4192 c0 -7 5 -12 11 -12 8 0 8 -5 -1 -15 -7 -8 -18 -15 -26 -15
-7 0 -16 -4 -19 -10 -4 -6 6 -8 24 -6 17 2 31 -1 31 -7 0 -6 3 -7 6 -4 4 4 1
13 -6 22 -10 13 -9 15 9 15 13 0 21 -6 21 -17 0 -15 2 -15 9 -4 8 13 -8 45
-18 35 -2 -2 -13 3 -23 13 -11 9 -18 11 -18 5z"/>
<path d="M23 4183 c4 -3 -1 -16 -10 -27 -18 -21 -18 -21 4 -2 20 16 23 36 6
36 -4 0 -3 -3 0 -7z"/>
<path d="M843 4155 c-3 -9 -3 -18 -1 -21 3 -3 8 4 11 16 6 23 -1 27 -10 5z"/>
<path d="M885 4160 c-3 -5 -1 -10 4 -10 6 0 11 5 11 10 0 6 -2 10 -4 10 -3 0
-8 -4 -11 -10z"/>
<path d="M1033 4155 c0 -8 4 -12 9 -9 5 3 6 10 3 15 -9 13 -12 11 -12 -6z"/>
<path d="M596 4145 c4 -10 2 -15 -6 -13 -7 2 -15 -3 -17 -10 -4 -11 -1 -12 15
-3 32 17 39 12 13 -9 l-23 -20 26 0 c14 0 26 4 26 10 0 14 43 6 48 -9 2 -6 0
-11 -5 -10 -20 3 -30 -2 -30 -17 0 -15 2 -15 13 0 13 18 31 5 19 -14 -3 -5 -4
-10 -1 -10 3 0 10 9 16 21 9 16 8 25 -6 40 -9 10 -25 19 -36 19 -10 0 -18 4
-18 10 0 5 -9 14 -20 20 -16 9 -18 8 -14 -5z"/>
<path d="M951 4155 c1 -19 18 -51 18 -35 0 8 -4 22 -9 30 -5 8 -9 11 -9 5z"/>
<path d="M26 4116 c5 -22 3 -25 -12 -20 -18 5 -18 5 -2 -8 13 -11 18 -34 21
-94 3 -72 3 -70 5 28 1 65 -2 109 -8 113 -7 4 -9 -2 -4 -19z"/>
<path d="M182 4090 c0 -19 2 -27 5 -17 2 9 2 25 0 35 -3 9 -5 1 -5 -18z"/>
<path d="M755 4103 c-16 -13 -17 -15 -2 -10 9 4 17 2 17 -3 0 -6 5 -10 11 -10
8 0 9 4 0 13 -6 8 -8 17 -4 20 12 13 -2 6 -22 -10z"/>
<path d="M846 4104 c-9 -23 -4 -24 17 -2 13 14 14 18 3 18 -8 0 -17 -7 -20
-16z"/>
<path d="M989 4093 c-13 -16 -12 -17 4 -4 16 13 21 21 13 21 -2 0 -10 -8 -17
-17z"/>
<path d="M800 4090 c0 -5 5 -10 11 -10 5 0 7 5 4 10 -3 6 -8 10 -11 10 -2 0
-4 -4 -4 -10z"/>
<path d="M864 4089 c-3 -6 -1 -16 6 -22 10 -9 11 -9 5 2 -4 8 -2 17 6 22 9 6
10 9 2 9 -6 0 -15 -5 -19 -11z"/>
<path d="M8343 4025 c0 -38 2 -53 4 -32 2 20 2 52 0 70 -2 17 -4 1 -4 -38z"/>
<path d="M200 4046 c0 -20 2 -36 4 -36 8 0 12 61 4 66 -4 3 -8 -11 -8 -30z"/>
<path d="M580 4070 c0 -5 5 -10 11 -10 5 0 7 5 4 10 -3 6 -8 10 -11 10 -2 0
-4 -4 -4 -10z"/>
<path d="M736 4045 c4 -9 -2 -25 -11 -35 -21 -23 -11 -27 11 -6 16 17 18 42 4
51 -6 3 -7 -1 -4 -10z"/>
<path d="M580 4041 c0 -6 4 -13 10 -16 6 -3 7 1 4 9 -7 18 -14 21 -14 7z"/>
<path d="M775 4033 c2 -10 4 -22 4 -27 2 -16 15 4 16 24 1 11 -4 20 -11 20 -7
0 -11 -8 -9 -17z"/>
<path d="M569 4018 c7 -10 23 -17 35 -17 20 1 20 2 1 6 -11 3 -27 10 -35 17
-13 10 -13 9 -1 -6z"/>
<path d="M630 4022 c0 -5 7 -9 15 -9 8 0 15 4 15 9 0 4 -7 8 -15 8 -8 0 -15
-4 -15 -8z"/>
<path d="M885 4020 c-3 -5 -2 -10 4 -10 5 0 13 5 16 10 3 6 2 10 -4 10 -5 0
-13 -4 -16 -10z"/>
<path d="M675 4010 c3 -5 10 -10 16 -10 5 0 9 5 9 10 0 6 -7 10 -16 10 -8 0
-12 -4 -9 -10z"/>
<path d="M850 3996 c0 -3 9 -10 20 -16 11 -6 20 -8 20 -6 0 3 -9 10 -20 16
-11 6 -20 8 -20 6z"/>
<path d="M625 3980 c3 -5 8 -10 11 -10 2 0 4 5 4 10 0 6 -5 10 -11 10 -5 0 -7
-4 -4 -10z"/>
<path d="M650 3978 c0 -11 12 -10 30 2 12 7 10 9 -8 7 -12 0 -22 -5 -22 -9z"/>
<path d="M704 3962 c3 -5 0 -13 -6 -15 -9 -4 -10 -6 -1 -6 17 -1 25 16 12 25
-7 4 -9 3 -5 -4z"/>
<path d="M935 3961 c-6 -11 13 -26 22 -17 4 3 1 6 -6 6 -7 0 -9 5 -6 10 3 6 4
10 1 10 -3 0 -7 -4 -11 -9z"/>
<path d="M795 3939 c-4 -6 -5 -12 -2 -15 2 -3 7 2 10 11 7 17 1 20 -8 4z"/>
<path d="M8344 3820 c0 -74 1 -105 3 -67 2 37 2 97 0 135 -2 37 -3 6 -3 -68z"/>
<path d="M222 3915 c0 -16 2 -22 5 -12 2 9 2 23 0 30 -3 6 -5 -1 -5 -18z"/>
<path d="M451 3904 c0 -11 3 -14 6 -6 3 7 2 16 -1 19 -3 4 -6 -2 -5 -13z"/>
<path d="M738 3913 c7 -3 16 -2 19 1 4 3 -2 6 -13 5 -11 0 -14 -3 -6 -6z"/>
<path d="M31 3864 c0 -11 3 -14 6 -6 3 7 2 16 -1 19 -3 4 -6 -2 -5 -13z"/>
<path d="M8342 3650 c0 -19 2 -27 5 -17 2 9 2 25 0 35 -3 9 -5 1 -5 -18z"/>
<path d="M913 3085 c0 -38 2 -53 4 -32 2 20 2 52 0 70 -2 17 -4 1 -4 -38z"/>
<path d="M3210 2983 c0 -10 -4 -14 -8 -8 -6 9 -18 10 -64 6 -37 -3 -16 -19 30
-24 26 -2 72 -11 102 -20 77 -22 376 -83 445 -92 22 -2 65 -10 95 -16 30 -6
66 -13 80 -14 14 -2 41 -6 60 -9 60 -11 143 -25 180 -30 57 -8 154 -20 173
-22 9 -1 18 -2 20 -4 1 -1 18 -4 37 -6 19 -2 60 -7 90 -11 30 -3 66 -7 80 -8
14 -1 32 -4 40 -8 8 -3 49 -8 90 -11 41 -3 84 -8 95 -10 11 -2 45 -7 75 -11
30 -3 69 -8 85 -11 17 -2 72 -9 123 -14 103 -11 244 -27 309 -35 40 -6 41 -5
39 20 -2 14 -6 28 -9 31 -3 4 -59 10 -124 15 -65 5 -149 13 -188 19 -38 6
-101 12 -140 15 -72 5 -110 10 -207 25 -32 5 -67 7 -78 5 -11 -2 -20 0 -20 4
0 5 -8 8 -17 8 -17 -1 -149 13 -183 19 -8 2 -51 8 -95 14 -44 6 -116 17 -160
25 -44 8 -102 17 -130 20 -27 3 -68 10 -90 15 -22 5 -62 12 -90 15 -27 4 -78
13 -113 21 -34 7 -81 16 -103 19 -23 3 -71 12 -108 21 -36 8 -82 17 -101 20
-19 3 -59 12 -89 20 -30 9 -72 18 -93 20 -32 4 -38 2 -38 -13z"/>
<path d="M913 2925 c0 -38 2 -53 4 -32 2 20 2 52 0 70 -2 17 -4 1 -4 -38z"/>
<path d="M3150 2840 c-11 -7 -12 -12 -4 -20 8 -8 13 -6 17 9 3 12 4 21 4 21
-1 0 -9 -5 -17 -10z"/>
<path d="M1791 2804 c0 -11 3 -14 6 -6 3 7 2 16 -1 19 -3 4 -6 -2 -5 -13z"/>
<path d="M1794 2630 c0 -58 1 -81 3 -52 2 28 2 76 0 105 -2 28 -3 5 -3 -53z"/>
<path d="M8342 2705 c0 -16 2 -22 5 -12 2 9 2 23 0 30 -3 6 -5 -1 -5 -18z"/>
<path d="M5430 2654 c0 -8 5 -12 10 -9 6 3 10 10 10 16 0 5 -4 9 -10 9 -5 0
-10 -7 -10 -16z"/>
<path d="M5498 2641 l4 -29 107 -8 c58 -4 124 -8 146 -9 22 -2 40 -4 40 -5 0
-2 14 -4 30 -5 17 -1 91 -5 165 -10 74 -5 146 -10 160 -11 46 -5 404 -25 502
-28 53 -2 101 -7 107 -10 6 -4 11 -1 11 6 0 9 2 10 8 1 5 -7 78 -13 227 -17
387 -11 428 -13 441 -30 15 -21 84 -22 84 -1 0 8 -7 15 -16 15 -12 0 -15 7
-12 25 3 14 1 25 -3 25 -5 0 -9 -11 -9 -25 0 -20 -5 -25 -25 -25 -20 0 -25 5
-25 24 0 23 -2 24 -127 30 -71 4 -191 10 -268 12 -231 9 -274 11 -430 20 -82
4 -166 9 -185 9 -19 1 -60 5 -90 8 -30 4 -112 9 -183 12 -70 3 -191 12 -270
19 -78 8 -149 14 -157 14 -35 0 -206 14 -221 18 -12 3 -15 -2 -11 -25z"/>
<path d="M3110 2595 c-7 -25 -10 -48 -8 -51 3 -2 11 16 17 42 15 61 8 68 -9 9z"/>
<path d="M5405 2580 c-3 -6 0 -13 9 -16 23 -9 69 0 74 14 5 15 -74 17 -83 2z"/>
<path d="M7553 2518 l0 -26 135 -1 c74 -1 138 -3 141 -5 3 -2 228 -7 499 -11
l492 -7 0 31 0 31 -112 0 c-62 0 -348 3 -634 7 l-521 6 0 -25z"/>
<path d="M913 2425 c0 -22 2 -30 4 -17 2 12 2 30 0 40 -3 9 -5 -1 -4 -23z"/>
<path d="M94 2225 c0 -49 1 -71 3 -48 2 23 2 64 0 90 -2 26 -3 8 -3 -42z"/>
<path d="M88 2100 c-11 -57 -9 -485 3 -473 6 6 8 107 7 259 -2 137 -6 233 -10
214z"/>
<path d="M912 2110 c0 -14 2 -19 5 -12 2 6 2 18 0 25 -3 6 -5 1 -5 -13z"/>
<path d="M2910 2000 c0 -5 5 -10 11 -10 5 0 7 5 4 10 -3 6 -8 10 -11 10 -2 0
-4 -4 -4 -10z"/>
<path d="M2885 1977 c0 -17 6 -23 25 -25 22 -1 23 0 8 9 -10 5 -18 17 -18 24
0 8 -3 15 -7 15 -5 0 -8 -10 -8 -23z"/>
<path d="M5206 1728 c3 -5 10 -6 15 -3 13 9 11 12 -6 12 -8 0 -12 -4 -9 -9z"/>
<path d="M908 1608 c-2 -13 -1 -36 3 -53 5 -24 7 -20 8 23 1 54 -4 68 -11 30z"/>
<path d="M5297 1613 c-4 -3 -7 -11 -7 -17 0 -6 5 -5 12 2 6 6 9 14 7 17 -3 3
-9 2 -12 -2z"/>
<path d="M87 1593 c-3 -5 -8 -219 -12 -478 -8 -622 -8 -608 -22 -613 -7 -2
-13 1 -13 8 0 6 4 8 10 5 12 -7 3 176 -9 188 -5 5 -7 -5 -5 -22 2 -16 -1 -33
-6 -36 -5 -3 -7 0 -4 8 3 8 1 18 -5 21 -6 4 -8 13 -5 20 3 8 2 16 -3 19 -4 3
-8 -19 -9 -49 -1 -48 1 -52 15 -42 12 9 11 7 -2 -8 -15 -19 -17 -49 -17 -317
l0 -297 269 0 c243 0 303 5 272 24 -12 8 -24 64 -21 109 1 21 -3 37 -9 37 -6
0 -10 -3 -10 -7 1 -5 1 -19 0 -33 -1 -20 -3 -22 -11 -10 -5 8 -10 10 -10 4 0
-6 3 -14 7 -17 3 -4 8 -19 9 -33 l3 -27 -31 34 c-16 19 -25 27 -19 17 9 -12 9
-18 0 -24 -7 -4 -9 -3 -5 4 3 6 1 14 -4 17 -8 5 -6 13 5 25 14 16 14 18 0 23
-10 4 -15 19 -15 43 0 27 -3 35 -14 31 -9 -4 -17 1 -19 11 -4 14 -5 14 -6 -2
0 -10 6 -24 16 -31 10 -8 13 -17 7 -26 -4 -8 -8 -27 -7 -44 1 -16 -1 -22 -3
-12 -3 10 -10 14 -17 10 -8 -4 -7 -1 1 9 11 14 10 16 -7 11 -13 -3 -21 -1 -21
6 0 7 4 10 8 7 20 -12 30 10 17 39 -12 27 -13 27 -14 8 -1 -13 -5 -23 -10 -23
-5 0 -7 8 -4 19 3 10 0 22 -6 25 -7 5 -11 -2 -12 -16 -1 -19 -3 -18 -9 7 l-8
30 -2 -35 c-1 -21 -4 -28 -7 -16 -4 15 -7 16 -14 5 -6 -9 -9 -1 -8 26 0 32 2
36 9 20 8 -17 9 -17 7 7 -1 15 -5 24 -9 22 -4 -3 -8 19 -9 48 -1 42 -3 48 -9
28 -9 -29 -10 -28 -17 20 -7 55 -13 49 -13 -15 0 -59 -8 -73 -12 -19 -2 42
-11 53 -19 24 -6 -21 -7 -18 -8 15 -1 26 -4 35 -10 27 -5 -9 -8 0 -8 26 0 52
-11 69 -29 45 -12 -16 -13 -15 -14 17 l-2 35 -12 -40 c-12 -38 -21 -36 -26 5
-10 92 -16 660 -7 660 5 0 5 5 2 10 -3 6 -6 107 -6 225 0 118 -1 215 -4 215
-2 0 -6 -3 -8 -7z m70 -1184 c-4 -22 -4 -21 -6 4 -1 19 -5 26 -13 21 -7 -5 -8
-3 -3 5 11 19 27 -3 22 -30z m20 -11 c-3 -8 -6 -5 -6 6 -1 11 2 17 5 13 3 -3
4 -12 1 -19z m21 -63 c-3 -3 -9 2 -12 12 -6 14 -5 15 5 6 7 -7 10 -15 7 -18z
m79 -53 c1 -32 0 -33 -7 -12 -11 33 -12 50 -2 50 4 0 8 -17 9 -38z m-30 -29
c-3 -10 -5 -4 -5 12 0 17 2 24 5 18 2 -7 2 -21 0 -30z"/>
<path d="M5263 1559 c-12 -30 -11 -32 3 -17 9 8 14 23 12 33 -2 12 -7 7 -15
-16z"/>
<path d="M2252 1544 c-20 -20 -30 -32 -22 -27 8 6 37 18 63 28 26 10 50 22 54
27 3 6 -4 5 -15 -1 -26 -14 -45 -14 -37 -1 13 21 -7 9 -43 -26z"/>
<path d="M3970 1543 c-23 -10 -41 -31 -31 -37 5 -4 11 -1 13 6 3 8 7 6 11 -5
4 -11 -1 -21 -16 -29 -21 -12 -25 -13 -44 -17 -5 -1 -1 -6 7 -11 28 -18 55
-11 73 20 16 27 15 34 -5 32 -3 -1 -9 5 -12 13 -3 9 1 15 9 15 8 0 15 5 15 10
0 6 -1 10 -2 9 -2 0 -10 -3 -18 -6z"/>
<path d="M1792 1460 c0 -14 2 -19 5 -12 2 6 2 18 0 25 -3 6 -5 1 -5 -13z"/>
<path d="M3970 1408 c-6 -7 -23 -32 -38 -54 -15 -23 -54 -72 -87 -109 -33 -37
-62 -72 -64 -78 -6 -17 114 119 158 178 44 59 54 75 47 75 -3 0 -10 -6 -16
-12z"/>
<path d="M912 1380 c0 -14 2 -19 5 -12 2 6 2 18 0 25 -3 6 -5 1 -5 -13z"/>
<path d="M8363 1370 c1 -3 -4 -15 -11 -26 -10 -19 -9 -23 11 -28 12 -3 33 -5
47 -5 l25 0 -22 11 c-13 6 -23 15 -23 20 0 5 5 6 10 3 6 -3 10 -1 10 4 0 6 -8
11 -17 11 -15 0 -16 2 -3 10 12 7 10 9 -7 7 -12 0 -21 -4 -20 -7z m17 -40 c0
-5 -2 -10 -4 -10 -3 0 -8 5 -11 10 -3 6 -1 10 4 10 6 0 11 -4 11 -10z"/>
<path d="M9261 1274 c0 -11 3 -14 6 -6 3 7 2 16 -1 19 -3 4 -6 -2 -5 -13z"/>
<path d="M901 1209 c1 -57 3 -67 9 -42 7 31 4 103 -5 112 -3 2 -5 -29 -4 -70z"/>
<path d="M900 990 c0 -79 3 -140 6 -137 8 7 6 268 -1 276 -3 2 -5 -60 -5 -139z"/>
<path d="M3692 1084 c-32 -37 -22 -40 13 -4 16 17 25 30 19 30 -5 0 -19 -12
-32 -26z"/>
<path d="M3603 1063 c-3 -10 -8 -21 -10 -25 -2 -5 0 -8 6 -8 16 0 33 38 21 45
-6 3 -13 -2 -17 -12z"/>
<path d="M7652 1062 c-7 -5 12 -8 50 -8 94 1 175 -41 278 -142 44 -43 80 -84
80 -91 0 -7 -4 -10 -8 -7 -4 3 -13 -8 -19 -24 -8 -23 -8 -32 2 -40 8 -6 16 -7
19 -2 10 17 52 1 69 -26 12 -19 17 -22 17 -10 0 28 -97 163 -163 224 -85 80
-171 124 -250 130 -34 3 -68 1 -75 -4z"/>
<path d="M1781 1024 c0 -11 3 -14 6 -6 3 7 2 16 -1 19 -3 4 -6 -2 -5 -13z"/>
<path d="M7550 1010 c-9 -6 -10 -10 -3 -10 6 0 15 5 18 10 8 12 4 12 -15 0z"/>
<path d="M1782 950 c0 -19 2 -27 5 -17 2 9 2 25 0 35 -3 9 -5 1 -5 -18z"/>
<path d="M2616 971 c-4 -7 -5 -15 -2 -18 9 -9 19 4 14 18 -4 11 -6 11 -12 0z"/>
<path d="M40 890 c0 -5 5 -10 10 -10 6 0 10 5 10 10 0 6 -4 10 -10 10 -5 0
-10 -4 -10 -10z"/>
<path d="M222 860 c0 -19 2 -27 5 -17 2 9 2 25 0 35 -3 9 -5 1 -5 -18z"/>
<path d="M905 828 c-2 -7 -6 -197 -9 -421 -5 -311 -3 -408 6 -405 9 3 12 112
14 421 1 229 0 417 -2 417 -3 0 -6 -6 -9 -12z"/>
<path d="M199 797 c-3 -21 -2 -40 2 -42 6 -4 5 -31 -1 -60 -1 -5 -2 -26 -1
-45 1 -25 4 -31 10 -21 5 8 7 30 4 49 -5 25 -3 33 6 28 18 -11 26 23 8 37 -9
7 -17 30 -19 52 l-3 40 -6 -38z"/>
<path d="M680 793 c0 -22 2 -25 10 -13 13 20 13 40 0 40 -5 0 -10 -12 -10 -27z"/>
<path d="M221 784 c0 -11 3 -14 6 -6 3 7 2 16 -1 19 -3 4 -6 -2 -5 -13z"/>
<path d="M155 781 c-3 -5 -1 -12 5 -16 5 -3 10 1 10 9 0 18 -6 21 -15 7z"/>
<path d="M241 774 c0 -11 3 -14 6 -6 3 7 2 16 -1 19 -3 4 -6 -2 -5 -13z"/>
<path d="M8330 387 c0 -240 4 -387 10 -387 10 0 6 758 -5 768 -3 3 -5 -169 -5
-381z"/>
<path d="M9075 735 c7 -33 12 -41 21 -33 3 4 -2 19 -11 35 l-16 28 6 -30z"/>
<path d="M141 714 c0 -11 3 -14 6 -6 3 7 2 16 -1 19 -3 4 -6 -2 -5 -13z"/>
<path d="M1784 555 c0 -99 2 -138 3 -87 2 51 2 132 0 180 -1 48 -3 6 -3 -93z"/>
<path d="M201 526 c-1 -46 2 -56 12 -48 9 8 11 0 8 -35 -2 -30 0 -43 7 -39 6
3 11 32 11 63 0 35 -4 52 -9 43 -6 -9 -11 1 -18 31 l-10 44 -1 -59z"/>
<path d="M220 556 c0 -8 5 -18 10 -21 6 -3 10 3 10 14 0 12 -4 21 -10 21 -5 0
-10 -6 -10 -14z"/>
<path d="M742 535 c0 -16 2 -22 5 -12 2 9 2 23 0 30 -3 6 -5 -1 -5 -18z"/>
<path d="M270 535 c0 -8 2 -15 4 -15 2 0 6 7 10 15 3 8 1 15 -4 15 -6 0 -10
-7 -10 -15z"/>
<path d="M9095 530 c-3 -5 -1 -10 4 -10 6 0 11 5 11 10 0 6 -2 10 -4 10 -3 0
-8 -4 -11 -10z"/>
<path d="M277 463 c-4 -21 -2 -42 3 -47 7 -7 10 7 10 37 0 57 -5 60 -13 10z"/>
<path d="M252 465 c0 -16 2 -22 5 -12 2 9 2 23 0 30 -3 6 -5 -1 -5 -18z"/>
<path d="M370 470 c0 -5 5 -10 10 -10 6 0 10 5 10 10 0 6 -4 10 -10 10 -5 0
-10 -4 -10 -10z"/>
<path d="M8520 451 c0 -5 5 -13 10 -16 6 -3 10 -2 10 4 0 5 -4 13 -10 16 -5 3
-10 2 -10 -4z"/>
<path d="M743 385 c0 -38 2 -53 4 -32 2 20 2 52 0 70 -2 17 -4 1 -4 -38z"/>
<path d="M1146 434 c-11 -28 -6 -39 9 -20 8 11 15 23 15 28 0 14 -18 9 -24 -8z"/>
<path d="M1975 440 c3 -5 8 -10 11 -10 2 0 4 5 4 10 0 6 -5 10 -11 10 -5 0 -7
-4 -4 -10z"/>
<path d="M7150 420 c-6 -11 -8 -20 -6 -20 3 0 10 9 16 20 6 11 8 20 6 20 -3 0
-10 -9 -16 -20z"/>
<path d="M9071 424 c0 -11 3 -14 6 -6 3 7 2 16 -1 19 -3 4 -6 -2 -5 -13z"/>
<path d="M8905 402 c2 -15 4 -31 4 -37 2 -16 21 18 21 36 0 9 -6 19 -14 22
-11 4 -14 -1 -11 -21z"/>
<path d="M7451 394 c0 -11 3 -14 6 -6 3 7 2 16 -1 19 -3 4 -6 -2 -5 -13z"/>
<path d="M2361 384 c0 -11 3 -14 6 -6 3 7 2 16 -1 19 -3 4 -6 -2 -5 -13z"/>
<path d="M1640 349 c0 -11 5 -17 10 -14 6 3 10 13 10 21 0 8 -4 14 -10 14 -5
0 -10 -9 -10 -21z"/>
<path d="M7452 345 c0 -16 2 -22 5 -12 2 9 2 23 0 30 -3 6 -5 -1 -5 -18z"/>
<path d="M8196 361 c-4 -7 -5 -15 -2 -18 9 -9 19 4 14 18 -4 11 -6 11 -12 0z"/>
<path d="M575 347 c-4 -10 -5 -21 -1 -24 10 -10 18 4 13 24 -4 17 -4 17 -12 0z"/>
<path d="M1780 181 c0 -103 4 -181 9 -181 12 0 13 348 0 355 -5 4 -9 -64 -9
-174z"/>
<path d="M6634 180 c0 -102 2 -143 3 -92 2 50 2 134 0 185 -1 50 -3 9 -3 -93z"/>
<path d="M501 334 c0 -11 3 -14 6 -6 3 7 2 16 -1 19 -3 4 -6 -2 -5 -13z"/>
<path d="M310 310 c0 -5 5 -10 10 -10 6 0 10 5 10 10 0 6 -4 10 -10 10 -5 0
-10 -4 -10 -10z"/>
<path d="M744 210 c0 -58 1 -81 3 -53 2 29 2 77 0 106 -2 28 -3 5 -3 -53z"/>
<path d="M9060 290 c0 -11 2 -20 4 -20 2 0 6 9 9 20 3 11 1 20 -4 20 -5 0 -9
-9 -9 -20z"/>
<path d="M9275 290 c-3 -5 -1 -10 4 -10 6 0 11 5 11 10 0 6 -2 10 -4 10 -3 0
-8 -4 -11 -10z"/>
<path d="M322 270 c0 -14 2 -19 5 -12 2 6 2 18 0 25 -3 6 -5 1 -5 -13z"/>
<path d="M7453 220 c0 -41 2 -58 4 -37 2 20 2 54 0 75 -2 20 -4 3 -4 -38z"/>
<path d="M411 264 c0 -11 3 -14 6 -6 3 7 2 16 -1 19 -3 4 -6 -2 -5 -13z"/>
<path d="M507 215 c-4 -8 -3 -16 1 -19 4 -3 9 4 9 15 2 23 -3 25 -10 4z"/>
<path d="M9283 105 c0 -27 2 -38 4 -22 2 15 2 37 0 50 -2 12 -4 0 -4 -28z"/>
<path d="M760 108 c0 -23 3 -29 9 -19 8 12 4 51 -5 51 -2 0 -4 -15 -4 -32z"/>
<path d="M7453 80 c0 -36 2 -50 4 -32 2 17 2 47 0 65 -2 17 -4 3 -4 -33z"/>
<path d="M9082 105 c0 -16 2 -22 5 -12 2 9 2 23 0 30 -3 6 -5 -1 -5 -18z"/>
<path d="M663 35 c0 -22 2 -30 4 -17 2 12 2 30 0 40 -3 9 -5 -1 -4 -23z"/>
<path d="M9082 45 c0 -17 2 -22 5 -12 2 9 2 23 0 30 -3 6 -5 -1 -5 -18z"/>
<path d="M9213 35 c0 -22 2 -30 4 -17 2 12 2 30 0 40 -3 9 -5 -1 -4 -23z"/>
<path d="M742 25 c0 -17 2 -22 5 -12 2 9 2 23 0 30 -3 6 -5 -1 -5 -18z"/>
<path d="M9162 25 c0 -17 2 -22 5 -12 2 9 2 23 0 30 -3 6 -5 -1 -5 -18z"/>
<path d="M9181 34 c0 -11 3 -14 6 -6 3 7 2 16 -1 19 -3 4 -6 -2 -5 -13z"/>
<path d="M9380 41 c0 -6 4 -13 10 -16 6 -3 7 1 4 9 -7 18 -14 21 -14 7z"/>
<path d="M562 20 c0 -14 2 -19 5 -12 2 6 2 18 0 25 -3 6 -5 1 -5 -13z"/>
<path d="M822 20 c0 -14 2 -19 5 -12 2 6 2 18 0 25 -3 6 -5 1 -5 -13z"/>
<path d="M9442 20 c0 -14 2 -19 5 -12 2 6 2 18 0 25 -3 6 -5 1 -5 -13z"/>
<path d="M691 14 c0 -11 3 -14 6 -6 3 7 2 16 -1 19 -3 4 -6 -2 -5 -13z"/>
<path d="M715 21 c-3 -5 -2 -12 3 -15 5 -3 9 1 9 9 0 17 -3 19 -12 6z"/>
<path d="M760 15 c0 -8 5 -15 10 -15 6 0 10 7 10 15 0 8 -4 15 -10 15 -5 0
-10 -7 -10 -15z"/>
</g>
</svg>
