<?xml version="1.0" standalone="no"?>
<!DOCTYPE svg PUBLIC "-//W3C//DTD SVG 20010904//EN"
 "http://www.w3.org/TR/2001/REC-SVG-20010904/DTD/svg10.dtd">
<svg version="1.0" xmlns="http://www.w3.org/2000/svg"
 width="1920.000000pt" height="640.000000pt" viewBox="0 0 1920.000000 640.000000"
 preserveAspectRatio="xMidYMid meet">

<g transform="translate(0.000000,640.000000) scale(0.100000,-0.100000)"
fill="#000000" stroke="none">
<path d="M11986 6318 c-12 -142 -36 -306 -48 -333 -6 -14 -19 -25 -29 -25 -18
0 -170 53 -203 71 -10 6 -66 37 -125 69 -219 120 -464 212 -652 244 -89 16
-265 23 -276 12 -9 -9 13 -13 137 -25 255 -24 428 -93 1034 -410 43 -22 85
-41 92 -41 7 0 16 -15 19 -32 26 -118 131 -356 232 -526 117 -198 241 -341
300 -346 15 -1 18 9 21 64 2 54 -3 84 -34 170 -97 280 -303 624 -451 755 -27
24 -27 24 -5 25 21 0 22 4 22 68 0 38 3 130 7 205 6 133 6 137 -14 137 -18 0
-21 -9 -27 -82z"/>
<path d="M7325 4726 c-76 -18 -194 -60 -266 -96 -163 -83 -349 -243 -446 -385
-92 -136 -190 -370 -259 -617 l-38 -138 -246 0 -246 0 -19 -72 c-10 -40 -20
-79 -23 -85 -3 -10 49 -13 242 -13 135 0 246 -3 246 -6 0 -6 -155 -606 -361
-1394 -139 -531 -178 -619 -307 -682 -61 -30 -73 -33 -193 -36 -71 -3 -180 1
-243 7 -63 7 -144 12 -180 12 -136 0 -212 -69 -192 -176 34 -181 389 -204 721
-46 121 58 279 175 370 274 137 148 262 365 340 587 28 80 268 983 375 1413
l12 47 277 0 278 0 16 78 c9 42 17 81 17 85 0 4 -119 7 -265 7 -246 0 -265 1
-265 18 0 9 27 127 61 262 87 350 148 496 253 609 90 95 154 108 348 72 240
-46 283 -47 355 -14 73 34 97 143 48 215 -41 61 -100 82 -235 85 -70 2 -138
-3 -175 -11z"/>
<path d="M12645 4451 c-113 -51 -166 -187 -112 -291 27 -53 74 -80 140 -80 60
0 103 18 146 61 68 68 91 176 53 249 -37 70 -144 99 -227 61z"/>
<path d="M14365 3674 c-33 -8 -70 -16 -82 -19 -12 -3 -31 -20 -42 -39 l-22
-34 -139 -1 c-77 0 -157 -3 -178 -6 -168 -27 -322 -92 -458 -193 -249 -184
-478 -503 -578 -803 -47 -141 -59 -219 -54 -352 5 -130 27 -199 84 -266 142
-165 417 -92 757 204 48 42 87 70 87 63 0 -7 -14 -56 -30 -108 -37 -119 -39
-182 -6 -215 68 -68 262 -29 462 94 72 45 306 232 346 277 15 18 14 22 -27 68
l-43 49 -59 -50 c-99 -85 -258 -183 -297 -183 -41 0 -39 56 9 296 53 260 123
526 235 888 55 181 100 332 98 336 -2 4 -30 1 -63 -6z m-375 -350 c4 -5 -34
-160 -86 -349 -104 -371 -151 -489 -237 -594 -107 -128 -246 -211 -354 -211
-55 0 -66 3 -98 31 -53 47 -69 115 -62 254 14 260 141 566 302 730 116 119
220 157 408 151 65 -2 122 -7 127 -12z"/>
<path d="M12380 3614 c-82 -21 -204 -84 -297 -150 -94 -68 -273 -230 -273
-247 0 -13 92 -82 108 -82 5 0 53 38 106 84 120 105 158 131 201 138 51 8 53
-13 17 -131 -188 -601 -271 -915 -297 -1124 -20 -159 80 -256 230 -222 120 27
263 119 486 312 121 104 118 95 37 160 l-37 29 -100 -84 c-158 -135 -227 -177
-250 -154 -39 39 21 297 214 916 96 311 128 436 121 477 -16 83 -126 115 -266
78z"/>
<path d="M7673 3605 c-124 -34 -307 -149 -519 -328 l-73 -61 59 -43 59 -44 93
78 c133 112 206 153 238 133 32 -20 3 -152 -150 -690 -153 -540 -164 -642 -75
-738 32 -35 36 -37 112 -40 62 -3 94 1 155 21 137 44 358 180 506 313 35 31
65 54 68 52 2 -3 0 -29 -6 -58 -18 -96 -13 -201 13 -250 69 -131 233 -114 452
48 75 55 267 223 309 271 l20 22 -46 46 -46 46 -102 -94 c-108 -101 -201 -169
-229 -169 -10 0 -26 9 -36 20 -22 24 -18 64 24 236 22 88 287 1044 327 1177 5
16 -7 17 -160 17 -148 0 -165 -2 -170 -17 -3 -10 -57 -206 -120 -435 -64 -229
-127 -442 -140 -472 -56 -126 -157 -247 -299 -357 -98 -76 -177 -118 -235
-126 -34 -5 -41 -2 -65 27 -15 17 -27 43 -27 56 0 23 86 369 185 739 97 363
115 512 72 576 -40 60 -91 71 -194 44z"/>
<path d="M9940 3606 c-288 -61 -551 -305 -734 -681 -105 -214 -149 -392 -150
-595 0 -334 153 -491 440 -451 184 26 379 109 604 259 75 49 141 96 148 104
10 12 7 29 -14 86 l-26 71 -73 -55 c-218 -164 -453 -253 -568 -215 -55 19
-112 88 -136 166 -44 141 -20 427 54 645 56 167 119 285 184 350 76 75 118 95
206 95 64 0 79 -4 175 -52 177 -88 261 -94 331 -24 91 91 41 236 -98 286 -64
23 -255 29 -343 11z"/>
<path d="M11247 3604 c-134 -30 -258 -106 -334 -206 -55 -72 -72 -108 -89
-191 -24 -111 -2 -223 67 -346 41 -72 74 -114 182 -231 202 -217 236 -306 169
-436 -28 -55 -101 -118 -160 -139 -26 -9 -87 -19 -137 -22 -80 -4 -95 -2 -135
19 -25 13 -55 38 -67 57 -20 30 -23 45 -21 115 3 70 0 85 -19 112 -33 46 -84
67 -150 62 -60 -5 -95 -26 -131 -79 -21 -30 -23 -43 -20 -115 3 -65 10 -90 31
-126 84 -144 245 -206 507 -195 215 8 355 64 485 192 122 120 173 263 146 413
-23 130 -85 232 -247 404 -179 190 -224 264 -224 367 0 100 80 189 178 199 68
6 101 -13 207 -123 100 -102 133 -117 213 -96 44 12 98 65 108 107 24 96 -65
208 -201 250 -73 23 -272 28 -358 8z"/>
</g>
</svg>
